<?xml version="1.0" encoding="utf-8"?>
<!-- Generator: Adobe Illustrator 21.0.2, SVG Export Plug-In . SVG Version: 6.00 Build 0)  -->
<svg version="1.1" id="Layer_1" xmlns="http://www.w3.org/2000/svg" xmlns:xlink="http://www.w3.org/1999/xlink" x="0px" y="0px"
	 viewBox="0 0 200 200" style="enable-background:new 0 0 200 200;" xml:space="preserve">
<style type="text/css">
	.st0{fill:#DB8538;}
	.st1{fill:#FDD6BD;}
	.st2{fill:#CF7228;}
	.st3{fill:#F7956B;}
	.st4{fill:#583B2B;}
	.st5{fill:#FFFFFF;}
	.st6{fill:#353A42;}
	.st7{opacity:0.3;fill:#FFFFFF;}
	.st8{opacity:0.2;fill:#606161;}
	.st9{fill:#0E9D49;}
	.st10{opacity:0.3;}
	.st11{fill:#21B24B;}
	.st12{opacity:0.5;fill:#21B24B;}
	.st13{opacity:0.4;}
</style>
<g>
	<g>
		<path class="st0" d="M169.6,95.2c-14.6-5.4-28.4,12.7-34.4,22.2c0.9,1.7,1.7,3.7,2.4,5.9c0.9,2.7,1.6,5.6,2.2,8.6
			c3.9-6.4,10.5-16.4,15.3-21.2c7.4-7.4,11.4-3.5,17.6-0.6C179,113,189.2,102.4,169.6,95.2z"/>
		<path class="st1" d="M38.4,53.6c0,3.5,2.8,6.3,6.3,6.5c0.9-4.1,2.3-8,4.1-11.6c-1.1-0.8-2.4-1.3-3.8-1.3
			C41.3,47.2,38.4,50,38.4,53.6z"/>
		<path class="st1" d="M155.9,53.6c0-3.6-2.9-6.5-6.5-6.5c-1.5,0-2.8,0.5-3.9,1.3c1.8,3.6,3.1,7.5,4,11.6
			C153,60,155.9,57.2,155.9,53.6z"/>
		<path class="st2" d="M68.3,176.2c-0.3-1-0.5-2.1-0.5-3.2v-8.4c0-5,0.6-9.3,1.6-12.9c-2.7-4.7-4.2-10-4.2-15.8
			c0-6.4,1.9-12.4,5.2-17.4c-3-1.7-5.9-3.8-8.5-6c-1.8,2.6-3.7,6.1-5.3,10.7c-4.3,12.7-4.7,29.7-1.2,50.7c0.7,4.3,4.4,7.4,8.7,7.4
			c0.5,0,1,0,1.5-0.1c0.8-0.1,1.2-0.4,2.3-0.7v-2.5C67.8,177.3,68,176.7,68.3,176.2z"/>
		<path class="st2" d="M135.2,117.3c-0.9-1.9-1.9-3.5-2.9-4.8c-2.6,2.3-5.5,4.3-8.5,6c3.3,5,5.2,11,5.2,17.4c0,5.7-1.5,11-4.1,15.6
			c1,3.6,1.7,8,1.7,13v8.4c0,1.1-0.2,2.1-0.4,3.1c0.3,0.5,0.4,1.1,0.4,1.9v2.6c1.2,0.3,1.4,0.5,2.1,0.7c0.5,0.1,1,0.1,1.4,0.1
			c4.2,0,8-3.1,8.7-7.4c2.7-16.5,3.1-30.6,1-42.1c-0.6-3.1-1.3-6-2.2-8.6C136.8,121,136,119.1,135.2,117.3z"/>
		<path class="st1" d="M85.9,174.1h-0.6c-1,0-1.9,0.3-2.7,0.7c-0.7-0.4-1.6-0.7-2.6-0.7h-0.6c-1.3,0-2.5,0.4-3.4,1.1
			c-0.7-0.7-1.8-1.1-3.1-1.1h-0.6c-1.8,0-3.4,0.8-4.1,2.1c-0.3,0.5-0.4,1.1-0.4,1.8v2.5v2.8c0,2.4,2.1,4.9,4.6,4.9H73
			c1.3,0,2.4-0.7,3.1-1.7c0.9,1,2.1,1.7,3.4,1.7H80c1,0,1.9-0.4,2.6-1.1c0.8,0.7,1.7,1.1,2.7,1.1h0.6c2.4,0,4.2-2.5,4.2-4.9v-5.3
			c0-0.1,0-0.1-0.1-0.2C90,175.4,88.3,174.1,85.9,174.1z"/>
		<path class="st0" d="M107.6,174.1h0.6c1.3,0,2.4,0.4,3.1,1.1c0.9-0.7,2.1-1.1,3.4-1.1h0.6c1.3,0,2.4,0.4,3.1,1.1
			c0.9-0.7,2.1-1.1,3.4-1.1h0.6c1.7,0,3.1,0.7,3.8,2c0.3-1,0.5-2.1,0.5-3.1v-8.4c0-5-0.6-9.4-1.7-13c2.6-4.6,4.1-9.9,4.1-15.6
			c0-6.4-1.9-12.4-5.2-17.4c3-1.7,5.9-3.8,8.5-6c11.4-9.9,18.6-24.4,18.6-40.6c0-2.6-0.2-5.2-0.6-7.7c5.9-0.3,10.5-5.2,10.5-11.1
			c0-6.2-5-11.2-11.2-11.2c-2.5,0-4.7,0.8-6.6,2.2c-9-14.9-25-25-43.5-25.9c0.8-1,1.9-1.9,3-2.6c0.8-0.5-0.1-1.6-0.9-1.3
			c-2,0.8-3.5,2.1-4.5,3.8c-0.1,0-0.1,0-0.2,0c-0.2,0-0.3,0-0.5,0c0-0.6,0.1-1.2,0.1-1.8c0.1-1.1,0.3-2.2,0.5-3.3
			c0.1-0.5,0.8-3,0.7-4.3c0-1.4-0.7-1.7-0.7-1.7c-0.5-0.2-1,0-1.3,0.6c-1.4,2.8-1.9,6.8-1.7,10.6c-18.1,1-33.9,11-42.8,25.6
			c-1.8-1.2-3.9-1.9-6.2-1.9c-6.2,0-11.2,5-11.2,11.2c0,5.8,4.4,10.5,10,11.1c-0.4,2.5-0.6,5.1-0.6,7.7c0,16.2,7.2,30.8,18.6,40.6
			c2.6,2.3,5.5,4.3,8.5,6c-3.3,5-5.2,11-5.2,17.4c0,5.7,1.6,11.1,4.2,15.8c-1,3.6-1.6,7.9-1.6,12.9v8.4c0,1.1,0.1,2.2,0.4,3.2
			c0.8-1.3,2.4-2.1,4.1-2.1H73c1.3,0,2.4,0.4,3.1,1.1c0.9-0.7,2.1-1.1,3.4-1.1H80c1,0,1.9,0.3,2.6,0.7c0.8-0.4,1.7-0.7,2.7-0.7h0.6
			c2.4,0,4.1,1.4,4.2,3.7c0.8-1.5,1.2-3.1,1.2-4.8v-5.7c2.4,0.3,3.8,0.5,5.8,0.5c2,0,3.6-0.2,5.9-0.6v5.7c0,1.1,0.2,2.1,0.5,3.1
			C104.4,174.8,105.9,174.1,107.6,174.1z M149.4,47.2c3.6,0,6.5,2.9,6.5,6.5c0,3.5-2.8,6.4-6.4,6.5c-0.9-4-2.3-7.9-4-11.6
			C146.6,47.7,147.9,47.2,149.4,47.2z M44.6,60.1c-3.5-0.1-6.3-3-6.3-6.5c0-3.6,2.9-6.5,6.5-6.5c1.4,0,2.8,0.5,3.8,1.3
			C46.9,52.1,45.5,56,44.6,60.1z M67.6,90.4c1.3-3.8,4.3-6.8,8.2-9C68,79.2,62.3,72,62.3,63.5c0-10.3,8.3-18.6,18.6-18.6
			c7,0,13,3.8,16.2,9.5c3.2-5.7,9.2-9.5,16.2-9.5c10.3,0,18.6,8.3,18.6,18.6c0,8.2-5.3,15.1-12.6,17.6c4.1,2.3,7.3,5.4,8.6,9.3
			c2.6,7.6,4.3,17.8-12.3,21.8c-1,2.7-4.6,7.7-17.9,7.7c-13.4,0-17.1-5.1-18.1-7.8C63.3,108.1,65,98,67.6,90.4z M97.1,154.3
			c-11.9,0-21.5-9.6-21.5-21.5c0-3.8,1-7.4,2.8-10.5c5.8,2.2,12.1,3.4,18.7,3.4c6.6,0,12.9-1.2,18.7-3.4c1.8,3.1,2.8,6.7,2.8,10.5
			C118.6,144.7,109,154.3,97.1,154.3z"/>
		<path class="st1" d="M126.1,176.1c-0.7-1.3-2-2-3.8-2h-0.6c-1.3,0-2.5,0.4-3.4,1.1c-0.7-0.7-1.8-1.1-3.1-1.1h-0.6
			c-1.3,0-2.5,0.4-3.4,1.1c-0.7-0.7-1.8-1.1-3.1-1.1h-0.6c-1.7,0-3.3,0.7-4.1,2c-0.3,0.5-0.5,1.1-0.5,1.8v5.3c0,2.4,2.1,4.9,4.6,4.9
			h0.6c1.3,0,2.4-0.7,3.1-1.7c0.9,1,2.1,1.7,3.4,1.7h0.6c1.3,0,2.4-0.7,3.1-1.7c0.9,1,2.1,1.7,3.4,1.7h0.6c2.4,0,4.2-2.5,4.2-4.9
			v-2.7v-2.6C126.6,177.2,126.4,176.6,126.1,176.1z"/>
		<path class="st1" d="M118.6,132.8c0-3.8-1-7.4-2.8-10.5c-5.8,2.2-12.1,3.4-18.7,3.4c-6.6,0-12.9-1.2-18.7-3.4
			c-1.8,3.1-2.8,6.7-2.8,10.5c0,11.9,9.6,21.5,21.5,21.5C109,154.3,118.6,144.7,118.6,132.8z"/>
		<path class="st3" d="M79.7,112.2c1,2.6,4.7,7.8,18.1,7.8c13.3,0,16.9-5.1,17.9-7.7c-4.5,1.1-10.4,1.7-17.9,1.7
			C90.1,114,84.2,113.3,79.7,112.2z"/>
		<path class="st1" d="M97.8,114c7.6,0,13.4-0.6,17.9-1.7c16.5-4,14.9-14.2,12.3-21.8c-1.4-3.9-4.5-7-8.6-9.3
			c7.3-2.5,12.6-9.4,12.6-17.6c0-10.3-8.3-18.6-18.6-18.6c-7,0-13,3.8-16.2,9.5c-3.2-5.7-9.2-9.5-16.2-9.5
			c-10.3,0-18.6,8.3-18.6,18.6c0,8.5,5.7,15.6,13.4,17.9c-3.9,2.3-6.9,5.3-8.2,9c-2.6,7.6-4.3,17.7,12.1,21.7
			C84.2,113.3,90.1,114,97.8,114z M114.7,53.5c5.1,0,9.2,4.1,9.2,9.2c0,5.1-4.1,9.2-9.2,9.2c-5.1,0-9.2-4.1-9.2-9.2
			C105.5,57.6,109.6,53.5,114.7,53.5z M97.8,74.6c5.8,0,10.8,0.8,12.9,3.2c0.2,0.2,0.4,0.4,0.5,0.7c1.7,3-5.9,2.4-3.7,4.5
			c0,0-0.6,3.9-9.7,3.9c-9.1,0-9.7-3.9-9.7-3.9c2.2-2.1-5.4-1.5-3.7-4.5c0.1-0.2,0.4-0.5,0.6-0.7C87,75.4,92,74.6,97.8,74.6z
			 M71.1,62.7c0-5.1,4.1-9.2,9.2-9.2c5.1,0,9.2,4.1,9.2,9.2c0,5.1-4.1,9.2-9.2,9.2C75.2,72,71.1,67.8,71.1,62.7z"/>
		<path class="st4" d="M84.9,77.9c-0.2,0.2-0.4,0.4-0.6,0.7c-1.7,3,5.9,2.4,3.7,4.5c0,0,0.6,3.9,9.7,3.9c9.1,0,9.7-3.9,9.7-3.9
			c-2.2-2.1,5.4-1.5,3.7-4.5c-0.1-0.2-0.4-0.5-0.5-0.7c-2.1-2.5-7.1-3.2-12.9-3.2C92,74.6,87,75.4,84.9,77.9z"/>
		<path class="st5" d="M89.6,62.7c0-5.1-4.1-9.2-9.2-9.2c-5.1,0-9.2,4.1-9.2,9.2c0,5.1,4.1,9.2,9.2,9.2C85.4,72,89.6,67.8,89.6,62.7
			z M77,66c-0.9-0.9-1.5-2.1-1.5-3.5c0-2.7,2.2-4.8,4.8-4.8c2.7,0,4.8,2.2,4.8,4.8c0,1-0.3,2-0.9,2.8c-0.3-1.3-1.4-2.4-3.2-2.4
			C78.9,62.9,77.5,64.4,77,66z"/>
		<path class="st6" d="M84.3,65.3c0.6-0.8,0.9-1.7,0.9-2.8c0-2.7-2.2-4.8-4.8-4.8c-2.7,0-4.8,2.2-4.8,4.8c0,1.4,0.6,2.6,1.5,3.5
			c0.5-1.6,1.9-3.1,4-3.1C82.9,62.9,83.9,64,84.3,65.3z"/>
		<path class="st5" d="M114.7,72c5.1,0,9.2-4.1,9.2-9.2c0-5.1-4.1-9.2-9.2-9.2c-5.1,0-9.2,4.1-9.2,9.2C105.5,67.8,109.6,72,114.7,72
			z M114.7,57.7c2.7,0,4.8,2.2,4.8,4.8c0,1.4-0.6,2.6-1.5,3.5c-0.5-1.6-1.9-3.1-4-3.1c-1.8,0-2.9,1-3.2,2.4
			c-0.5-0.8-0.9-1.7-0.9-2.8C109.9,59.9,112,57.7,114.7,57.7z"/>
		<path class="st6" d="M114,62.9c2.1,0,3.5,1.5,4,3.1c0.9-0.9,1.5-2.1,1.5-3.5c0-2.7-2.2-4.8-4.8-4.8c-2.7,0-4.8,2.2-4.8,4.8
			c0,1,0.3,2,0.9,2.8C111.1,64,112.1,62.9,114,62.9z"/>
	</g>
	<path class="st7" d="M169.6,95.2c-14.6-5.4-28.4,12.7-34.4,22.2c-0.9-1.9-1.9-3.5-2.9-4.8c11.4-9.9,18.6-24.4,18.6-40.6
		c0-2.6-0.2-5.2-0.6-7.7c5.9-0.3,10.5-5.2,10.5-11.1c0-6.2-5-11.2-11.2-11.2c-2.5,0-4.7,0.8-6.6,2.2c-9-14.9-25-25-43.5-25.9
		c0.8-1,1.9-1.9,3-2.6c0.8-0.5-0.1-1.6-0.9-1.3c-2,0.8-3.5,2.1-4.5,3.8c0,0-0.1,0-0.1,0v149.7c2,0,4-0.2,5.9-0.6v5.7
		c0,1.1,0.2,2.1,0.5,3.1c-0.3,0.5-0.5,1.1-0.5,1.8v5.3c0,2.4,2.2,4.9,4.6,4.9h0.6c1.3,0,2.4-0.7,3.1-1.7c0.9,1,2.1,1.7,3.4,1.7h0.6
		c1.3,0,2.4-0.7,3.1-1.7c0.9,1,2.1,1.7,3.4,1.7h0.6c2.4,0,4.2-2.5,4.2-4.9v-2.7c0.7,0.3,1.4,0.5,2.2,0.7c0.5,0.1,1,0.1,1.5,0.1
		c4.2,0,8-3.1,8.7-7.4c2.7-16.5,3.1-30.6,1-42.1c3.9-6.4,10.5-16.4,15.3-21.2c7.4-7.4,11.4-3.5,17.6-0.6
		C179,113,189.2,102.4,169.6,95.2z"/>
</g>
<g>
	<path class="st8" d="M139.5,187.2c-2.5,0-4.9-0.6-7.2-1.8c-3.9-2-7.1-4.8-9.6-8.4c-4.4-6.3-6.2-14.6-5.2-23.3
		c0.6-5.1,2.3-12.2,7.3-17.5c3.6-3.8,8.8-6,14.3-6c2.6,0,5.2,0.5,7.6,1.5c13.8,5.7,16.9,23.7,12.9,37.8
		C157,178.2,148.8,187.2,139.5,187.2z M138.7,143.3c-2.6,0-4.8,1.8-6,4.8c-1.6,4-2,8.6-1.3,13.5c0.6,4.2,3.1,12.3,8.4,12.3
		c1.9,0,3.4-0.6,4.5-1.9c2.6-2.9,3.6-9,2.8-17.6c-0.3-3.6-1.5-8.3-5.1-10.1C140.9,143.6,139.8,143.3,138.7,143.3z"/>
	<g>
		<path class="st9" d="M140.9,184.3c-2.5,0-4.9-0.6-7.2-1.8c-3.9-2-7.1-4.8-9.6-8.4c-4.4-6.3-6.2-14.6-5.2-23.3
			c0.6-5.1,2.3-12.2,7.3-17.5c3.6-3.8,8.8-6,14.3-6c2.6,0,5.2,0.5,7.6,1.5c13.8,5.7,16.9,23.7,12.9,37.8
			C158.4,175.3,150.3,184.3,140.9,184.3z M140.1,140.4c-2.6,0-4.8,1.8-6,4.8c-1.6,4-2,8.6-1.3,13.5c0.6,4.2,3.1,12.3,8.4,12.3
			c1.9,0,3.4-0.6,4.5-1.9c2.6-2.9,3.6-9,2.8-17.6c-0.3-3.6-1.5-8.3-5.1-10.1C142.3,140.7,141.2,140.4,140.1,140.4z"/>
		<g class="st10">
			<path class="st9" d="M132.7,157.6c-2.2,0.5-4.5,1-6.5,2c-1.3,0.6-4.5,1.8-5.3,3c-0.4,0.5-0.8,0.9-1.3,1.3
				c0.9,3.8,2.4,7.2,4.5,10.3c1.2,1.8,2.7,3.4,4.3,4.8c1.9-3.2,3.8-6.4,6-9.5c0.5-0.7,1.1-1.2,1.8-1.6c-1.9-2.7-2.9-6.5-3.3-9.1
				C132.8,158.3,132.7,158,132.7,157.6z"/>
			<path class="st9" d="M133.1,148.4c0.3-1.1,0.6-2.2,1-3.2c1.2-3,3.4-4.8,6-4.8c1.1,0,2.2,0.3,3.3,0.9c1.2,0.6,2.1,1.5,2.8,2.5
				c1-0.8,2.1-1.6,3.2-2.4c2.6-1.8,5.2-3.5,7.9-5.1c-2.3-3.3-5.4-6-9.4-7.7c-2.4-1-4.9-1.5-7.6-1.5c-5.5,0-10.7,2.2-14.3,6
				c-5,5.3-6.8,12.5-7.3,17.5c-0.1,0.7-0.1,1.5-0.2,2.2c4-2.4,8.9-3.7,13.1-4.6C132.3,148.4,132.7,148.4,133.1,148.4z"/>
			<path class="st9" d="M161.2,144.7c-2.1,1.2-4.1,2.4-6,3.8c-2.1,1.5-4.5,2.9-5.7,5.4c-0.2,0.4-0.4,0.7-0.7,1
				c0.2,6.8-0.8,11.6-3,14.1c-0.8,0.9-1.8,1.5-3,1.8c0.3,1.1,0.2,2.3-0.5,3.2c-2.2,3.1-4.1,6.3-6,9.5c1.6,0.5,3.2,0.8,4.8,0.8
				c9.4,0,17.5-9,20-17.7C162.9,159.6,163.1,151.7,161.2,144.7z"/>
		</g>
		<path class="st11" d="M143.6,181c-2.5,0-4.9-0.6-7.2-1.8c-3.9-2-7.1-4.8-9.6-8.4c-4.4-6.3-6.2-14.6-5.2-23.3
			c0.6-5.1,2.3-12.2,7.3-17.5c3.6-3.8,8.8-6,14.3-6c2.6,0,5.2,0.5,7.6,1.5c13.8,5.7,16.9,23.7,12.9,37.8
			C161.1,172,152.9,181,143.6,181z M142.8,137.1c-2.6,0-4.8,1.8-6,4.8c-1.6,4-2,8.6-1.3,13.5c0.6,4.2,3.1,12.3,8.4,12.3
			c1.9,0,3.4-0.6,4.5-1.9c2.6-2.9,3.6-9,2.8-17.6c-0.3-3.6-1.5-8.3-5.1-10.1C145,137.4,143.8,137.1,142.8,137.1z"/>
		<path class="st12" d="M143.6,179.5c-2.2,0-4.4-0.6-6.6-1.7c-3.7-1.9-6.7-4.6-9.1-7.9c-4.1-6-5.9-13.9-4.9-22.2
			c0.6-4.8,2.2-11.7,6.9-16.7c3.3-3.5,8.1-5.5,13.1-5.5c2.4,0,4.8,0.5,7,1.4c7.5,3.1,10.8,9.7,12.2,14.8c1.9,6.5,1.8,14.2-0.2,21.3
			c-1.2,4.2-3.7,8.3-7,11.4C152.6,176.7,148.6,179.5,143.6,179.5z M142.8,135.6c-3.3,0-6,2.1-7.4,5.7c-1.7,4.3-2.1,9.1-1.4,14.3
			c0.7,5,3.6,13.6,9.9,13.6c2.3,0,4.2-0.8,5.6-2.4c2.9-3.2,4-9.5,3.2-18.8c-0.5-5.7-2.6-9.6-5.9-11.4
			C145.4,136,144.1,135.6,142.8,135.6z"/>
		<g class="st13">
			<path class="st5" d="M150.6,125.5c-2.4-1-4.9-1.5-7.6-1.5c-5.5,0-10.7,2.2-14.3,6c-4,4.3-6,9.8-6.9,14.4
				c10.8-4.8,22-9.6,30.2-18.2C151.7,125.9,151.2,125.7,150.6,125.5z"/>
			<path class="st5" d="M159.2,132c-3.1,3.3-6.6,6.1-10.3,8.6c1.4,2.2,2,5.1,2.2,7.5c0.4,4.9,0.3,9-0.4,12.1
				c4.8-1.6,9.5-3.5,14.2-5.5C165.7,146.5,163.9,138.1,159.2,132z"/>
			<path class="st5" d="M136.3,179.2c2.3,1.2,4.8,1.8,7.2,1.8c8.6,0,16.2-7.6,19.3-15.6c-10.7,4.2-21.6,7.6-33,9.1
				C131.7,176.4,133.9,178,136.3,179.2z"/>
			<path class="st5" d="M135.5,155.4c-0.4-2.5-0.4-4.9-0.2-7.1c-4.6,2.2-9.4,4.2-14,6.3c0.3,4.1,1.2,7.9,2.7,11.4
				c4.8-0.4,9.6-1.1,14.3-2.2C136.7,161.2,135.8,157.7,135.5,155.4z"/>
		</g>
		<g>
			<path class="st11" d="M137.9,139.7c-1.1,0.8-2.1,2.1-2.7,3.7c-1.6,4-2,8.6-1.3,13.5c0.6,4.2,3.1,12.3,8.4,12.3
				c1.9,0,3.4-0.6,4.5-1.9c0.2-0.2,0.3-0.4,0.5-0.6c-1,0.7-2.1,1-3.5,1c-5.3,0-7.8-8-8.4-12.3c-0.7-4.9-0.3-9.5,1.3-13.5
				C137.1,141.1,137.5,140.4,137.9,139.7z"/>
			<path class="st11" d="M150.6,125.5c-2.4-1-4.9-1.5-7.6-1.5c-5.5,0-10.7,2.2-14.3,6c-0.1,0.1-0.2,0.2-0.3,0.4
				c3.5-3.1,8.2-4.8,13.1-4.8c2.6,0,5.2,0.5,7.6,1.5c13.8,5.7,16.9,23.7,12.9,37.8c-1.1,3.8-3.3,7.7-6.2,10.9
				c3.7-3.4,6.4-7.9,7.7-12.4C167.6,149.2,164.4,131.1,150.6,125.5z"/>
		</g>
	</g>
	<g>
		<g>
			<path class="st5" d="M160.9,165C160.9,165,160.9,165,160.9,165c-0.4-0.1-0.6-0.3-0.5-0.6c2.4-12.6,1.1-22.6-3.8-29
				c-0.2-0.2-0.1-0.5,0.1-0.7c0.2-0.2,0.5-0.1,0.7,0.1c5.1,6.7,6.5,16.8,4,29.8C161.4,164.9,161.2,165,160.9,165z"/>
		</g>
		<g>
			<path class="st5" d="M154.1,132.6c-0.1,0-0.2,0-0.3-0.1c-3.1-2.6-5.9-3.2-5.9-3.2c-0.3-0.1-0.4-0.3-0.4-0.6
				c0.1-0.3,0.3-0.4,0.6-0.4c0.1,0,3.1,0.7,6.4,3.4c0.2,0.2,0.2,0.5,0.1,0.7C154.4,132.5,154.3,132.6,154.1,132.6z"/>
		</g>
		<g>
			<path class="st5" d="M134.1,165c-0.2,0-0.4-0.1-0.5-0.3c-1.9-4-3.7-10.9-1.7-21.5c0.1-0.3,0.3-0.5,0.6-0.4
				c0.3,0.1,0.5,0.3,0.4,0.6c-2,10.3-0.2,17,1.6,20.9c0.1,0.3,0,0.6-0.2,0.7C134.2,165,134.2,165,134.1,165z"/>
		</g>
		<g>
			<path class="st5" d="M138.7,171c-0.1,0-0.2,0-0.3-0.1c-0.1,0-1.3-0.9-2.7-2.9c-0.2-0.2-0.1-0.5,0.1-0.7c0.2-0.2,0.5-0.1,0.7,0.1
				c1.3,1.8,2.5,2.6,2.5,2.6c0.2,0.2,0.3,0.5,0.1,0.7C139,171,138.8,171,138.7,171z"/>
		</g>
	</g>
</g>
</svg>
