<?xml version="1.0" encoding="utf-8"?>
<!-- Generator: Adobe Illustrator 21.0.2, SVG Export Plug-In . SVG Version: 6.00 Build 0)  -->
<svg version="1.1" id="Layer_1" xmlns="http://www.w3.org/2000/svg" xmlns:xlink="http://www.w3.org/1999/xlink" x="0px" y="0px"
	 viewBox="0 0 200 200" style="enable-background:new 0 0 200 200;" xml:space="preserve">
<style type="text/css">
	.st0{fill:#FFFFFF;}
	.st1{fill:#F8AFA5;}
	.st2{fill:#F9F9FA;}
	.st3{fill:#EBEBEC;}
	.st4{fill:#353A42;}
	.st5{opacity:0.3;fill:#FFFFFF;}
	.st6{opacity:0.2;fill:#606161;}
	.st7{fill:#F37421;}
	.st8{opacity:0.3;fill:#F37421;}
	.st9{fill:#F99B1C;}
	.st10{opacity:0.5;fill:#F99B1C;}
	.st11{opacity:0.4;}
</style>
<g>
	<g>
		<path class="st0" d="M164.9,146.2c-11.7-2.6-16.2,9.2-29.6-6.3c-1.2,3.1-3.3,6-4.5,8.7v2.4c6.1,6.4,14,13.7,22.2,13.9
			C170.8,165.4,176.9,148.9,164.9,146.2z"/>
		<path class="st1" d="M68.5,30c-3.7-3-7.8-5.9-10.1-5.8c-2.4,0.1-4.9,10.5-4.2,17.7C58.2,37.2,63.1,33.1,68.5,30z"/>
		<path class="st1" d="M140.2,43.1c1.1-7.1-1.5-18.8-4.1-18.9c-2.5-0.1-6.9,3-10.6,6.2C131.1,33.7,136.1,38.1,140.2,43.1z"/>
		<path class="st2" d="M135.2,139.9c1.6-4.4,2.5-9.1,2.5-14c0-2.8-0.3-5.4-0.8-8c-10.2,10.5-24.5,17-40.3,17
			c-14.7,0-28.1-5.7-38.2-15c-0.3,2-0.4,3.9-0.4,6c0,9.2,3.5,17.7,8.4,24.4v31.4c0,3.6,2.8,6.5,6.4,6.5h6.4c3.6,0,6.6-2.9,6.6-6.5
			v-17.8c3.6,1.2,7.9,1.9,12.1,1.9c4.7,0,8.5-0.8,13.4-2.3v18.2c0,3.6,2.8,6.5,6.4,6.5h6.4c3.6,0,6.6-2.9,6.6-6.5V151v-2.4
			C131.9,145.9,134.1,143,135.2,139.9z"/>
		<path class="st0" d="M136.9,117.9c0.8-0.8,1.5-1.6,2.3-2.5c9.5,0.9,17.4,4.5,24.2,11.5c0.6,0.6,1.6-0.3,1.1-1
			c-5.2-7.6-15.2-11.9-24.4-11.7c2-2.4,3.8-5,5.3-7.8c4.7,0,9.4,0.5,14.1,1.7c0.6,0.2,1-0.8,0.4-1.1c-4.4-1.7-9-2.3-13.6-2.2
			c1.7-3.2,3.1-6.7,4.2-10.3c4.6-0.8,9.4-1,14.4-0.2c1.1,0.2,1.3-1.3,0.3-1.6c-4.7-1.5-9.4-1.5-14.1-0.6c1.1-4.3,1.7-8.9,1.7-13.5
			c0-9.4-2.3-18.2-6.4-26c5.7-11.9-1.1-45.4-10.6-40.3c-5.7,3.1-12.6,9.5-17.5,14.5c-6.7-2.8-14.1-4.4-21.8-4.4
			c-7.4,0-14.5,1.4-20.9,4c-4.8-4.9-11.5-11.1-17.1-14.1c-9.2-4.9-15.9,26.3-11.1,39.1c-4.5,8.1-7,17.3-7,27.2
			c0,4.5,0.6,8.9,1.6,13.1c-3.9-0.5-7.8-0.2-11.6,1c-1,0.3-0.8,1.8,0.3,1.6c4.2-0.6,8.1-0.7,12-0.2c1.1,3.7,2.5,7.3,4.3,10.7
			c-3.8,0.1-7.5,0.8-11.2,2.2c-0.6,0.2-0.3,1.2,0.4,1.1c3.9-1,7.8-1.5,11.7-1.6c1.6,2.7,3.3,5.3,5.3,7.8c-8.5,0.5-17.2,4.7-22,11.7
			c-0.5,0.7,0.5,1.6,1.1,1c6.3-6.5,13.5-10,22.1-11.3c1.3,1.5,2.7,2.9,4.1,4.3c10,9.3,23.4,15,38.2,15
			C112.4,134.9,126.7,128.4,136.9,117.9z M136.1,24.2c2.6,0.1,5.2,11.8,4.1,18.9c-4.1-5-9.1-9.3-14.7-12.7
			C129.2,27.2,133.6,24.1,136.1,24.2z M114.6,62.6c5.5-0.5,10.3,3.5,10.8,9c0.5,5.5-3.5,10.3-9,10.8c-5.5,0.5-10.3-3.5-10.8-9
			C105.1,68,109.1,63.1,114.6,62.6z M87.5,73.5c-0.5,5.5-5.4,9.5-10.8,9c-5.5-0.5-9.5-5.4-9-10.8c0.5-5.5,5.4-9.5,10.8-9
			C84,63.1,88,68,87.5,73.5z M58.4,24.2c2.4-0.1,6.5,2.8,10.1,5.8c-5.4,3.1-10.3,7.2-14.4,11.9C53.5,34.8,55.9,24.3,58.4,24.2z
			 M86.1,118.6c0-0.6,0.1-1.2,0.2-1.8c-2.1,0.7-4.3,1.1-6.7,1.1c-9.8,0-17.7-6.8-17.7-15.1c0-0.7,0.1-1.3,0.2-2c0.5,0,0.8-0.7,0.3-1
			c0,0-0.1,0-0.1-0.1c1.7-6.8,8.8-12,17.3-12c2.6,0,5,0.5,7.2,1.3c1.9-1.7,5-2.9,9.9-2.9c4.9,0,8,1.2,9.9,2.9
			c2.2-0.8,4.6-1.3,7.2-1.3c9.8,0,17.7,6.8,17.7,15.1c0,8.3-7.9,15.1-17.7,15.1c-2.4,0-4.6-0.4-6.7-1.1c0.1,0.6,0.2,1.3,0.2,1.8
			c0,5.8-4.7,10.5-10.5,10.5C90.8,129.2,86.1,124.5,86.1,118.6z"/>
		<path class="st3" d="M116.5,82.5c5.5-0.5,9.5-5.4,9-10.8c-0.5-5.5-5.4-9.5-10.8-9c-5.5,0.5-9.5,5.4-9,10.8
			C106.1,79,111,83,116.5,82.5z M113.8,66.9c6.5-1.9,10.7,6,7.3,10c-1-2.9-4.1-5.3-7.9-4.2c-1.4,0.4-2.3,1.2-2.9,2
			C109.1,71.8,109.8,68.1,113.8,66.9z"/>
		<path class="st4" d="M113.3,72.7c3.8-1.1,6.8,1.3,7.9,4.2c3.4-4-0.8-11.9-7.3-10c-4,1.2-4.7,4.8-3.5,7.8
			C110.9,73.9,111.9,73.1,113.3,72.7z"/>
		<path class="st3" d="M67.7,71.6c-0.5,5.5,3.5,10.3,9,10.8c5.5,0.5,10.3-3.5,10.8-9c0.5-5.5-3.5-10.3-9-10.8
			C73,62.1,68.2,66.2,67.7,71.6z M82.9,74.8c-0.6-0.9-1.5-1.6-2.9-2c-3.8-1.1-6.8,1.3-7.9,4.2c-3.4-4,0.8-11.9,7.3-10
			C83.4,68.1,84.2,71.8,82.9,74.8z"/>
		<path class="st4" d="M72.1,76.9c1-2.9,4.1-5.3,7.9-4.2c1.4,0.4,2.3,1.2,2.9,2c1.3-3,0.5-6.6-3.5-7.8C73,65,68.8,72.9,72.1,76.9z"
			/>
		<path class="st1" d="M107.2,118.6c0-0.6-0.1-1.2-0.2-1.8c-5.1-1.8-9-5.5-10.4-10.1c-1.4,4.6-5.3,8.3-10.4,10.1
			c-0.1,0.6-0.2,1.3-0.2,1.8c0,5.8,4.7,10.5,10.5,10.5C102.5,129.2,107.2,124.5,107.2,118.6z"/>
		<path class="st3" d="M96.6,106.7c1.4,4.6,5.3,8.3,10.4,10.1c2.1,0.7,4.3,1.1,6.7,1.1c9.8,0,17.7-6.8,17.7-15.1
			c0-8.3-7.9-15.1-17.7-15.1c-2.5,0-5,0.5-7.2,1.3c1.5,1.3,2.1,3,2.1,4.8c0,4-7.6,12.1-12,12.1c-4.4,0-12-8.2-12-12.1
			c0-1.7,0.6-3.4,2.1-4.8c-2.2-0.8-4.6-1.3-7.2-1.3c-8.5,0-15.6,5.1-17.3,12c0,0,0.1,0,0.1,0.1c0.5,0.3,0.2,1-0.3,1
			c-0.1,0.7-0.2,1.3-0.2,2c0,8.3,7.9,15.1,17.7,15.1c2.4,0,4.6-0.4,6.7-1.1C91.3,115,95.2,111.3,96.6,106.7z"/>
		<path class="st4" d="M84.6,93.8c0,4,7.6,12.1,12,12.1c4.4,0,12-8.2,12-12.1c0-1.7-0.6-3.4-2.1-4.8c-1.9-1.7-5-2.9-9.9-2.9
			c-4.9,0-8.1,1.2-9.9,2.9C85.3,90.4,84.6,92.1,84.6,93.8z"/>
	</g>
	<path class="st5" d="M164.9,146.2c-11.7-2.6-16.2,9.2-29.7-6.3c1.6-4.4,2.5-9.1,2.5-14c0-2.8-0.3-5.4-0.8-8
		c0.8-0.8,1.5-1.6,2.3-2.5c9.5,0.9,17.4,4.5,24.2,11.5c0.6,0.6,1.6-0.3,1.1-1c-5.2-7.6-15.2-11.9-24.4-11.7c2-2.4,3.8-5,5.3-7.8
		c4.7,0,9.4,0.5,14.1,1.7c0.6,0.2,1-0.8,0.4-1.1c-4.4-1.7-9-2.3-13.6-2.2c1.7-3.2,3.1-6.7,4.2-10.3c4.6-0.8,9.4-1,14.4-0.2
		c1.1,0.2,1.3-1.3,0.3-1.6c-4.7-1.5-9.4-1.5-14.1-0.6c1.1-4.3,1.7-8.9,1.7-13.5c0-9.4-2.3-18.2-6.4-26c5.7-11.9-1.1-45.4-10.6-40.3
		c-5.7,3.1-12.6,9.5-17.5,14.5c-6.3-2.7-13.3-4.2-20.5-4.3v143.3c4.7,0,9.2-0.8,13.3-2.3v18.2c0,3.6,2.9,6.5,6.5,6.5h6.4
		c3.6,0,6.5-2.9,6.5-6.5V151c5.7,6.4,14,13.7,22.3,13.9C170.8,165.4,176.9,148.9,164.9,146.2z"/>
</g>
<g>
	<path class="st6" d="M139.2,186.5c-3.7,0.1-4.7-0.5-5.2-1c-1.3-1.4-1.2-7.1-0.5-23.5c0.3-5.6,0.5-10.8,0.5-14.1c0-0.3,0-0.6,0-0.9
		c-0.2-0.1-0.7-0.1-1.6-0.1c-0.5,0-1.1,0-1.7,0.1c-0.5,0-1,0.1-1.4,0.1c-0.8,0-1.4,0-1.8-0.3c-0.9-0.5-2-1.9-1.9-3.2
		c0.2-2.7,6.6-12.6,8.5-13.1c0.8-0.4,4.3-0.8,6.7-0.8c4.7-0.1,5.8,1,6.1,1.3c0.4,0.4,0.7,0.9,0.7,1.5c0,1.9-0.1,7.2-0.1,13.3
		c-0.1,9.2-0.3,20.7-0.2,24l2.3,9.9c0,4.3-2.7,6-4.5,6.5C144.2,186.2,141.6,186.5,139.2,186.5z"/>
	<g>
		<g>
			<path class="st7" d="M140.7,183.9c-3.7,0.1-4.7-0.5-5.2-1c-1.3-1.4-1.2-7.1-0.5-23.5c0.3-5.6,0.5-10.8,0.5-14.1
				c0-0.3,0-0.6,0-0.9c-0.2-0.1-0.7-0.1-1.6-0.1c-0.5,0-1.1,0-1.7,0.1c-0.5,0-1,0.1-1.4,0.1c-0.8,0-1.4,0-1.8-0.3
				c-0.9-0.5-2-1.9-1.9-3.2c0.2-2.7,6.6-12.6,8.5-13.1c0.8-0.4,4.3-0.8,6.7-0.8c4.7-0.1,5.8,1,6.1,1.3c0.4,0.4,0.7,0.9,0.7,1.5
				c0,1.9-0.1,7.2-0.1,13.3c-0.1,9.2-0.3,20.7-0.2,24l2.3,9.9c0,4.3-2.7,6-4.5,6.5C145.7,183.6,143.1,183.9,140.7,183.9z"/>
			<path class="st8" d="M148.8,167.1c-0.1-3.2,0-14.7,0.2-24c0.1-6.1,0.2-11.3,0.1-13.3c0-0.6-0.2-1.1-0.7-1.5
				c-0.3-0.3-1.4-1.4-6.1-1.3c-2.4,0-5.9,0.4-6.7,0.8c-1.9,0.5-8.3,10.4-8.5,13.1c-0.1,1.3,1,2.7,1.9,3.2c0.4,0.3,1.1,0.3,1.8,0.3
				c0.4,0,0.9,0,1.4-0.1c0.2,0,0.4,0,0.6,0c2.4-2,5-3.8,7.6-5.5c5.1-3.2,9.9,4.8,4.8,8c-2.8,1.7-5.5,3.6-7.9,5.9
				c-0.7,0.7-1.4,1.1-2.2,1.2c-0.1,1.7-0.2,3.6-0.2,5.4c-0.1,1.3-0.1,2.5-0.2,3.7c1.4-1,2.8-1.9,4.1-2.8c2.1-1.4,5.1-0.5,6.4,1.6
				c1.3,2.2,0.5,5-1.6,6.4c-1.2,0.8-3,2-3.9,2.7c-0.2,0.2-1.2,1-1.6,1.5c-0.1,0.1-0.6,0.8-0.5,0.7c-0.2,0.3-0.3,0.6-0.4,0.9
				c-0.5,1.1-1.6,1.9-2.8,2.2c0,4,0.3,6,1,6.7c0.5,0.5,1.5,1.1,5.2,1c2.4,0,5-0.3,5.9-0.6c1.8-0.5,4.5-2.1,4.5-6.5L148.8,167.1z"/>
			<path class="st9" d="M143.2,180.8c-3.7,0.1-4.7-0.5-5.2-1c-1.3-1.4-1.2-7.1-0.5-23.5c0.3-5.6,0.5-10.8,0.5-14.1
				c0-0.3,0-0.6,0-0.9c-0.2-0.1-0.7-0.1-1.6-0.1c-0.5,0-1.1,0-1.7,0.1c-0.5,0-1,0.1-1.4,0.1c-0.8,0-1.4,0-1.8-0.3
				c-0.9-0.5-2-1.9-1.9-3.2c0.2-2.7,6.6-12.6,8.5-13.1c0.8-0.4,4.3-0.8,6.7-0.8c4.7-0.1,5.8,1,6.1,1.3c0.4,0.4,0.7,0.9,0.7,1.5
				c0,1.9-0.1,7.2-0.1,13.3c-0.1,9.2-0.3,20.7-0.2,24l0,0.4c0.5,12.6-0.5,15.5-2.3,15.9C148.2,180.5,145.6,180.8,143.2,180.8z"/>
			<path class="st9" d="M151.7,126.7c0-0.6-0.2-1.1-0.7-1.5c-0.3-0.3-1.4-1.4-6.1-1.3c-2.4,0-5.9,0.4-6.7,0.8
				c-0.7,0.2-1.9,1.6-3.3,3.5c0.9-1.1,1.6-1.8,2.1-1.9c0.8-0.4,4.3-0.8,6.7-0.8c4.7-0.1,5.8,1,6.1,1.3c0.4,0.4,0.7,0.9,0.7,1.5
				c0,1.9-0.1,7.2-0.1,13.3c-0.1,9.2-0.3,20.7-0.2,24l0,0.4c0.3,8.2,0,12.2-0.7,14.2c1.6-0.8,2.4-4,1.9-15.8l0-0.4
				c-0.1-3.2,0-14.7,0.2-24C151.6,133.9,151.7,128.7,151.7,126.7z"/>
			<path class="st10" d="M143.6,179.3c-3.3,0-3.9-0.4-4-0.5c-1.1-1.3-0.5-13-0.1-22.4c0.3-5.6,0.5-10.9,0.5-14.2c0-0.3,0-0.5,0-0.8
				c0.1-0.8-0.4-1.4-1.2-1.6c-0.5-0.1-1.1-0.2-2-0.2c-0.6,0-1.2,0-1.7,0.1c-0.5,0-1,0.1-1.4,0.1c-0.7,0-0.9-0.1-1-0.1
				c-0.6-0.4-1.2-1.2-1.2-1.8c0.2-2.2,5.9-10.9,7.4-11.8c0.1,0,0.2-0.1,0.2-0.1c0.5-0.2,3.5-0.6,6-0.6c2.6,0,4.4,0.3,5,0.9
				c0.2,0.2,0.2,0.3,0.2,0.4c0,1.9-0.1,7.1-0.1,13.1l0,0.1c-0.1,9.3-0.3,20.8-0.2,24.1l0,0.4c0.5,12.9-0.7,14.2-1.1,14.4
				C148.4,179,145.9,179.2,143.6,179.3z"/>
			<g class="st11">
				<path class="st0" d="M131.5,141c0.3,0.2,0.6,0.2,0.9,0.3c5.9-4.8,12-10,19.2-12.4c0-0.9,0-1.6,0-2.1c0-0.6-0.2-1.1-0.7-1.5
					c-0.3-0.3-1.4-1.4-6.1-1.3c-2.4,0-5.9,0.4-6.7,0.8c-1.9,0.5-8.3,10.4-8.5,13.1C129.5,139.2,130.7,140.5,131.5,141z"/>
				<path class="st0" d="M151.4,164c0-0.1,0-0.2,0-0.3c-4.9,2.7-9.5,6.1-14.3,9.2c0,4.2,0.3,6.2,1,7c0.5,0.5,1.5,1.1,5.2,1
					c2.4,0,5-0.3,5.9-0.6c1.8-0.5,2.8-3.3,2.3-15.9L151.4,164z"/>
				<path class="st0" d="M151.1,153.4c0.1,0,0.1-0.1,0.2-0.1c0-4.2,0.1-9,0.2-13.3c0-0.3,0-0.7,0-1c-4.9,2.4-9.3,6.2-13.6,9.7
					c-0.1,2.3-0.2,5-0.3,7.6c-0.1,1.8-0.2,3.5-0.2,5.1C141.8,158.5,146.2,155.5,151.1,153.4z"/>
			</g>
		</g>
		<g>
			<g>
				<path class="st0" d="M148,172.7C148,172.7,148,172.7,148,172.7c-0.3,0-0.5-0.3-0.5-0.5c0.3-4.2,0.4-19,0.5-30.6
					c0-0.3,0.2-0.5,0.5-0.5c0.3,0,0.5,0.2,0.5,0.5c-0.1,11.7-0.2,26.5-0.5,30.7C148.5,172.5,148.3,172.7,148,172.7z"/>
			</g>
			<g>
				<path class="st0" d="M148.5,136C148.5,136,148.5,136,148.5,136c-0.3,0-0.5-0.2-0.5-0.5c0-3.8,0-6.4,0-6.4c0-0.3,0.2-0.5,0.5-0.5
					c0.3,0,0.5,0.2,0.5,0.5c0,0,0,2.5,0,6.4C149,135.7,148.8,135.9,148.5,136z"/>
			</g>
		</g>
	</g>
</g>
</svg>
