<?xml version="1.0" encoding="utf-8"?>
<!-- Generator: Adobe Illustrator 21.0.2, SVG Export Plug-In . SVG Version: 6.00 Build 0)  -->
<svg version="1.1" id="Layer_1" xmlns="http://www.w3.org/2000/svg" xmlns:xlink="http://www.w3.org/1999/xlink" x="0px" y="0px"
	 viewBox="0 0 200 200" style="enable-background:new 0 0 200 200;" xml:space="preserve">
<style type="text/css">
	.st0{fill:#6C90A3;}
	.st1{fill:#86A0B0;}
	.st2{fill:#FDD6BD;}
	.st3{fill:#FFFFFF;}
	.st4{fill:#353A42;}
	.st5{fill:#B6C6D0;}
	.st6{fill:#3F4A50;}
	.st7{opacity:0.3;fill:#FFFFFF;}
	.st8{opacity:0.2;fill:#606161;}
	.st9{fill:#A12E25;}
	.st10{opacity:0.4;fill:#A12E25;}
	.st11{fill:#DC383D;}
	.st12{opacity:0.5;fill:#DC383D;}
	.st13{opacity:0.5;}
</style>
<g>
	<g>
		<path class="st0" d="M136.6,160.4c-0.1-0.2-0.1-0.3-0.1-0.5c-2.2,1.3-4.3,1.6-6.3,1c-2.7-0.9-5.2-3.6-7.2-7.8
			c4.4-5.9,7-13.3,7-21.3c0-2.8-0.3-5.6-1-8.2c-2.4,2.9-5.1,5.4-8.1,7.6c0,4.3-2.8,14.2-16.6,17.5c-0.1,1.2-0.1,2.4-0.2,3.6
			c-0.1,2.7-2.1,4.9-4.9,4.8c-2.7-0.1-4.6-2.3-4.6-5v0.6c0,2.6-2.4,4.7-5,4.7c-0.2,0-0.5,0-0.7,0c-2.6,0.1-4.8-1.9-4.9-4.5
			c-0.1-1.5-0.2-2.9-0.2-4.4c-12.7-3.3-15.6-12.5-15.8-16.8c-3.2-2.3-6.1-5-8.7-8.1c-0.6,2.6-0.9,5.4-0.9,8.2c0,9.1,3.1,17.3,9,23.6
			v25.2c1.9-3,5.4-5.1,9.2-5.1c3.9,0,7.3,2,9.2,5.1v-14.1c2.9,0.6,5.5,1,8.3,1c2.5,0,5.3-0.3,7.2-0.7V180c1.9-2.6,5.2-4.4,8.7-4.4
			c3.6,0,6.8,1.7,8.7,4.4v-22.3c0-0.4,0.8-0.9,1.3-1.3c2.3,4.3,5.3,7.2,8.7,8.3c1,0.3,2.1,0.5,3.1,0.5c2.1,0,4.1-0.6,6.2-1.8
			C137.6,162.8,137,161.8,136.6,160.4z"/>
		<path class="st1" d="M136.4,159.9c0,0.2,0.1,0.3,0.1,0.5c0.4,1.4,1.1,2.4,1.8,2.9c3.7,2.7,10.2-4.7,12.4-9.5
			C150.8,153.8,134.5,151.9,136.4,159.9z"/>
		<path class="st2" d="M76.7,175.6c-3.9,0-7.4,2-9.3,5.1c-1.1,1.7-1.8,3.7-1.8,5.9v1.8h22.4v-1.8c0-2.2-0.8-4.2-1.9-5.9
			C84.1,177.6,80.6,175.6,76.7,175.6z"/>
		<path class="st2" d="M110.2,175.6c-3.6,0-6.6,1.7-8.6,4.4c-1.4,1.8-2.1,4.1-2.1,6.6v1.8H121v-1.8c0-2.5-0.7-4.8-2.1-6.6
			C116.8,177.3,113.8,175.6,110.2,175.6z"/>
		<path class="st1" d="M68.1,131.7c0-0.2,0-0.3,0-0.4c0-13.3,16-19.2,26.4-19.2c10.5,0,26.4,5.9,26.4,19.2c0,0,0,0,0,0
			c2.9-2.2,5.7-4.8,8.1-7.6c6.4-7.8,10.3-17.8,10.3-28.6c0-16.5-8.9-31-22.2-38.8c2.3-3.3,7.3-11.1,9.3-17.7
			c2.6-8.6,2.8-32.2-4.2-34.3c-6.7-2-21,19.6-18.9,46.6c-2.3-0.5-4.7-0.8-7.1-0.9c1.1-1,2.4-1.8,3.8-2.7c0.7-0.4,0.4-1.4-0.5-1.2
			c-2.2,0.4-4.1,2.3-5.3,4.2c0,0,0,0,0,0c-0.4,0-0.8-0.2-1.2-0.2c0.7-2.1,1.5-4.2,2.7-6.2c0.4-0.6-0.4-1.4-1-0.9
			c-2,1.9-3.1,4.3-3.3,7c-0.2,0-0.3,0-0.5,0c-0.7-3.3-0.3-6.3,0.6-9.7c0.3-1.1-1.1-1.8-1.8-0.9c-2.3,3.1-2.6,7.3-1.2,10.8
			c-1.6,0.2-3.1,0.5-4.6,0.8C86.5,25.3,73.8,4.4,67.3,6c-7,1.7-8.1,25.3-5.9,34c1.6,6.2,5.7,13.7,8,17.4
			C57.2,65.5,49.2,79.3,49.2,95c0,10.9,3.8,20.8,10.3,28.6C62,126.7,64.9,129.4,68.1,131.7z M120.5,100.1c0.2,5.1-3.8,9.3-8.8,9.5
			c-5.1,0.2-9.3-3.8-9.5-8.8c-0.2-5.1,3.8-9.3,8.8-9.5C116.1,91.1,120.3,95.1,120.5,100.1z M117.3,19.6c3,1.1,1.9,11.7,1,17.1
			c-1,5.3-7.7,17.4-7.7,17.4l-2.5-1.6C108,43.8,114.3,18.4,117.3,19.6z M69.7,38.6c-0.7-5.4-1.2-16,1.8-17c3.1-1,8,24.6,7.5,33.4
			l-2.5,1.4C76.5,56.4,70.4,44,69.7,38.6z M76.3,91.3c5.1,0.2,9,4.4,8.8,9.5c-0.2,5.1-4.4,9-9.5,8.8c-5.1-0.2-9-4.4-8.8-9.5
			C67,95.1,71.2,91.1,76.3,91.3z"/>
		<path class="st3" d="M102.1,100.8c0.2,5.1,4.4,9,9.5,8.8c5.1-0.2,9-4.4,8.8-9.5c-0.2-5.1-4.4-9-9.5-8.8
			C105.9,91.5,102,95.7,102.1,100.8z M114.4,100.8c0,0.6-0.2,1.1-0.5,1.6c-0.5-1.4-1.8-2.7-3.7-2.7c-1,0-1.8,0.3-2.3,0.7
			c0.2-1.7,1.6-3,3.4-3C113,97.5,114.5,99,114.4,100.8z"/>
		<path class="st4" d="M107.9,100.4c0.5-0.5,1.3-0.8,2.3-0.7c1.9,0.1,3.2,1.3,3.7,2.7c0.3-0.5,0.5-1,0.5-1.6
			c0.1-1.8-1.4-3.3-3.2-3.4C109.5,97.3,108,98.7,107.9,100.4z"/>
		<path class="st3" d="M75.7,109.6c5.1,0.2,9.3-3.8,9.5-8.8c0.2-5.1-3.8-9.3-8.8-9.5c-5.1-0.2-9.3,3.8-9.5,8.8
			C66.6,105.2,70.6,109.5,75.7,109.6z M76.1,97.4c1.7-0.1,3.2,1.3,3.4,3c-0.5-0.5-1.3-0.8-2.3-0.7c-1.9,0.1-3.2,1.3-3.7,2.7
			c-0.3-0.5-0.5-1-0.5-1.6C72.8,99,74.3,97.5,76.1,97.4z"/>
		<path class="st4" d="M77.1,99.6c1,0,1.8,0.3,2.3,0.7c-0.2-1.7-1.6-3-3.4-3c-1.8,0.1-3.2,1.6-3.2,3.4c0,0.6,0.2,1.1,0.5,1.6
			C73.9,100.9,75.2,99.7,77.1,99.6z"/>
		<path class="st3" d="M94.6,149.8c-4.2,0-7.7-0.5-10.7-1.2c0.1,1.5,0.1,2.9,0.2,4.4c0.1,2.6,2.3,4.6,4.9,4.5c0.2,0,0.6,0,0.8,0
			c2.6-0.1,5-2.1,5-4.7V152c0,2.8,1.9,5,4.6,5c2.8,0.1,4.9-2.1,5-4.8c0.1-1.2,0.1-2.4,0.1-3.6C101.7,149.4,98.4,149.8,94.6,149.8z"
			/>
		<path class="st5" d="M94.5,112c-10.5,0-26.4,5.9-26.4,19.2c0,0.1,0,0.3,0,0.4c0.2,4.4,3.1,13.5,15.8,16.8c3,0.8,6.5,1.2,10.7,1.2
			c3.8,0,7.1-0.4,9.9-1.1c13.8-3.3,16.5-13.2,16.5-17.5c0,0,0,0,0,0C121,117.9,105,112,94.5,112z M109,133.5c0.7,4.2-7.1,7-7.1,7
			C100.5,131.7,108.3,129.4,109,133.5z M79.6,133.5c0.7-4.2,8.5-1.8,7.1,7C86.7,140.5,78.9,137.7,79.6,133.5z"/>
		<path class="st6" d="M101.8,140.5c0,0,7.8-2.9,7.1-7C108.3,129.4,100.5,131.7,101.8,140.5z"/>
		<path class="st6" d="M79.6,133.5c-0.7,4.2,7.1,7,7.1,7C88,131.7,80.2,129.4,79.6,133.5z"/>
		<path class="st2" d="M79,55c0.5-8.7-4.5-34.4-7.5-33.4c-3.1,1-2.5,11.6-1.8,17c0.7,5.4,6.8,17.8,6.8,17.8L79,55z"/>
		<path class="st2" d="M110.6,54.1c0,0,6.7-12.1,7.7-17.4c1-5.3,2-15.9-1-17.1c-3-1.1-9.3,24.2-9.2,32.9L110.6,54.1z"/>
	</g>
	<path class="st7" d="M136.4,159.9c-2.2,1.3-4.3,1.6-6.3,1c-2.7-0.9-5.2-3.6-7.2-7.8c4.4-5.9,7-13.3,7-21.3c0-2.8-0.3-5.6-1-8.2
		c6.4-7.8,10.3-17.8,10.3-28.6c0-16.5-8.9-31-22.2-38.8c2.3-3.3,7.3-11.1,9.3-17.7c2.6-8.6,2.8-32.2-4.2-34.3
		c-6.7-2-21,19.6-18.9,46.6c-2.3-0.5-4.7-0.8-7.1-0.9c1.1-1,2.4-1.8,3.8-2.7c0.7-0.4,0.4-1.4-0.5-1.2c-2.2,0.4-4,2.3-5.3,4.2v117.3
		c2.4,0,4.8-0.3,7.1-0.7V180c-0.9,1.6-2.2,3.8-2.2,5.7l0,2l22,0.2v-1.8c0-2.9-0.5-4.2-2.3-6.2v-22.3c0.4-0.4,0.9-0.9,1.3-1.3
		c2.3,4.3,5.3,7.2,8.7,8.3c1,0.3,2.1,0.5,3.2,0.5c2.1,0,4.2-0.6,6.2-1.8c3.7,2.7,10.2-4.7,12.4-9.5
		C150.8,153.8,134.5,151.9,136.4,159.9z"/>
</g>
<g>
	<path class="st8" d="M134.2,187.5c-1.3,0-2.2-0.1-2.9-0.3c-2-0.7-3.1-2-2.8-14.9c0.1-3.2,3.9-6.7,11.7-12.5c0.8-0.6,5-1.8,5.4-2.1
		l0.6-0.4c3.7-2.5,7.9-5.2,7.5-9.4c-0.3-3.2-1.3-4.9-5.6-4.9c-3.3,0-5.7,3.1-7.4,5.4c-1.2,1.6-2.1,2.7-3.2,2.7
		c-1.5-0.1-3-1.4-4.6-2.8c-0.2-0.2-0.4-0.3-0.5-0.5c-0.2-0.2-0.4-0.3-0.6-0.5c-1.3-1.1-3.1-2.6-2.9-4.9c0.5-5.9,9.3-12.4,17.7-13.1
		c0.9-0.1,1.7-0.1,2.6-0.1c8.6,0,14.4,4.2,17.9,12.8c1.7,4.4,1.4,10-1,14.1c-2.4,4.1-18.1,17.4-18.1,17.5c0.6,0,6.4-0.1,9.6-0.3
		c2.5-0.1,5.1-0.3,7.9-0.4c0,0,0,0,0,0c2.6,0,5.9,3.4,5.9,6.8c0,4.4-3.9,7.6-6.2,7.6c-1.4,0-27,0.1-28.5,0.2l-0.2,0
		C135.8,187.5,135,187.5,134.2,187.5z"/>
	<g>
		<g>
			<path class="st9" d="M135.7,184.9c-1.3,0-2.2-0.1-2.9-0.3c-2-0.7-3.1-2-2.8-14.9c0.1-3.2,3.9-6.7,11.7-12.5
				c0.8-0.6,5-1.8,5.4-2.1l0.6-0.4c3.7-2.5,7.9-5.2,7.5-9.4c-0.3-3.2-1.3-4.9-5.6-4.9c-3.3,0-5.7,3.1-7.4,5.4
				c-1.2,1.6-2.1,2.7-3.2,2.7c-1.5-0.1-3-1.4-4.6-2.8c-0.2-0.2-0.4-0.3-0.5-0.5c-0.2-0.2-0.4-0.3-0.6-0.5c-1.3-1.1-3.1-2.6-2.9-4.9
				c0.5-5.9,9.3-12.4,17.7-13.1c0.9-0.1,1.7-0.1,2.6-0.1c8.6,0,14.4,4.2,17.9,12.8c1.7,4.4,1.4,10-1,14.1
				c-2.4,4.1-18.1,17.4-18.1,17.5c0.6,0,6.4-0.1,9.6-0.3c2.5-0.1,5.1-0.3,7.9-0.4c0,0,0,0,0,0c2.6,0,5.9,3.4,5.9,6.8
				c0,4.4-3.9,7.6-6.2,7.6c-1.4,0-27,0.1-28.5,0.2l-0.2,0C137.4,184.8,136.5,184.9,135.7,184.9z"/>
			<path class="st10" d="M167.1,170.3C167.1,170.3,167.1,170.3,167.1,170.3c-2.9,0.1-5.5,0.2-7.9,0.4c-3.2,0.2-9,0.3-9.6,0.3
				c0.1-0.1,15.8-13.3,18.1-17.5c2.3-4.1,2.7-9.7,1-14.1c-3.4-8.6-9.3-12.8-17.9-12.8c-0.8,0-1.7,0-2.6,0.1
				c-8.4,0.7-17.1,7.2-17.7,13.1c-0.2,2,1.1,3.4,2.4,4.4c2.6-2.8,5.1-5.5,7.8-8.2c3.6-3.6,8.9,0.5,7.9,4.5c0.4-0.1,0.7-0.1,1.1-0.1
				c4.3,0,5.3,1.7,5.6,4.9c0.4,4.2-3.8,7-7.5,9.4l-0.6,0.4c-0.4,0.3-4.7,1.5-5.4,2.1c-7.9,5.8-11.7,9.3-11.7,12.5c0,0.5,0,1,0,1.4
				c1-0.6,2.1-1.1,3.2-1.7c2.3-1.2,5.1-0.6,6.5,1.7c1.2,2.1,0.6,5.3-1.7,6.5c-1.3,0.7-2.7,1.3-4,2.1c-0.6,0.4-1.3,0.7-1.9,1.2
				c0.3-0.2-1.2,1.4-0.6,0.6c-0.2,0.3-0.5,0.6-0.7,0.8c0.5,1.6,1.2,2,2.1,2.3c0.7,0.2,1.6,0.3,2.9,0.3c0.8,0,1.6,0,2.2-0.1l0.2,0
				c0.5,0,3.6,0,7.6-0.1c3.6-3.1,7-6.2,10.7-9.2c2-1.6,4.7-2,6.7,0c1.7,1.7,2,5.1,0,6.7c-1,0.8-2,1.6-2.9,2.4c3.5,0,6.1,0,6.5,0
				c2.4,0,6.2-3.2,6.2-7.6C172.9,173.7,169.6,170.3,167.1,170.3z"/>
			<path class="st11" d="M138.3,181.7c-1.3,0-2.2-0.1-2.9-0.3c-2-0.7-3.1-2-2.8-14.9c0.1-3.2,6.2-7.7,15.3-13.4
				c0.8-0.5,1.5-0.9,1.9-1.2l0.6-0.4c3.7-2.5,7.9-5.2,7.5-9.4c-0.3-3.2-1.3-4.9-5.6-4.9c-3.3,0-5.7,3.1-7.4,5.4
				c-1.2,1.6-2.1,2.7-3.2,2.7c-1.5-0.1-3-1.4-4.6-2.8c-0.2-0.2-0.4-0.3-0.5-0.5c-0.2-0.2-0.4-0.3-0.6-0.5c-1.3-1.1-3.1-2.6-2.9-4.9
				c0.5-5.9,9.3-12.4,17.7-13.1c0.9-0.1,1.7-0.1,2.6-0.1c8.6,0,14.4,4.2,17.9,12.8c1.7,4.4,1.4,10-1,14.1c-2.4,4.1-6.1,7-9.7,9.8
				c-0.5,0.4-0.9,0.7-1.4,1.1c-1.4,1.1-5.7,4.2-7.7,5.7l-1.1,0.8c-0.1,0.1-0.2,0.1-0.3,0.2c0.6,0,1.2,0,1.8,0c3.7,0,6.7-0.2,9.9-0.4
				c2.5-0.1,5.1-0.3,7.9-0.4c0,0,0,0,0,0c2.6,0,3.5,3.9,3.5,7.2c0,4.4-1.5,7.2-3.8,7.2c-1.4,0-27,0.1-28.5,0.2l-0.2,0
				C140,181.7,139.2,181.7,138.3,181.7z"/>
			<g>
				<path class="st11" d="M149,125.3c0.9-0.1,1.7-0.1,2.6-0.1c8.6,0,14.4,4.2,17.9,12.8c1.7,4.4,1.4,10-1,14.1
					c-0.8,1.4-1.8,2.7-2.9,3.9c1.8-1.6,3.4-3.4,4.6-5.6c2.3-4.1,2.7-9.7,1-14.1c-3.4-8.6-9.3-12.8-17.9-12.8c-0.8,0-1.7,0-2.6,0.1
					c-5.7,0.5-11.6,3.6-14.9,7.5C139.3,128,144.2,125.6,149,125.3z"/>
				<path class="st11" d="M154.6,148.6c-1.3,1.1-2.7,2-4.1,3l-0.6,0.4c-0.4,0.3-1.1,0.7-1.9,1.2c-6.4,4-11.2,7.4-13.6,10.1
					c2.7-2.4,6.8-5.2,11.9-8.4c0.8-0.5,1.5-0.9,1.9-1.2l0.6-0.4C150.9,151.9,153.1,150.4,154.6,148.6z"/>
				<path class="st11" d="M169.7,167.1C169.7,167.1,169.7,167.1,169.7,167.1c-2.9,0.1-5.5,0.2-7.9,0.4c-3.2,0.2-6.2,0.4-9.9,0.4
					c-0.4,0-0.8,0-1.2,0c-0.4,0.3-0.7,0.5-1,0.7l-1.1,0.8c-0.1,0.1-0.2,0.1-0.3,0.2c0.6,0,1.2,0,1.8,0c3.7,0,6.7-0.2,9.9-0.4
					c2.5-0.2,5.1-0.3,7.9-0.4c0,0,0,0,0,0c2.6,0,3.5,3.9,3.5,7.2c0,2.2-0.4,4-1,5.2c1.7-0.7,2.7-3.3,2.7-6.9
					C173.2,171,172.3,167.1,169.7,167.1z"/>
				<path class="st11" d="M146.5,140.6c-1.3,1.1-2.4,2.5-3.3,3.7c-0.2,0.3-0.4,0.5-0.6,0.7c0.7-0.4,1.4-1.3,2.3-2.5
					C145.4,142,145.9,141.3,146.5,140.6z"/>
			</g>
			<path class="st12" d="M138.3,180.2c-1.1,0-1.9-0.1-2.4-0.2c-0.9-0.3-2-1-1.7-13.4c0.1-3,10.6-9.6,14.6-12.1l0.1-0.1
				c0.8-0.5,1.4-0.9,1.8-1.1l0.6-0.4c3.9-2.6,8.7-5.8,8.2-10.9c-0.3-3.3-1.4-6.3-7.2-6.3c-4.1,0-6.8,3.6-8.6,6
				c-0.7,1-1.6,2.1-1.9,2.1c-1.1-0.1-2.6-1.5-3.6-2.4l0,0c-0.2-0.2-0.3-0.3-0.5-0.4c-0.2-0.2-0.4-0.4-0.6-0.5
				c-1.4-1.2-2.5-2.2-2.4-3.5c0.4-4.7,8-11,16.2-11.7c0.8-0.1,1.7-0.1,2.4-0.1c8,0,13.2,3.8,16.4,11.8c1.6,4,1.2,9.1-0.9,12.8
				c-2.2,3.9-5.8,6.6-9.3,9.3l-0.3,0.2c-0.4,0.3-0.7,0.6-1.1,0.9c-1.3,1-5.5,4.1-7.5,5.5l-1.3,0.9c-0.1,0.1-0.3,0.2-0.3,0.3
				c-0.5,0.4-0.7,1.1-0.5,1.7c0.2,0.6,0.8,1,1.5,1.1c0.6,0,1.2,0,1.8,0c3.7,0,6.7-0.2,10-0.4c2.5-0.2,5-0.3,7.9-0.4
				c1,0,1.9,2.5,1.9,5.6c0,3.3-0.9,5.6-2.3,5.6c-1.4,0-27.1,0.1-28.6,0.2l-0.2,0C139.9,180.1,139.1,180.2,138.3,180.2z"/>
			<g class="st13">
				<path class="st3" d="M136,141.5c0.2,0.2,0.4,0.3,0.6,0.5c0.2,0.1,0.3,0.3,0.5,0.5c1.6,1.4,3.1,2.7,4.6,2.8c1.2,0,2-1.1,3.2-2.7
					c0,0,0,0,0-0.1c-0.9-0.9-1.4-2-1.3-3.2c0.4-4.7,0.6-9.4,0.2-14c-5.7,2.5-10.4,7.1-10.8,11.4C132.9,138.9,134.7,140.4,136,141.5z
					"/>
				<path class="st3" d="M151.1,151.1c6-0.1,12,0.5,18,0.9c0.4-0.5,0.8-1.1,1.1-1.7c2.3-4.1,2.7-9.7,1-14.1
					c-3.4-8.6-9.3-12.8-17.9-12.8c0,0-0.1,0-0.2,0c0.6,4.6,0.5,9.2,0.1,13.8c3.5,0.3,4.4,1.9,4.6,4.8
					C158.3,146,154.7,148.7,151.1,151.1z"/>
				<path class="st3" d="M151.8,167.9c-0.6,0-1.2,0-1.8,0c0.1-0.1,0.2-0.1,0.3-0.2l1.1-0.8c2.1-1.5,6.3-4.6,7.7-5.7
					c0.2-0.2,0.4-0.3,0.6-0.5c-8-0.5-15.9-0.4-23.4,2.5c-0.7,0.3-1.4,0.3-2.1,0.1c-1,1.2-1.6,2.2-1.6,3.2
					c-0.3,12.9,0.8,14.2,2.8,14.9c0.7,0.2,1.6,0.3,2.9,0.3c0.8,0,1.6,0,2.2-0.1l0.2,0c0.2,0,1.1,0,2.3,0c5.5-4.4,10.8-9,15.8-14
					C156.7,167.8,154.4,167.9,151.8,167.9z"/>
				<path class="st3" d="M171,167.5c-0.1,0.8-0.5,1.6-1.2,2.3c-3.7,4.2-7.7,8-11.9,11.7c5.7,0,10.8,0,11.4,0c2.4,0,3.8-2.7,3.8-7.2
					C173.2,171.6,172.6,168.6,171,167.5z"/>
			</g>
		</g>
		<g>
			<g>
				<path class="st3" d="M163.1,153.1c-0.1,0-0.3,0-0.4-0.1c-0.2-0.2-0.2-0.5,0-0.7c2.8-2.9,4.2-6.6,4-10.5
					c-0.2-3.9-1.9-7.6-4.8-10.1c-0.2-0.2-0.2-0.5-0.1-0.7c0.2-0.2,0.5-0.2,0.7-0.1c3.1,2.7,4.9,6.6,5.1,10.8
					c0.2,4.2-1.3,8.2-4.3,11.3C163.4,153.1,163.3,153.1,163.1,153.1z"/>
			</g>
			<g>
				<path class="st3" d="M158.3,129.4c-0.1,0-0.1,0-0.2,0c-2-0.7-4.3-0.8-6.5-0.4c-0.3,0.1-0.6-0.1-0.6-0.4
					c-0.1-0.3,0.1-0.6,0.4-0.6c2.5-0.5,4.9-0.3,7.1,0.4c0.3,0.1,0.4,0.4,0.3,0.7C158.7,129.3,158.5,129.4,158.3,129.4z"/>
			</g>
			<g>
				<path class="st3" d="M168.3,177.1c0,0-0.1,0-0.1,0c-0.3-0.1-0.5-0.3-0.4-0.6c0,0,0.1-0.7,0.1-2.3c0-0.3,0.2-0.5,0.5-0.5
					c0.3,0,0.5,0.2,0.5,0.5c0,1.7-0.1,2.5-0.1,2.5C168.8,177,168.6,177.1,168.3,177.1z"/>
			</g>
			<g>
				<path class="st3" d="M160.7,172c-0.3,0-0.5-0.2-0.5-0.5c0-0.3,0.2-0.5,0.5-0.5c0,0,4.7-0.2,6.2-0.3c0.3,0,0.5,0.2,0.6,0.5
					c0,0.3-0.2,0.5-0.5,0.6C165.5,171.7,160.8,172,160.7,172C160.7,172,160.7,172,160.7,172z"/>
			</g>
			<g>
				<path class="st3" d="M136.3,171.3c-0.3,0-0.5-0.2-0.5-0.5c0-0.1-0.3-2.5,0-4.8c0-0.3,0.3-0.5,0.6-0.5c0.3,0,0.5,0.3,0.5,0.6
					c-0.3,2.2,0,4.6,0,4.6C136.9,171,136.7,171.2,136.3,171.3C136.4,171.3,136.3,171.3,136.3,171.3z"/>
			</g>
			<g>
				<path class="st3" d="M138.6,164.3c-0.1,0-0.3-0.1-0.4-0.2c-0.2-0.2-0.2-0.6,0.1-0.7c0.4-0.4,1.2-0.9,1.2-1
					c0.2-0.2,0.6-0.1,0.7,0.1c0.2,0.2,0.1,0.6-0.1,0.7c0,0-0.8,0.6-1.2,0.9C138.8,164.3,138.7,164.3,138.6,164.3z"/>
			</g>
		</g>
	</g>
</g>
</svg>
