<?xml version="1.0" encoding="utf-8"?>
<!-- Generator: Adobe Illustrator 21.0.2, SVG Export Plug-In . SVG Version: 6.00 Build 0)  -->
<svg version="1.1" id="Layer_1" xmlns="http://www.w3.org/2000/svg" xmlns:xlink="http://www.w3.org/1999/xlink" x="0px" y="0px"
	 viewBox="0 0 200 200" style="enable-background:new 0 0 200 200;" xml:space="preserve">
<style type="text/css">
	.st0{fill:#FDBA12;}
	.st1{fill:#AA6828;}
	.st2{fill:#C6772A;}
	.st3{fill:#FFFFFF;}
	.st4{fill:#6CB38A;}
	.st5{fill:#353A42;}
	.st6{opacity:0.3;fill:#FFFFFF;}
	.st7{opacity:0.2;fill:#606161;}
	.st8{fill:#4862AD;}
	.st9{opacity:0.3;fill:#4862AD;}
	.st10{fill:#4D87C7;}
	.st11{opacity:0.5;fill:#4D87C7;}
	.st12{opacity:0.3;}
</style>
<g>
	<g>
		<path class="st0" d="M95.2,170.9v12.5c0,0-15.2-1.5-15.4,3.5c-0.2,5,20,0.8,20,0.8s20.2,4.2,20-0.8c-0.2-5-15.3-3.5-15.3-3.5V171
			c-1.2,0.2-2.9,0.3-4.4,0.3C98.4,171.3,96.4,171.2,95.2,170.9z"/>
		<path class="st1" d="M67.2,122.3c-3.1,2.8-7,7.1-10.2,13.4c-6.8,13.2-7.9,27.7,4.5,21c0,0,1,10.8,9.8,5.3c0.9-0.6,1.6-1.5,2.2-2.7
			c-5.6-6.3-9-14.5-9-23.6C64.5,131,65.5,126.4,67.2,122.3z"/>
		<path class="st1" d="M132.8,122.3c1.7,4.2,2.7,8.7,2.7,13.5c0,9.1-3.4,17.3-9,23.6c0.6,1.2,1.3,2.1,2.2,2.7
			c8.7,5.4,9.8-5.3,9.8-5.3c12.5,6.7,11.3-7.8,4.5-21C139.8,129.3,135.9,125,132.8,122.3z"/>
		<path class="st2" d="M132.8,122.3c-0.6-1.5-1.3-2.9-2.1-4.3c0,0,0,0,0,0c0.9,1.6,1.8,3.3,2.5,5.1c-1.1,0.7-2.3,1.4-3.5,2
			c-1.3,0.6-2.6,1.2-4.1,1.8c-0.3,0.7-0.6,1.4-1,2.1c-2.4,4.3-8.4,9.8-24.2,9.8c-15.8,0-22.1-5.5-24.5-9.8c-0.6-1.1-1.1-2.2-1.5-3.3
			c-2.3-0.9-4.7-2-7.2-3c0.7-1.7,1.4-3.2,2.3-4.8c0,0,0,0,0,0c-0.8,1.4-1.5,2.8-2.1,4.3c-1.7,4.2-2.7,8.7-2.7,13.5
			c0,9.1,3.4,17.3,9,23.6c5.5,6.2,13.1,10.4,21.7,11.6c1.6,0.2,3.2,0.3,4.8,0.3c1.5,0,2.9-0.1,4.4-0.3c8.8-1.1,16.5-5.4,22.1-11.6
			c5.6-6.3,9-14.5,9-23.6C135.5,131,134.5,126.4,132.8,122.3z"/>
		<path class="st3" d="M69.4,118c-0.9,1.5-1.7,3.1-2.3,4.8c2.5,1,4.9,2,7.2,3c-0.7-1.9-1.1-3.7-1.2-5.3
			C71.8,119.6,70.6,118.8,69.4,118z"/>
		<path class="st3" d="M127.2,120.3c-0.1,2-0.6,4.3-1.6,6.6c1.4-0.6,2.8-1.2,4.1-1.8c1.2-0.7,2.4-1.3,3.5-2
			c-0.7-1.8-1.5-3.5-2.5-5.1C129.5,118.8,128.4,119.5,127.2,120.3z"/>
		<path class="st4" d="M73.1,120.4c-0.6-8.1,4.4-13.5,2.1-16.2c-4.7-5.4-13.3-6.8-12-12c1.2-5.3,21.9-1.2,26.4-2.8
			c4.4-1.6,6-10.7,10.4-10.9c0,0,0.1,0,0.1,0c0,0,0.1,0,0.1,0c4.4,0.2,6,9.3,10.4,10.9c4.5,1.6,25.2-2.4,26.4,2.8
			c1.2,5.3-7.4,6.6-12,12c-2.3,2.7,2.8,8.1,2.3,16.1c1.2-0.7,2.4-1.5,3.5-2.3c0,0,0,0,0,0c13.4-9.6,22.1-25.2,22.1-43
			c0-28-21.9-51-49.5-52.7c1.1-2.6,2.8-4.8,4.2-7.2c0.5-0.8-0.1-2.2-1.2-1.9c-1.7,0.6-3.2,1.5-4.4,2.6c1.1-2.6,2.6-5,4-7.4
			c0.2-0.3,0-0.8-0.5-0.7c-6.2,1.9-9.1,8.2-10,14.7c-27,2.3-48.2,25-48.2,52.6c0,17.7,8.7,33.4,22.1,43c0,0,0,0,0,0
			C70.6,118.8,71.8,119.6,73.1,120.4z M119.5,71.3c3.9,0,7,3.1,7,7c0,3.9-3.1,7-7,7c-3.9,0-7-3.1-7-7
			C112.5,74.4,115.6,71.3,119.5,71.3z M80.2,71.3c3.9,0,7,3.1,7,7c0,3.9-3.1,7-7,7c-3.9,0-7-3.1-7-7C73.3,74.4,76.4,71.3,80.2,71.3z
			"/>
		<path class="st3" d="M80.2,85.2c3.9,0,7-3.1,7-7c0-3.9-3.1-7-7-7c-3.9,0-7,3.1-7,7C73.3,82.1,76.4,85.2,80.2,85.2z M80.2,75.1
			c1.7,0,3,1.3,3.1,2.9c-0.5-0.5-1.2-0.8-2.2-0.8c-1.8,0-3.1,1.1-3.6,2.5c-0.3-0.5-0.4-1-0.4-1.5C77.1,76.5,78.5,75.1,80.2,75.1z"/>
		<path class="st5" d="M81.1,77.3c1,0,1.7,0.3,2.2,0.8c-0.1-1.6-1.4-2.9-3.1-2.9c-1.7,0-3.1,1.4-3.1,3.1c0,0.6,0.2,1.1,0.4,1.5
			C78.1,78.4,79.3,77.3,81.1,77.3z"/>
		<path class="st3" d="M119.5,85.2c3.9,0,7-3.1,7-7c0-3.9-3.1-7-7-7c-3.9,0-7,3.1-7,7C112.5,82.1,115.6,85.2,119.5,85.2z
			 M119.5,75.1c1.7,0,3.1,1.4,3.1,3.1c0,0.6-0.2,1.1-0.4,1.5c-0.6-1.4-1.8-2.5-3.6-2.5c-1,0-1.7,0.3-2.2,0.8
			C116.5,76.4,117.8,75.1,119.5,75.1z"/>
		<path class="st5" d="M122.2,79.8c0.3-0.5,0.4-1,0.4-1.5c0-1.7-1.4-3.1-3.1-3.1c-1.7,0-3,1.3-3.1,2.9c0.5-0.5,1.2-0.8,2.2-0.8
			C120.4,77.3,121.7,78.4,122.2,79.8z"/>
		<path class="st0" d="M127.2,120.3c0.5-8-4.6-13.4-2.3-16.1c4.7-5.4,13.2-6.8,12-12c-1.2-5.3-21.9-1.2-26.4-2.8
			c-4.4-1.6-6-10.7-10.4-10.9c0,0-0.1,0-0.1,0c0,0-0.1,0-0.1,0c-4.3,0.2-6,9.3-10.4,10.9c-4.5,1.6-25.2-2.4-26.4,2.8
			c-1.2,5.3,7.4,6.6,12,12c2.3,2.7-2.7,8.1-2.1,16.2c0.1,1.7,0.5,3.4,1.2,5.3c0.4,1.1,0.9,2.1,1.5,3.3c2.4,4.3,8.7,9.8,24.5,9.8
			c15.8,0,21.8-5.5,24.2-9.8c0.4-0.7,0.7-1.4,1-2.1C126.6,124.5,127.1,122.3,127.2,120.3z M83.8,108.2c3.8,4.4,0.8,6.9-0.7,5.7
			C80.8,112.1,83.8,108.2,83.8,108.2z M116,108.2c0,0,3,3.9,0.7,5.7C115.2,115.1,112.2,112.6,116,108.2z"/>
		<path class="st2" d="M83.1,113.9c1.5,1.2,4.5-1.4,0.7-5.7C83.8,108.2,80.8,112.1,83.1,113.9z"/>
		<path class="st2" d="M116.7,113.9c2.3-1.8-0.7-5.7-0.7-5.7C112.2,112.6,115.2,115.1,116.7,113.9z"/>
	</g>
	<path class="st6" d="M132.8,122.3c-0.6-1.5-1.3-2.9-2.1-4.3c13.4-9.6,22.1-25.2,22.1-43c0-28-21.9-51-49.5-52.7
		c1.1-2.6,2.8-4.8,4.2-7.2c0.5-0.8-0.1-2.2-1.2-1.9c-1.7,0.6-3.2,1.5-4.4,2.6c1.1-2.6,2.6-5,4-7.4c0.2-0.3,0-0.8-0.5-0.7
		c-2.3,0.7-4.2,2-5.6,3.7v176.2c0,0,20.2,4.2,20-0.8c-0.2-5-15.4-3.5-15.4-3.5V171c8.8-1.1,16.5-5.4,22.1-11.6
		c0.6,1.2,1.3,2.1,2.2,2.7c8.7,5.4,9.8-5.3,9.8-5.3c12.5,6.7,11.3-7.8,4.5-21C139.8,129.3,135.9,125,132.8,122.3z"/>
</g>
<g>
	<path class="st7" d="M147.7,188.2c-4.3,0-8-0.9-11-2.8l-0.1-0.1c-2.1-1.3-7.1-4.3-7.9-12.2c0-0.4,0-1,0.4-1.7
		c1.1-1.8,2.1-3.1,8.5-4.6c0.3-0.1,2.9,2.4,3.1,2.5c1.4,0.2,2.2,1.3,2.9,2.5c1,1.5,2.1,3.1,5,3.1c0.6,0,1.3-0.1,2-0.2
		c1.2-0.2,1.9-1,2.3-1.6c0.8-1.2,1.1-2.9,0.8-4.6c-0.4-2.3-1.9-3.2-4.9-3.2c-1.3,0-2.7,0.2-4.1,0.3c-0.6,0.1-1.1,0.1-1.7,0.2
		c-0.2,0-0.4,0-0.6,0c-2.5,0-3.8-2.5-4.6-9.2c-0.3-2.7,2.4-4.8,4.5-6c4-2.3,8.5,0,9.9-2c0.8-1.2,0.7-2.6,0.5-4.4
		c-0.4-3.2-6.4-5.7-7.5,1.1c-0.5,3.4-4.7,4.1-5.5,4.1c-2.7,0-7.5-0.9-9.1-2.6c-0.6-0.6-0.7-1.2-0.6-1.7c0.4-4.3,3.4-12.2,12.3-14.9
		c2.1-0.6,4.6-1,7.2-1c9.9,0,16.5,4.6,17.6,12.3c0.8,5.2-1.3,10.2-6.6,13.5c3.2,1.4,7.5,5.1,8.4,11.3c0.7,5.4,2.5,5.9-0.1,10.1
		c-4.5,7.2-9.3,10.1-16.7,11.1C150.6,188.1,149.1,188.2,147.7,188.2z"/>
	<g>
		<g>
			<path class="st8" d="M149.2,185.7c-4.3,0-8-0.9-11-2.8l-0.1-0.1c-2.1-1.3-7.1-4.3-7.9-12.2c0-0.4,0-1,0.4-1.7
				c1.1-1.8,2.1-3.1,8.5-4.6c0.3-0.1,2.9,2.4,3.1,2.5c1.4,0.2,2.2,1.3,2.9,2.5c1,1.5,2.1,3.1,5,3.1c0.6,0,1.3-0.1,2-0.2
				c1.2-0.2,1.9-1,2.3-1.6c0.8-1.2,1.1-2.9,0.8-4.6c-0.4-2.3-1.9-3.2-4.9-3.2c-1.3,0-2.7,0.2-4.1,0.3c-0.6,0.1-1.1,0.1-1.7,0.2
				c-0.2,0-0.4,0-0.6,0c-2.5,0-3.8-2.5-4.6-9.2c-0.3-2.7,2.4-4.8,4.5-6c4-2.3,8.5,0,9.9-2c0.8-1.2,0.7-2.6,0.5-4.4
				c-0.4-3.2-6.4-5.7-7.5,1.1c-0.5,3.4-4.7,4.1-5.5,4.1c-2.7,0-7.5-0.9-9.1-2.6c-0.6-0.6-0.7-1.2-0.6-1.7
				c0.4-4.3,3.4-12.2,12.3-14.9c2.1-0.6,4.6-1,7.2-1c9.9,0,16.5,4.6,17.6,12.3c0.8,5.2-1.3,10.2-6.6,13.5c3.2,1.4,7.5,5.1,8.4,11.3
				c0.7,5.4,2.5,5.9-0.1,10.1c-4.5,7.2-9.3,10.1-16.7,11.1C152.1,185.6,150.6,185.7,149.2,185.7z"/>
			<path class="st9" d="M170.4,164.2c-0.8-6.2-5.2-9.9-8.4-11.3c5.3-3.3,7.4-8.3,6.6-13.5c-1.2-7.7-7.8-12.3-17.6-12.3
				c-2.6,0-5.1,0.3-7.2,1c-5.7,1.7-8.9,5.5-10.6,9.2c0.2-0.1,0.4-0.2,0.6-0.3c2.3-1,4.8-0.7,6.2,1.6c1.1,1.9,0.6,5.2-1.6,6.2
				c-1,0.4-1.9,0.9-2.8,1.5c1.9,0.6,4.2,0.9,5.7,0.9c0.8,0,4.9-0.7,5.5-4.1c1.1-6.8,7.1-4.3,7.5-1.1c0.2,1.8,0.3,3.2-0.5,4.4
				c-1.3,1.9-5.8-0.4-9.9,2c-2.1,1.2-4.8,3.3-4.5,6c0.3,2.1,0.6,3.8,0.9,5.2c2.1-1.6,4.3-3.1,6.5-4.6c2.1-1.3,5-0.4,6.2,1.6
				c1.3,2.2,0.4,4.9-1.6,6.2c-0.1,0.1-0.3,0.2-0.4,0.3c2.5,0.2,3.8,1.1,4.2,3.2c0.3,1.6,0,3.3-0.8,4.6c-0.4,0.6-1.1,1.3-2.3,1.6
				c-0.7,0.1-1.4,0.2-2,0.2c-2.9,0-4-1.6-5-3.1c-0.3-0.5-0.7-1-1.1-1.4c-0.6,0.4-1.2,0.9-1.8,1.3c-2,1.4-5.1,0.3-6.2-1.6
				c-0.4-0.7-0.6-1.4-0.6-2.1c-3.2,1.1-3.9,2.2-4.8,3.5c-0.4,0.7-0.5,1.3-0.4,1.7c0.2,2.5,0.9,4.4,1.8,6c1.5-1.4,3.1-2.7,5-3.6
				c2.2-1.1,4.9-0.6,6.2,1.6c1.2,2,0.6,5.2-1.6,6.2c-0.6,0.3-1.7,0.9-2,1.1c0.2-0.2-0.6,0.5-0.7,0.6c-0.2,0.1-0.3,0.3-0.5,0.4
				c1.9,1.1,4.1,1.9,6.4,2.3c0.2-0.5,0.5-1,0.9-1.5c2-2.4,4.2-4.6,6.5-6.7c1.9-1.7,4.5-1.7,6.4,0c1.8,1.6,1.7,4.8,0,6.4
				c-0.4,0.3-0.7,0.7-1.1,1c5.2-1.5,9.1-4.4,12.7-10.3C172.9,170.1,171.1,169.5,170.4,164.2z"/>
			<path class="st10" d="M151.7,182.6c-4.3,0-8-0.9-11-2.8l-0.1-0.1c-2.1-1.3-7.1-4.3-7.9-12.2c0-0.4,0.1-0.8,0.4-1.1
				c1.3-1.5,8.6-2.7,10.9-2.7c0.3,0,0.5,0,0.8,0c1.4,0.2,2.2,1.3,2.9,2.5c1,1.5,2.1,3.1,5,3.1c0.6,0,1.3-0.1,2-0.2
				c1.2-0.2,1.9-1,2.3-1.6c0.8-1.2,1.1-2.9,0.8-4.6c-0.4-2.3-1.9-3.2-4.9-3.2c-1.3,0-2.7,0.2-4.1,0.3c-0.6,0.1-1.1,0.1-1.7,0.2
				c-0.2,0-0.4,0-0.6,0c-2.5,0-3.8-2.5-4.6-9.2c-0.3-2.7,3.9-3.9,5.4-4.1c4.6-0.6,7.6-1.9,9-3.9c0.8-1.2,1-2.6,0.5-4.4
				c-0.5-2-2.2-2.7-3.6-2.7c-2.5,0-5.4,2-6.2,6.5c-0.3,1.5-2.3,1.5-3.1,1.5c-2.7,0-7.5-0.9-9.1-2.6c-0.6-0.6-0.7-1.2-0.6-1.7
				c0.4-4.3,3.4-12.2,12.3-14.9c2.1-0.6,4.6-1,7.2-1c9.9,0,16.5,4.6,17.6,12.3c0.8,5.2-0.4,11.6-5.7,14.9c3.2,1.4,6.6,3.8,7.5,9.9
				c0.7,5.4-0.4,10.3-3.3,14.3c-2.8,3.8-7.2,6.1-13.4,6.9C154.6,182.5,153.1,182.6,151.7,182.6z"/>
			<g>
				<path class="st10" d="M144.8,126.5c2.1-0.6,4.6-1,7.2-1c9.9,0,16.5,4.6,17.6,12.3c0.6,4.1,0,8.9-2.9,12.4
					c4.2-3.5,5.1-9.1,4.4-13.9c-1.2-7.7-7.8-12.3-17.6-12.3c-2.6,0-5.1,0.3-7.2,1c-3.5,1-6.1,2.9-8,5
					C140,128.5,142.1,127.3,144.8,126.5z"/>
				<path class="st10" d="M142.1,149.9c1.2-0.8,2.8-1.1,3.6-1.3c4.6-0.6,7.6-1.9,9-3.9c0,0,0,0,0-0.1c-1.6,1.1-4.1,1.9-7.5,2.4
					C146,147.3,142.9,148.1,142.1,149.9z"/>
				<path class="st10" d="M172.9,161.1c-0.8-6-4-8.4-7.2-9.8c-0.5,0.5-1.2,1-1.8,1.4c3.2,1.4,6.6,3.8,7.5,9.9
					c0.7,5.4-0.4,10.3-3.3,14.3c-0.2,0.3-0.5,0.6-0.8,1c0.9-0.7,1.6-1.6,2.3-2.5C172.5,171.4,173.6,166.5,172.9,161.1z"/>
				<path class="st10" d="M142.4,165.3c0.3,0,0.5,0,0.8,0c1.4,0.2,2.2,1.3,2.9,2.5c1,1.5,2.1,3.1,5,3.1c0.6,0,1.3-0.1,2-0.2
					c1.2-0.2,1.9-1,2.3-1.6c0.1-0.1,0.1-0.2,0.2-0.3c-0.3,0.1-0.6,0.3-0.9,0.3c-0.7,0.1-1.4,0.2-2,0.2c-2.9,0-4-1.6-5-3.1
					c-0.7-1.1-1.5-2.2-2.9-2.5c-0.2,0-0.5,0-0.8,0c-2.3,0-9.5,1.2-10.9,2.7c-0.2,0.2-0.3,0.5-0.4,0.8
					C135.2,166.2,140.5,165.3,142.4,165.3z"/>
				<path class="st10" d="M145.4,144c0.7-0.2,1.4-0.5,1.5-1.3c0.3-1.6,0.8-2.9,1.6-3.9C147,139.7,145.8,141.4,145.4,144z"/>
			</g>
			<path class="st11" d="M151.7,181.1c-4,0-7.4-0.9-10.2-2.6l-0.1-0.1c-2.1-1.3-6.4-3.9-7.2-11c0.8-0.8,6.7-2.2,9.7-2.2
				c0.3,0,0.5,0,0.5,0c0.7,0.1,1.2,0.7,1.9,1.8c1.1,1.6,2.5,3.8,6.2,3.8c0.7,0,1.5-0.1,2.3-0.2c1.7-0.3,2.7-1.4,3.3-2.2
				c1-1.5,1.4-3.7,1-5.7c-0.8-3.9-4-4.4-6.4-4.4c-1.4,0-2.9,0.2-4.3,0.4c-0.6,0.1-1.1,0.1-1.6,0.2c-0.1,0-0.3,0-0.4,0
				c-1.1,0-2.2-0.9-3.1-7.9c-0.1-1.2,2.6-2.2,4.1-2.4c5.1-0.7,8.4-2.2,10-4.5c1-1.5,1.3-3.4,0.7-5.6c-0.7-2.8-3.2-3.9-5.1-3.9
				c-3.2,0-6.8,2.4-7.7,7.7c-0.1,0.1-0.5,0.2-1.6,0.2c-2.7,0-6.9-1-8-2.1c-0.2-0.2-0.2-0.3-0.2-0.5c0.3-3.9,3.1-11.1,11.2-13.5
				c1.9-0.6,4.3-0.9,6.8-0.9c9.1,0,15.1,4.1,16.1,11.1c0.3,2.2,0.9,9.7-5,13.4c-0.5,0.3-0.8,0.8-0.7,1.4c0,0.6,0.4,1.1,0.9,1.3
				c2.8,1.2,5.8,3.2,6.6,8.8c0.7,5-0.4,9.5-3.1,13.2c-2.6,3.5-6.6,5.6-12.4,6.3C154.5,181,153.1,181.1,151.7,181.1z"/>
			<g class="st12">
				<path class="st3" d="M170.7,134.2c-2-6.4-8.2-10.2-17.2-10.2c-2.6,0-5.1,0.3-7.2,1c-1,0.3-1.9,0.6-2.7,1
					C152,130.4,161.3,132.6,170.7,134.2z"/>
				<path class="st3" d="M142.5,154.9c9.4-1.6,18.5-4.3,27.2-8.3c0.6-1,1-2.1,1.2-3.3c-4.7-0.8-9.4-1.7-13.9-2.8
					c0,1-0.2,1.9-0.8,2.7c-1.3,1.9-4.3,3.2-9,3.9c-1.5,0.2-5.7,1.4-5.4,4.1C142,152.6,142.2,153.9,142.5,154.9z"/>
				<path class="st3" d="M172.9,161.1c-0.3-2.2-0.9-3.9-1.8-5.3c-4.8,2-9.6,3.7-14.5,5.1c0.5,0.5,0.9,1.2,1.1,2.1
					c0.2,1.2,0.1,2.4-0.3,3.5c0.4,1.1,0.3,2.3-0.5,3.5c-2.5,3.9-4.3,8.3-6.1,12.6c0.3,0,0.6,0,1,0c1.4,0,2.9-0.1,4.4-0.3
					c6.2-0.8,10.6-3.1,13.4-6.9C172.5,171.4,173.6,166.5,172.9,161.1z"/>
				<path class="st3" d="M140.7,179.9c0.4,0.2,0.8,0.4,1.1,0.6c2.1-4.5,3.8-9.2,6.2-13.5c-0.2-0.2-0.3-0.5-0.5-0.7
					c-0.7-1.1-1.5-2.2-2.9-2.5c-0.2,0-0.4,0-0.7,0c-2.3,0.4-4.6,0.7-6.9,1c-1.9,0.5-3.5,1.1-4.1,1.7c-0.3,0.3-0.4,0.7-0.4,1.1
					c0.8,7.9,5.8,10.9,7.9,12.2L140.7,179.9z"/>
				<path class="st3" d="M143.7,144.1c0.8,0,2.8,0,3.1-1.5c0.3-2,1.1-3.5,2-4.5c-3.8-1.3-7.5-2.9-11-4.9c-0.5-0.3-0.9-0.6-1.2-0.9
					c-1.7,2.7-2.4,5.5-2.6,7.5c0,0.4,0,1,0.6,1.7C136.2,143.2,141,144.1,143.7,144.1z"/>
			</g>
		</g>
		<g>
			<g>
				<path class="st3" d="M144.5,140.1C144.5,140.1,144.4,140.1,144.5,140.1c-0.4-0.1-0.5-0.3-0.5-0.6c0.7-4.1,3.7-5.7,3.9-5.8
					c0.2-0.1,0.5,0,0.7,0.2c0.1,0.2,0,0.5-0.2,0.7l0,0c-0.1,0.1-2.7,1.5-3.3,5C144.9,139.9,144.7,140.1,144.5,140.1z"/>
			</g>
			<g>
				<path class="st3" d="M164.5,148.2c-0.1,0-0.2,0-0.2-0.1c-0.2-0.1-0.3-0.4-0.2-0.7c4-7.2,1.8-12.1-0.8-15c-0.2-0.2-0.2-0.5,0-0.7
					c0.2-0.2,0.5-0.2,0.7,0c2.3,2.5,5.4,8,0.9,16.1C164.9,148.1,164.7,148.2,164.5,148.2z"/>
			</g>
			<g>
				<path class="st3" d="M160.5,130c-0.1,0-0.2,0-0.3-0.1c-1.7-1.1-3.1-1.4-3.8-1.4c0,0,0,0,0,0c-0.3,0-0.5-0.2-0.5-0.5
					c0-0.3,0.2-0.5,0.5-0.5h0c1.1,0,2.8,0.6,4.4,1.6c0.2,0.1,0.3,0.5,0.2,0.7C160.8,130,160.6,130,160.5,130z"/>
			</g>
			<g>
				<path class="st3" d="M159.6,177.6c-0.2,0-0.4-0.1-0.5-0.3c-0.1-0.3,0-0.6,0.2-0.7c5.8-2.8,8.8-7.6,8.2-13.1
					c0-0.3,0.2-0.5,0.5-0.6c0.3,0,0.5,0.2,0.5,0.5c0.3,2.8,0,9.9-8.8,14.2C159.7,177.6,159.7,177.6,159.6,177.6z"/>
			</g>
			<g>
				<path class="st3" d="M167.3,161.1c-0.2,0-0.4-0.1-0.5-0.3c-0.8-1.6-1.8-2.7-2.3-3.1c-0.2-0.2-0.3-0.5-0.1-0.7
					c0.2-0.2,0.5-0.3,0.7-0.1c0.7,0.5,1.9,1.7,2.7,3.5c0.1,0.3,0,0.6-0.2,0.7C167.4,161,167.4,161.1,167.3,161.1z"/>
			</g>
			<g>
				<path class="st3" d="M137.5,168.4c-0.2,0-0.4-0.1-0.5-0.3c-0.1-0.3,0-0.5,0.3-0.6c0.1,0,5-1.7,6.5-1c0.2,0.1,0.4,0.4,0.2,0.7
					c-0.1,0.2-0.4,0.4-0.7,0.2c-0.7-0.3-4.1,0.5-5.7,1.1C137.6,168.3,137.6,168.4,137.5,168.4z"/>
			</g>
		</g>
	</g>
</g>
</svg>
