<?xml version="1.0" encoding="utf-8"?>
<!-- Generator: Adobe Illustrator 21.0.2, SVG Export Plug-In . SVG Version: 6.00 Build 0)  -->
<svg version="1.1" id="Layer_1" xmlns="http://www.w3.org/2000/svg" xmlns:xlink="http://www.w3.org/1999/xlink" x="0px" y="0px"
	 viewBox="0 0 200 200" style="enable-background:new 0 0 200 200;" xml:space="preserve">
<style type="text/css">
	.st0{fill:#FFFFFF;}
	.st1{fill:#414141;}
	.st2{fill:#FDD6BD;}
	.st3{fill:#E27E53;}
	.st4{opacity:0.3;fill:#FFFFFF;}
	.st5{opacity:0.2;fill:#606161;}
	.st6{fill:#C11E6A;}
	.st7{opacity:0.4;fill:#C11E6A;}
	.st8{fill:#E64494;}
	.st9{opacity:0.5;fill:#E64494;}
	.st10{opacity:0.4;}
</style>
<g>
	<g>
		<path class="st0" d="M47.1,38.1c0.4-0.1,0.8-0.2,1.2-0.3C47.9,37.9,47.5,38,47.1,38.1z"/>
		<path class="st0" d="M48.6,37.8c1-0.2,2-0.3,3-0.3C50.5,37.5,49.5,37.6,48.6,37.8z"/>
		<path class="st0" d="M51.8,37.5c1,0,2.1,0.1,3.1,0.2C53.9,37.6,52.8,37.5,51.8,37.5z"/>
		<path class="st0" d="M35.5,47.4c0.5-0.6,1.1-1.3,1.6-1.9C36.6,46.1,36,46.8,35.5,47.4z"/>
		<path class="st0" d="M37.1,45.5c0.6-0.6,1.2-1.2,1.8-1.8C38.3,44.3,37.7,44.9,37.1,45.5z"/>
		<path class="st0" d="M38.9,43.7c0.6-0.6,1.2-1.2,1.8-1.7C40.1,42.5,39.5,43.1,38.9,43.7z"/>
		<path class="st0" d="M40.7,42c0.6-0.5,1.2-1.1,1.9-1.6C42,40.9,41.4,41.4,40.7,42z"/>
		<path class="st0" d="M44.2,39.4c0.3-0.2,0.7-0.4,1.1-0.5C44.8,39,44.5,39.2,44.2,39.4z"/>
		<path class="st0" d="M45.5,38.7c0.4-0.2,0.9-0.3,1.3-0.5C46.3,38.4,45.9,38.5,45.5,38.7z"/>
		<path class="st0" d="M42.6,40.4c0.4-0.3,0.8-0.6,1.2-0.8C43.4,39.8,43,40.1,42.6,40.4z"/>
		<path class="st0" d="M46.6,49.9c3.8-2.4,7-3,8.4-3.2c-0.2,0.3-0.4,0.7-0.6,1c2-3.4,4.4-6.6,7.1-9.5c-0.3,0.3-0.5,0.6-0.8,0.9
			c-1.8-0.6-3.8-1-5.7-1.3C53.5,42.4,50.3,46.3,46.6,49.9z"/>
		<path class="st1" d="M44,51.7c0.9-0.7,1.7-1.4,2.6-1.9c3.7-3.5,7-7.6,8.4-12.1l0,0c0,0,0,0,0,0c-1,0-2.1,0-3.1,0
			c-0.1,0-0.2,0-0.2,0c-1,0-2,0-3,0.2c-0.1,0-0.2,0-0.3,0c-0.4,0.1-0.8,0.1-1.2,0.3c-0.1,0-0.2,0-0.3,0.1c-0.5,0.1-0.9,0.3-1.3,0.5
			c-0.1,0-0.2,0.1-0.3,0.1c-0.4,0.2-0.7,0.3-1.1,0.5c-0.1,0.1-0.2,0.1-0.3,0.2c-0.4,0.3-0.8,0.5-1.2,0.8c-0.6,0.5-1.2,1-1.9,1.6
			c0,0,0,0,0,0c-0.6,0.5-1.2,1.1-1.8,1.7c0,0,0,0,0,0c-0.6,0.6-1.2,1.2-1.8,1.8c0,0,0,0,0,0c-0.6,0.6-1.1,1.3-1.6,1.9c0,0,0,0,0,0
			l0,0C37.7,50,40.8,51.5,44,51.7z"/>
		<path class="st2" d="M46.6,49.9c-0.8,0.5-1.7,1.2-2.6,1.9c-1.8,1.5-3.7,3.4-5.5,6c0,0-2.7,4.7,10.8,1.9c0.1-0.3,0.2-0.5,0.2-0.8
			c0.1-0.2,0.2-0.5,0.2-0.7c0.2-0.5,0.3-1,0.5-1.5c0.1-0.3,0.2-0.6,0.3-0.8c0.2-0.5,0.4-1,0.6-1.5c0.1-0.2,0.2-0.5,0.3-0.7
			c0.3-0.6,0.6-1.3,0.9-1.9c0.1-0.3,0.3-0.6,0.4-0.9c0.2-0.4,0.4-0.7,0.6-1.1c0.2-0.3,0.3-0.6,0.5-1c0.2-0.4,0.4-0.7,0.6-1.1
			c0.2-0.3,0.4-0.7,0.6-1C53.6,46.8,50.3,47.5,46.6,49.9z"/>
		<path class="st0" d="M157.4,40.4c-4.9-3.9-11.8-3.2-17.5-1.5c2.2,2.4,4.2,5.1,5.9,7.9c3,0.5,9.8,2.6,15.7,10.9c0,0,2.6,4.5-10,2
			c0.5,1.9,1,3.8,1.3,5.7c2.5,0.2,5.2,0.2,8.3-0.1C177.7,64.1,167.3,48.3,157.4,40.4z"/>
		<path class="st2" d="M161.5,57.7c-5.9-8.3-12.7-10.4-15.7-10.9c2.4,4,4.4,8.4,5.7,13C164.1,62.2,161.5,57.7,161.5,57.7z"/>
		<path class="st0" d="M138.9,37.8c3.3-2.1,8.9-6.5,10.9-14c2.9-10.9,0-14.2-2.7-14.7c-2.2-0.4-7.1,16.7-18.2,20.6
			C132.5,31.9,135.9,34.7,138.9,37.8z"/>
		<path class="st1" d="M149.6,151c3.2,10.1,13.5-1,16.7-7.8C166.3,143.2,146.4,140.8,149.6,151z"/>
		<path class="st1" d="M79.2,168.8c-4.5,0-8.6,2.4-10.9,5.9c-1.3,2-2.1,4.4-2.1,7v1.9h26.2v-1.9c0-2.6-0.9-4.9-2.2-6.9
			C87.8,171.2,83.7,168.8,79.2,168.8z"/>
		<path class="st1" d="M119.6,168.8c-4.9,0-9,2.8-11.2,6.9c-0.9,1.8-1.3,3.8-1.3,6v1.9h25.1v-1.9c0-3.5-1.3-6.8-3.6-9.1
			C126.3,170.3,123.2,168.8,119.6,168.8z"/>
		<path class="st0" d="M58.7,124.7c-0.1-0.7-0.2-1.4-0.3-2.1C58.5,123.3,58.6,124,58.7,124.7z"/>
		<path class="st0" d="M135.2,127.3c-1-1.1-1.7-2.5-2.3-3.8c-4.3,7.9-12.3,6.2-19.8,3.5c-0.7,4.4-0.7,9-2,13
			c-1.8,5.6-6.4,3.2-10,0.8c-2.3-1.5-4.5-3.3-6.3-5.4c-0.9-1.1-1.2-2.8-1.2-4.6c0.1-0.3,0.1-0.5,0.1-0.8c0.1-0.6,0-1.3,0-2
			c0-0.4,0-0.9,0.1-1.3c2.1,0.2,4.2,0.4,6.3,0.4c3.6,0,7.1-0.4,10.5-1c-4.2-1.6-8.1-3.1-11-3.1c-7.9,0-23.8,12-31.8,2.8
			c-2.6,1-5.5,1.5-8.6,1.3c-0.2-0.7-0.3-1.5-0.4-2.3c1.3,7.6,5.1,14.5,9.6,20.1v29.8c2.3-3.6,6.3-5.9,10.8-5.9
			c4.5,0,8.5,2.4,10.8,5.9v-16.6c3.4,0.8,6.6,1.2,10,1.2c2.8,0,5.9-0.3,8.2-0.8v17.1c2.3-4.1,6.4-6.9,11.4-6.9
			c3.6,0,6.8,1.5,9.1,3.8V148c4.6-4.6,8.6-10.3,10.8-16.8C137.9,131.3,136.1,128.3,135.2,127.3z M82.9,155.7
			c-7.3-3.3-13.5-8.6-17.9-15.2c2-2.6,5.6-5.9,8-3.3c1.5,1.6,2.3,3.8,3.8,5.4c1.6,1.7,3.5,2.8,5.4,4C84.8,148.2,86,154.3,82.9,155.7
			z M107.3,158.7c0-0.1,0-0.2,0-0.3c0-0.4,0-0.8,0.1-1.3c0.4-0.6,0.7-1.3,0.9-1.9c0.1-0.2,0.1-0.4,0.2-0.6
			c4.1-6.7,17.6-13.7,20.9-7.3C123.5,153.1,115.8,157.2,107.3,158.7z"/>
		<path class="st0" d="M140.1,129.6c-0.1,0.4-0.2,0.7-0.4,1.1C139.9,130.4,140,130,140.1,129.6z"/>
		<path class="st0" d="M141.5,123.4c0,0.3-0.1,0.5-0.1,0.8C141.4,123.9,141.5,123.6,141.5,123.4z"/>
		<path class="st0" d="M58.2,119.8c0-0.8-0.1-1.6-0.1-2.4C58.1,118.2,58.1,119,58.2,119.8z"/>
		<path class="st0" d="M140.8,127.2c-0.1,0.6-0.3,1.1-0.4,1.7C140.5,128.3,140.6,127.8,140.8,127.2z"/>
		<path class="st0" d="M141.2,125.3c-0.1,0.3-0.1,0.6-0.2,0.8C141.1,125.8,141.1,125.6,141.2,125.3z"/>
		<path class="st0" d="M141.9,119.4c0,0.2,0,0.4,0,0.7C141.8,119.9,141.9,119.7,141.9,119.4z"/>
		<path class="st0" d="M141.7,121.4c0,0.3-0.1,0.5-0.1,0.8C141.7,121.9,141.7,121.7,141.7,121.4z"/>
		<path class="st0" d="M58.4,122.2c-0.1-0.6-0.1-1.3-0.2-1.9C58.2,120.9,58.3,121.6,58.4,122.2z"/>
		<path class="st1" d="M82.3,146.7c-2-1.2-3.9-2.3-5.4-4c-1.5-1.7-2.3-3.8-3.8-5.4c-2.4-2.6-6,0.7-8,3.3c4.4,6.6,10.6,12,17.9,15.2
			C86,154.3,84.8,148.2,82.3,146.7z"/>
		<path class="st1" d="M67.8,125.7c-1.8-2-3.1-5.1-3.9-9.5c-0.2-1.4-0.4-2.7-0.5-3.9c-1.5-1.4-2.9-2.9-4.2-4.5
			c-0.7,3.1-1.1,6.3-1.1,9.6c0,0.8,0,1.6,0.1,2.4c0,0.2,0,0.3,0,0.5c0,0.6,0.1,1.3,0.2,1.9c0,0.1,0,0.2,0,0.4
			c0.1,0.7,0.2,1.4,0.3,2.1c0,0.1,0,0.1,0,0.2c0.1,0.8,0.3,1.5,0.5,2.3C62.3,127.2,65.2,126.7,67.8,125.7z"/>
		<path class="st1" d="M100,127.1c-2.1,0-4.2-0.1-6.3-0.4c0,0.4,0,0.9-0.1,1.3c0.1,0.7,0.1,1.3,0,2c0,0.3-0.1,0.5-0.1,0.8
			c0,1.8,0.3,3.5,1.2,4.6c1.8,2.1,4.1,3.9,6.3,5.4c3.6,2.5,8.3,4.9,10-0.8c1.3-4,1.3-8.6,2-13c-0.9-0.3-1.7-0.6-2.6-0.9
			C107.1,126.7,103.6,127.1,100,127.1z"/>
		<path class="st1" d="M135.7,113.2c-0.1,1-0.2,1.9-0.4,3c-0.5,3-1.4,5.4-2.4,7.2c0.6,1.4,1.3,2.7,2.3,3.8c0.9,1,2.6,3.9,4.4,3.9
			c0,0,0,0,0,0c0.1,0,0.1-0.3,0.1-0.4c0.1-0.4,0.2-0.7,0.4-1.1c0.1-0.3,0.1-0.5,0.2-0.8c0.2-0.5,0.3-1.1,0.4-1.7
			c0.1-0.4,0.2-0.7,0.3-1.1c0.1-0.3,0.1-0.6,0.2-0.8c0.1-0.4,0.1-0.7,0.2-1.1c0-0.3,0.1-0.5,0.1-0.8c0.1-0.4,0.1-0.8,0.1-1.2
			c0-0.3,0.1-0.5,0.1-0.8c0-0.4,0.1-0.9,0.1-1.3c0-0.2,0-0.4,0-0.7c0-0.7,0.1-1.3,0.1-2c0-3.3-0.4-6.5-1.1-9.6
			C139.2,109.8,137.5,111.6,135.7,113.2z"/>
		<path class="st1" d="M108.5,154.6c-0.1,0.2-0.1,0.4-0.2,0.6c-0.2,0.6-0.5,1.3-0.9,1.9c-0.1,0.4-0.2,0.9-0.1,1.3c0,0.1,0,0.2,0,0.3
			c8.5-1.5,16.2-5.6,22.1-11.4C126.1,140.9,112.6,148,108.5,154.6z"/>
		<path class="st0" d="M48.4,85.5c-0.2-0.7-0.3-1.4-0.4-2.1C48.1,84.1,48.2,84.8,48.4,85.5z"/>
		<path class="st0" d="M47.9,82.7c-0.1-0.7-0.2-1.4-0.3-2C47.7,81.4,47.7,82.1,47.9,82.7z"/>
		<path class="st0" d="M47.2,71.8c0-0.2,0-0.5,0-0.7C47.3,71.4,47.2,71.6,47.2,71.8z"/>
		<path class="st0" d="M47.4,69.3c0-0.2,0-0.4,0.1-0.6C47.5,68.9,47.4,69.1,47.4,69.3z"/>
		<path class="st0" d="M47.8,66.3c0-0.1,0-0.3,0.1-0.4C47.8,66,47.8,66.2,47.8,66.3z"/>
		<path class="st0" d="M47.3,77.1c-0.1-0.9-0.1-1.9-0.1-2.8C47.2,75.2,47.2,76.2,47.3,77.1z"/>
		<path class="st0" d="M49.9,91c-0.3-0.8-0.5-1.5-0.7-2.3C49.4,89.4,49.6,90.2,49.9,91z"/>
		<path class="st0" d="M49.1,88.2c-0.2-0.7-0.4-1.5-0.6-2.2C48.7,86.8,48.9,87.5,49.1,88.2z"/>
		<path class="st0" d="M122.5,26.5c-6.8-3.2-14.5-5-22.5-5c-7.8,0-15.2,1.7-21.9,4.7c3.6,13.5-4.1,30.4-8.8,42.4
			c-4,10.1-9.5,20.1-17.4,27.6c1.9,4.2,4.4,8.1,7.3,11.6c1.3,1.6,2.7,3.1,4.2,4.5c-1.4-20.9,19.8-22.4,36.2-22.4
			c16.7,0,38.2,1.6,36.1,23.3c1.8-1.7,3.6-3.5,5.1-5.4c3-3.7,5.5-7.7,7.5-12.1c-7.6-7.4-13-17.1-16.9-27
			C126.7,56.7,119.1,39.9,122.5,26.5z M83.9,82.2c-4.6-0.2-8.2-4-8.1-8.7c0.2-4.6,4-8.2,8.7-8.1c4.6,0.2,8.2,4,8.1,8.7
			C92.4,78.8,88.5,82.4,83.9,82.2z M107.5,74.2c-0.2-4.6,3.4-8.5,8.1-8.7c4.6-0.2,8.5,3.4,8.7,8.1c0.2,4.6-3.4,8.5-8.1,8.7
			C111.5,82.4,107.6,78.8,107.5,74.2z"/>
		<path class="st0" d="M50.8,93.6c-0.3-0.8-0.6-1.6-0.9-2.4C50.2,92,50.5,92.8,50.8,93.6z"/>
		<path class="st0" d="M51.9,96.2c-0.4-0.8-0.7-1.6-1.1-2.5C51.2,94.6,51.6,95.4,51.9,96.2z"/>
		<path class="st0" d="M47.5,79.9c-0.1-0.7-0.1-1.4-0.2-2.1C47.4,78.5,47.4,79.2,47.5,79.9z"/>
		<path class="st0" d="M49.3,59.6c-13.5,2.8-10.8-1.9-10.8-1.9c1.8-2.5,3.7-4.5,5.5-6c-3.2-0.3-6.3-1.7-8.5-4.3
			c-6.3,7.8-9.1,17,3.4,18c3.4,0.3,6.4,0.2,9,0C48.3,63.4,48.7,61.5,49.3,59.6z"/>
		<path class="st0" d="M50.5,55.7c-0.1,0.3-0.2,0.6-0.3,0.8C50.3,56.3,50.4,56,50.5,55.7z"/>
		<path class="st0" d="M49.7,58.1c-0.1,0.2-0.2,0.5-0.2,0.7C49.6,58.5,49.6,58.3,49.7,58.1z"/>
		<path class="st0" d="M51.4,53.6c-0.1,0.2-0.2,0.5-0.3,0.7C51.2,54,51.3,53.8,51.4,53.6z"/>
		<path class="st0" d="M53.8,48.7c-0.2,0.3-0.3,0.6-0.5,1C53.4,49.4,53.6,49,53.8,48.7z"/>
		<path class="st0" d="M52.7,50.8c-0.2,0.3-0.3,0.6-0.4,0.9C52.4,51.4,52.5,51.1,52.7,50.8z"/>
		<path class="st0" d="M78.1,26.2c-2.3,1-4.4,2.2-6.5,3.5C60.2,26.2,55.2,8.6,52.9,9c-2.6,0.5-5.6,3.8-2.7,14.7
			c2.1,7.9,8.1,12.4,11.4,14.3C66.3,33.1,71.9,29.1,78.1,26.2z"/>
		<path class="st1" d="M78.1,26.2L78.1,26.2C78.1,26.2,78.1,26.2,78.1,26.2c-6.3,2.9-11.9,6.9-16.5,11.8c0,0.1-0.1,0.1-0.1,0.2
			c-2.7,2.9-5.1,6.1-7.1,9.5c-0.2,0.4-0.4,0.7-0.6,1.1c-0.2,0.3-0.3,0.6-0.5,1c-0.2,0.4-0.4,0.7-0.6,1.1c-0.2,0.3-0.3,0.6-0.4,0.9
			c-0.3,0.6-0.6,1.3-0.9,1.9c-0.1,0.2-0.2,0.5-0.3,0.7c-0.2,0.5-0.4,1-0.6,1.5c-0.1,0.3-0.2,0.6-0.3,0.8c-0.2,0.5-0.3,1-0.5,1.5
			c-0.1,0.2-0.2,0.5-0.2,0.7c-0.1,0.3-0.2,0.5-0.2,0.8c-0.6,1.9-1,3.8-1.3,5.8c0,0.2-0.1,0.3-0.1,0.5c0,0.1-0.1,0.3-0.1,0.4
			c-0.1,0.8-0.2,1.6-0.3,2.3c0,0.2,0,0.4-0.1,0.6c-0.1,0.6-0.1,1.2-0.1,1.8c0,0.2,0,0.5,0,0.7c0,0.8-0.1,1.6-0.1,2.4
			c0,1,0,1.9,0.1,2.8c0,0.2,0,0.5,0.1,0.7c0,0.7,0.1,1.4,0.2,2.1c0,0.3,0.1,0.5,0.1,0.8c0.1,0.7,0.2,1.4,0.3,2
			c0,0.2,0.1,0.4,0.1,0.7c0.1,0.7,0.3,1.4,0.4,2.1c0,0.2,0.1,0.3,0.1,0.5c0.2,0.7,0.4,1.5,0.6,2.2c0,0.1,0.1,0.2,0.1,0.4
			c0.2,0.8,0.5,1.6,0.7,2.3c0,0.1,0.1,0.2,0.1,0.2c0.3,0.8,0.6,1.6,0.9,2.4c0,0,0,0.1,0,0.1c0.3,0.8,0.7,1.7,1.1,2.5l0,0l0,0
			c7.8-7.5,13.4-17.4,17.4-27.6C74,56.6,81.8,39.7,78.1,26.2z"/>
		<path class="st1" d="M145.8,46.8c-1.7-2.8-3.7-5.5-5.9-7.9c-0.3-0.4-0.7-0.7-1-1.1c-3-3.1-6.3-5.8-10-8.2c-2-1.3-4.1-2.4-6.3-3.4
			c0,0.1,0,0.2-0.1,0.3c-3.4,13.4,4.2,30.2,8.9,42.1c3.9,9.9,9.3,19.6,16.9,27c0.2,0.2,0.3,0.3,0.5,0.5c3.1-6.7,4.8-14.1,4.8-21.9
			c0-3-0.3-5.9-0.7-8.8c-0.3-2-0.8-3.9-1.3-5.7C150.2,55.1,148.3,50.8,145.8,46.8z"/>
		<path class="st1" d="M124.2,73.6c-0.2-4.6-4-8.2-8.7-8.1c-4.6,0.2-8.2,4-8.1,8.7c0.2,4.6,4,8.2,8.7,8.1
			C120.8,82.1,124.4,78.2,124.2,73.6z M115.8,71c1.6,0.1,2.9,1.4,2.9,3.1c0,0.5-0.2,1-0.4,1.4c-0.5-1.3-1.6-2.4-3.4-2.5
			c-0.9,0-1.6,0.2-2.1,0.7C112.8,72.2,114.2,71,115.8,71z"/>
		<path class="st0" d="M118.2,75.6c0.3-0.4,0.4-0.9,0.4-1.4c0.1-1.7-1.2-3-2.9-3.1c-1.6-0.1-2.9,1.1-3.1,2.7
			c0.5-0.4,1.2-0.7,2.1-0.7C116.6,73.1,117.7,74.3,118.2,75.6z"/>
		<path class="st1" d="M92.5,74.2c0.2-4.6-3.4-8.5-8.1-8.7c-4.6-0.2-8.5,3.4-8.7,8.1c-0.2,4.6,3.4,8.5,8.1,8.7
			C88.5,82.4,92.4,78.8,92.5,74.2z M84.2,71c1.6-0.1,2.9,1.1,3.1,2.7c-0.5-0.4-1.2-0.7-2.1-0.7c-1.7,0.1-2.9,1.2-3.4,2.5
			c-0.3-0.4-0.4-0.9-0.4-1.4C81.3,72.5,82.6,71.1,84.2,71z"/>
		<path class="st0" d="M85.2,73.1c0.9,0,1.6,0.2,2.1,0.7c-0.1-1.6-1.5-2.8-3.1-2.7c-1.6,0.1-2.9,1.4-2.9,3.1c0,0.5,0.2,1,0.4,1.4
			C82.3,74.3,83.4,73.1,85.2,73.1z"/>
		<path class="st2" d="M67.8,125.7c7.9,9.2,23.8-2.8,31.8-2.8c2.9,0,6.8,1.6,11,3.1c0.8,0.3,1.7,0.6,2.6,0.9
			c7.6,2.7,15.5,4.3,19.8-3.5c1-1.8,1.8-4.2,2.4-7.2c0.2-1,0.3-2,0.4-3c2.1-21.7-19.4-23.3-36.1-23.3c-16.4,0-37.6,1.6-36.2,22.4
			c0.1,1.2,0.2,2.5,0.5,3.9C64.7,120.7,66,123.7,67.8,125.7z M120.2,103.8c2.2,0,4,1.8,4,4s-1.8,4-4,4c-2.2,0-4-1.8-4-4
			S118,103.8,120.2,103.8z M76.9,103.8c2.2,0,4,1.8,4,4s-1.8,4-4,4c-2.2,0-4-1.8-4-4S74.7,103.8,76.9,103.8z"/>
		<circle class="st3" cx="76.9" cy="107.8" r="4"/>
		<circle class="st3" cx="120.2" cy="107.8" r="4"/>
	</g>
	<path class="st4" d="M161.1,65.4c16.6-1.4,6.2-17.2-3.7-25c-4.9-3.9-11.8-3.2-17.5-1.5c-0.3-0.4-0.7-0.7-1-1.1
		c3.3-2.1,8.9-6.5,10.9-14c2.9-10.9,0-14.2-2.7-14.7c-2.2-0.4-7.1,16.7-18.2,20.6c-2-1.3-4.1-2.4-6.3-3.4c0,0.1,0,0.2-0.1,0.3
		c-6.8-3.2-14.5-5-22.5-5c0,0-0.1,0-0.1,0v137.9c0,0,0.1,0,0.1,0c2.8,0,5.6-0.3,8.2-0.8v17.1c-0.9,1.8-1.1,3.8-1.1,6v1.9h25.1v-1.9
		c0-3.5-1.1-6.8-3.4-9.1V148c0.6-0.6,1.2-1.1,1.7-1.7c2.7,5.1,6.2,8.4,10.2,9.7c1.2,0.4,2.4,0.6,3.7,0.6c2.4,0,4.9-0.7,7.3-2.1
		c4.3,3.2,11.9-5.5,14.6-11.2c0,0-19.1-2.2-16.8,7.2c-2.6,1.5-5.1,1.9-7.3,1.2c-3.2-1-6.1-4.3-8.4-9.2c2.5-3.4,4.5-6.7,5.9-11.2h0
		c0.1,0,0.1-0.3,0.1-0.4c0.1-0.4,0.2-0.7,0.4-1.1c0.1-0.3,0.1-0.5,0.2-0.8c0.2-0.5,0.3-1.1,0.4-1.7c0.1-0.4,0.2-0.7,0.3-1.1
		c0.1-0.3,0.1-0.6,0.2-0.8c0.1-0.4,0.1-0.7,0.2-1.1c0-0.3,0.1-0.5,0.1-0.8c0.1-0.4,0.1-0.8,0.1-1.2c0-0.3,0.1-0.5,0.1-0.8
		c0-0.4,0.1-0.9,0.1-1.3c0-0.2,0-0.4,0-0.7c0-0.7,0.1-1.3,0.1-2c0-3.3-0.4-6.5-1.1-9.6c3-3.7,5.5-7.7,7.5-12.1
		c0.2,0.2,0.3,0.3,0.5,0.5c3.1-6.7,4.8-14.1,4.8-21.9c0-3-0.3-5.9-0.7-8.8C155.3,65.7,158,65.7,161.1,65.4z"/>
</g>
<g>
	<path class="st5" d="M152.2,186.8c-4,0-5.1-0.5-5.7-1.1c-0.8-0.9-0.8-3.1-0.4-9.1c0.1-1.6,0.2-3.1,0.2-3.8c0-0.1,0-0.3,0-0.6
		c0-0.2,0-0.5,0-0.7c-0.9-0.1-6.8-0.2-10.6-0.2c-1,0-1.8,0-2.4,0l-0.2,0c-0.1,0-8.1-0.1-9.6-0.9c-0.7-0.3-0.9-1.1-1.1-1.6
		c-0.7-2.6-0.6-9.8,0.7-12c4.4-7.3,19.3-21.9,22.9-26.2c1.4-1.7,6-1.9,8.6-1.9c0.9,0,3.9,0,4.9,0.5c1,0.5,1.2,1.1,0.7,16.5
		c-0.2,5-0.3,10.1-0.2,12.1c0.1,0,0.3,0.1,0.7,0.1l0,0c0.4,0,0.8,0,1.2-0.1c0.4,0,0.7-0.1,1-0.1c0.2,0,0.4,0,0.5,0
		c1.4,0.2,4.7,2.5,4.7,3.9c0,6.2-2.3,8.6-4.5,9.7c-0.8,0.4-1.9,0.6-3.2,0.7c-0.2,1.1,2.7,6.4,2.8,8.4c0.1,2.9-2.5,4.8-3.3,5.7
		c-0.3,0.3-0.6,0.5-1,0.5c-0.3,0-0.7,0-1.2,0.1C156.3,186.7,154.1,186.8,152.2,186.8z M139,157.6c1.5,0,6.1,0,7-0.1
		c0.4-1,0.4-6.7,0.3-9.1c-1.6,1.8-7.5,7.5-8.5,9.3C138.2,157.6,138.6,157.6,139,157.6z"/>
	<g>
		<g>
			<path class="st6" d="M153.7,184.2c-4,0-5.1-0.5-5.7-1.1c-0.8-0.9-0.8-3.1-0.4-9.1c0.1-1.6,0.2-3.1,0.2-3.8c0-0.1,0-0.3,0-0.6
				c0-0.2,0-0.5,0-0.7c-0.9-0.1-6.8-0.2-10.6-0.2c-1,0-1.8,0-2.4,0l-0.2,0c-0.1,0-8.1-0.1-9.6-0.9c-0.7-0.3-0.9-1.1-1.1-1.6
				c-0.7-2.6-0.6-9.8,0.7-12c4.4-7.3,19.3-21.9,22.9-26.2c1.4-1.7,6-1.9,8.6-1.9c0.9,0,3.9,0,4.9,0.5c1,0.5,1.2,1.1,0.7,16.5
				c-0.2,5-0.3,10.1-0.2,12.1c0.1,0,0.3,0.1,0.7,0.1l0,0c0.4,0,0.8,0,1.2-0.1c0.4,0,0.7-0.1,1-0.1c0.2,0,0.4,0,0.5,0
				c1.4,0.2,4.7,2.5,4.7,3.9c0,6.2-2.3,8.6-4.5,9.7c-0.8,0.4-1.9,0.6-3.2,0.7c-0.2,1.1,2.7,6.4,2.8,8.4c0.1,2.9-2.5,4.8-3.3,5.7
				c-0.3,0.3-0.6,0.5-1,0.5c-0.3,0-0.7,0-1.2,0.1C157.9,184.1,155.7,184.2,153.7,184.2z M140.6,155c1.5,0,6.1,0,7-0.1
				c0.4-1,0.4-6.7,0.3-9.1c-1.6,1.8-7.5,7.5-8.5,9.3C139.8,155,140.2,155,140.6,155z"/>
			<path class="st7" d="M165,155.1c-0.1,0-0.3,0-0.5,0c-0.3,0-0.6,0-1,0.1c-0.4,0-0.8,0.1-1.2,0.1c-0.3,0-0.5,0-0.7-0.1
				c-0.1-2,0-7.1,0.2-12.1c0.5-15.4,0.3-16-0.7-16.5c-1-0.5-4-0.5-4.9-0.5c-2.6,0-7.2,0.3-8.6,1.9c-3.6,4.3-18.5,19-22.9,26.2
				c-0.9,1.4-1.2,5-1.2,8c1.3-1.3,2.7-2.6,4.3-3.6c2.2-1.3,5.2-0.5,6.5,1.7c1.3,2.2,0.5,5.1-1.7,6.5c-0.6,0.4-1.4,1-2.1,1.8
				c2.2,0.1,4.1,0.2,4.2,0.2l0.2,0c0.5,0,1.4,0,2.4,0c1.4,0,3,0,4.5,0c2.4-2.6,4.8-5.3,7.3-7.8c4.4-4.3,11.1,2.4,6.7,6.7
				c-2.9,2.8-5.4,5.9-8.2,8.7c-0.2,4.3-0.2,6,0.5,6.8c0.6,0.7,1.8,1.1,5.7,1.1c2,0,4.1-0.1,5.6-0.2c0.5,0,0.9,0,1.2-0.1
				c0.4,0,0.7-0.2,1-0.5c0.8-0.9,3.4-2.9,3.3-5.7c0-2-2.9-7.3-2.8-8.4c1.4-0.1,2.5-0.4,3.2-0.7c2.2-1,4.5-3.4,4.5-9.7
				C169.7,157.7,166.4,155.3,165,155.1z M147.6,154.9c-0.9,0.1-5.6,0.1-7,0.1c-0.4,0-0.8,0-1.1,0c1-1.8,6.9-7.4,8.5-9.3
				C148,148.2,148,153.8,147.6,154.9z"/>
			<path class="st8" d="M156.4,181.1c-4,0-5.1-0.5-5.7-1.1c-0.8-0.9-0.8-3.1-0.4-9.1c0.1-1.6,0.2-3.1,0.2-3.8c0-0.1,0-0.3,0-0.6
				c0-0.2,0-0.5,0-0.7c-0.9-0.1-6.8-0.2-10.6-0.2c-1,0-1.8,0-2.4,0l-0.2,0c-0.1,0-8.1-0.1-9.6-0.9c-0.7-0.3-0.9-1.1-1.1-1.6
				c-0.7-2.6-0.6-9.8,0.7-12c4.4-7.3,19.3-21.9,22.9-26.2c1.4-1.7,6-1.9,8.6-1.9c0.9,0,3.9,0,4.9,0.5c1,0.5,1.2,1.1,0.7,16.5
				c-0.2,5-0.3,10.1-0.2,12.1c0.1,0,0.3,0.1,0.7,0.1l0,0c0.4,0,0.8,0,1.2-0.1c0.4,0,0.7-0.1,1-0.1c0.2,0,0.4,0,0.5,0
				c1.4,0.2,1.8,2,1.9,3.3c0.3,1.9,0.5,9.2-1.7,10.3c-0.8,0.4-1.9,0.6-3.2,0.7c-0.2,1.1,0,4,0,5.9c0.2,5.1,0.2,7.3-0.6,8.2
				c-0.3,0.3-0.6,0.5-1,0.5c-0.3,0-0.7,0-1.2,0.1C160.5,180.9,158.3,181.1,156.4,181.1z M143.2,151.9c1.5,0,6.1,0,7-0.1
				c0.4-1,0.4-6.7,0.3-9.1c-1.6,1.8-7.5,7.5-8.5,9.3C142.4,151.9,142.8,151.9,143.2,151.9z"/>
			<g>
				<path class="st8" d="M164.6,167.6c-0.5,0.1-0.9,0.2-1.5,0.2c-0.2,1.1,0,4,0,5.9c0.2,3.7,0.2,5.8-0.1,7.1c0,0,0,0,0.1,0
					c0.4,0,0.7-0.2,1-0.5c0.8-0.9,0.8-3.1,0.6-8.2C164.6,170.7,164.5,168.9,164.6,167.6z"/>
				<path class="st8" d="M149,144.2c-1.6,1.8-7.5,7.5-8.5,9.3c0.3,0,0.7,0,1.1,0c1.5,0,6.1,0,7-0.1c0.1-0.3,0.2-0.8,0.2-1.5
					c-1.8,0-4.6,0.1-5.7,0.1c-0.4,0-0.8,0-1.1,0c0.8-1.4,4.5-5.1,6.9-7.6C149,144.2,149,144.2,149,144.2z"/>
				<path class="st8" d="M169.6,155.2c-0.2-1.3-0.6-3-1.9-3.3c-0.1,0-0.3,0-0.5,0c-0.3,0-0.6,0-1,0.1c-0.4,0-0.8,0.1-1.2,0.1
					c-0.3,0-0.5,0-0.7-0.1c-0.1-2,0-7.1,0.2-12.1c0.5-15.4,0.3-16-0.7-16.5c-1-0.5-4-0.5-4.9-0.5c-2.6,0-7.2,0.3-8.6,1.9
					c-0.2,0.3-0.5,0.6-0.8,1c1.9-1.1,5.6-1.3,7.9-1.3c0.9,0,3.9,0,4.9,0.5c1,0.5,1.2,1.1,0.7,16.5c-0.2,5-0.3,10.1-0.2,12.1
					c0.1,0,0.3,0.1,0.7,0.1c0.4,0,0.8,0,1.2-0.1c0.4,0,0.7-0.1,1-0.1c0.2,0,0.4,0,0.5,0c1.4,0.2,1.8,2,1.9,3.3
					c0.2,1.5,0.4,6.4-0.6,8.9c0.2-0.1,0.3-0.1,0.5-0.2C170.1,164.4,169.8,157.1,169.6,155.2z"/>
			</g>
			<path class="st9" d="M156.4,179.5c-3.7,0-4.4-0.4-4.5-0.6c-0.5-0.6-0.2-5.2,0-8c0.1-1.7,0.2-3.2,0.2-4c0-0.1,0-0.3,0-0.4
				c0-0.2,0-0.6,0-0.9c0-0.8-0.6-1.4-1.4-1.5c-1.1-0.1-7.2-0.2-10.8-0.2c-1,0-1.9,0-2.4,0l-0.2,0c-3,0-8-0.3-8.9-0.7c0,0,0,0,0,0
				c0,0-0.1-0.1-0.3-0.6c-0.7-2.4-0.5-9.1,0.5-10.8c3-4.9,10.9-13.3,16.7-19.5c2.7-2.9,4.9-5.2,6-6.6c0.4-0.5,2.5-1.4,7.4-1.4
				c2.1,0,3.6,0.2,4.1,0.3c0.3,1.3,0.2,7.3,0,15.1c-0.2,5-0.3,10.2-0.2,12.2c0,0.7,0.6,1.3,1.2,1.4c0.3,0.1,0.6,0.1,1,0.1
				c0.4,0,0.9,0,1.3-0.1c0.4,0,0.7-0.1,0.9-0.1c0.1,0,0.2,0,0.3,0c0,0,0.4,0.2,0.6,1.9c0.5,3.4-0.1,8.1-0.8,8.6
				c-0.4,0.2-1.2,0.4-2.7,0.6c-0.7,0.1-1.3,0.6-1.4,1.3c-0.2,1.2-0.1,3.5,0,6.2c0.1,2.6,0.3,6.4-0.2,7.1c-0.3,0-0.6,0-1,0.1l-0.1,0
				C160.4,179.4,158.3,179.5,156.4,179.5z M150.6,141c-0.4,0-0.9,0.2-1.2,0.5c-0.5,0.6-1.5,1.6-2.6,2.7c-3.1,3.2-5.3,5.5-6,6.8
				c-0.3,0.5-0.3,1.1,0,1.6c0.3,0.5,0.8,0.8,1.3,0.8c0.3,0,0.7,0,1.1,0c1,0,6.1,0,7.2-0.1c0.6-0.1,1.1-0.5,1.3-1
				c0.6-1.7,0.4-9.6,0.4-9.7c0-0.6-0.4-1.2-1-1.4C150.9,141,150.8,141,150.6,141z"/>
			<g class="st10">
				<path class="st0" d="M164.6,134c0.2-9.7,0-10.2-0.9-10.6c-1-0.5-4-0.5-4.9-0.5c-2.6,0-7.2,0.3-8.6,1.9c-0.1,0.2-0.3,0.4-0.5,0.6
					C154,129.4,159,132.2,164.6,134z"/>
				<path class="st0" d="M127.6,164.6c0.2,0.1,0.6,0.2,1,0.3c0.6-2.3,1.2-4.6,1.6-6.9c0.7-3.7,1.5-8,0.5-11.8
					c-1.5,1.8-2.7,3.5-3.6,4.9c-1.3,2.2-1.5,9.5-0.7,12C126.7,163.6,127,164.3,127.6,164.6z"/>
				<path class="st0" d="M164.6,171c-0.1-1.8-0.1-3.9,0-4.8c1.4-0.1,2.5-0.4,3.2-0.7c1.8-0.8,2-5.8,1.8-8.6
					c-6.7,5.8-13.6,11.4-19.6,17.9c-0.1,3.1,0,4.5,0.6,5.1c0.5,0.6,1.6,1.1,4.8,1.1C158.4,177.6,161.2,174,164.6,171z"/>
				<path class="st0" d="M139.9,165.5c1.8,0,4,0,5.9,0.1c5.8-5.9,12.2-11,18.4-16.4c0-1.5,0.1-3.3,0.1-5.2
					c-7.8-2.2-15.2-5.9-21.1-11.6c-1.7,1.9-3.6,3.9-5.5,5.9c0.1,0.1,0.2,0.2,0.2,0.4c4.6,8.3,2.7,17.8,0.4,26.9
					C138.8,165.5,139.3,165.5,139.9,165.5z M150.6,142.6c0.1,2.5,0,8.1-0.3,9.1c-0.9,0.1-5.6,0.1-7,0.1c-0.4,0-0.8,0-1.1,0
					C143.1,150.1,149,144.4,150.6,142.6z"/>
			</g>
		</g>
		<g>
			<g>
				<path class="st0" d="M130.6,162c-0.1,0-0.2,0-0.2-0.1c-0.5-0.3-1.4-1.6-0.7-8c0-0.3,0.3-0.5,0.6-0.5c0.3,0,0.5,0.3,0.5,0.6
					c-0.4,3.4-0.3,6.6,0.2,7c0.2,0.2,0.3,0.5,0.2,0.7C131,161.9,130.8,162,130.6,162z"/>
			</g>
			<g>
				<path class="st0" d="M160.1,153.3c-0.3,0-0.5-0.2-0.5-0.5c0-0.6,0-1.6,0-2.8c0-4,0-10.6,0-15.6c0-0.3,0.2-0.5,0.5-0.5
					c0,0,0,0,0,0c0.3,0,0.5,0.2,0.5,0.5c0,5,0,11.7,0,15.6c0,1.2,0,2.2,0,2.8C160.6,153.1,160.4,153.3,160.1,153.3z"/>
			</g>
			<g>
				<path class="st0" d="M160.1,131.5C160.1,131.5,160.1,131.5,160.1,131.5c-0.3,0-0.5-0.2-0.5-0.5c0-2.1,0-3.5,0-3.5
					c0-0.3,0.3-0.5,0.5-0.5c0.3,0,0.5,0.2,0.5,0.5c0,0,0,1.4,0,3.5C160.6,131.3,160.4,131.5,160.1,131.5z"/>
			</g>
			<g>
				<path class="st0" d="M165,159.5c-0.3,0-0.5-0.2-0.5-0.5v-3.9c0-0.3,0.2-0.5,0.5-0.5c0.3,0,0.5,0.2,0.5,0.5v3.9
					C165.5,159.3,165.3,159.5,165,159.5z"/>
			</g>
			<g>
				<path class="st0" d="M160.5,176.6c-0.3,0-0.5-0.2-0.5-0.5v-8.1c0-0.3,0.2-0.5,0.5-0.5c0.3,0,0.5,0.2,0.5,0.5v8.1
					C161,176.3,160.8,176.6,160.5,176.6z"/>
			</g>
		</g>
	</g>
</g>
</svg>
