<?xml version="1.0" encoding="utf-8"?>
<!-- Generator: Adobe Illustrator 21.0.2, SVG Export Plug-In . SVG Version: 6.00 Build 0)  -->
<svg version="1.1" id="Layer_1" xmlns="http://www.w3.org/2000/svg" xmlns:xlink="http://www.w3.org/1999/xlink" x="0px" y="0px"
	 viewBox="0 0 200 200" style="enable-background:new 0 0 200 200;" xml:space="preserve">
<style type="text/css">
	.st0{fill:#583B2B;}
	.st1{opacity:0.6;fill:#AA6828;}
	.st2{fill:#AA6828;}
	.st3{fill:#FFFFFF;}
	.st4{fill:#353A42;}
	.st5{fill:#181310;}
	.st6{fill:#432D20;}
	.st7{opacity:0.3;fill:#FFFFFF;}
	.st8{opacity:0.2;fill:#606161;}
	.st9{fill:#A12E25;}
	.st10{opacity:0.4;fill:#A12E25;}
	.st11{fill:#DC383D;}
	.st12{opacity:0.5;fill:#DC383D;}
	.st13{opacity:0.5;}
</style>
<g>
	<g>
		<path class="st0" d="M65.8,30.1c-2.5-4.6-6.4-11.5-7.9-12.8c-2.3-1.9-8.6,16-1.2,21.6C59.4,35.7,62.4,32.7,65.8,30.1z"/>
		<path class="st1" d="M65.8,30.1c-2.5-4.6-6.4-11.5-7.9-12.8c-2.3-1.9-8.6,16-1.2,21.6C59.4,35.7,62.4,32.7,65.8,30.1z"/>
		<path class="st0" d="M140.5,39c7.4-5.6,1-23.5-1.2-21.6c-1.5,1.3-5.5,8.2-7.9,12.8C134.7,32.7,137.8,35.7,140.5,39z"/>
		<path class="st1" d="M140.5,39c7.4-5.6,1-23.5-1.2-21.6c-1.5,1.3-5.5,8.2-7.9,12.8C134.7,32.7,137.8,35.7,140.5,39z"/>
		<path class="st0" d="M98.6,127.3c16.8,0,31.9-7.7,41.8-19.7c7.7-9.3,12.3-21.3,12.3-34.4c0-9.6-2.5-18.6-6.9-26.5
			c11.8-9.8,4.2-44.9-5.7-40.7c-8.4,3.6-15.2,15-17.3,18.7c-7.3-3.6-15.5-5.7-24.2-5.7c-8.7,0-16.9,2.1-24.2,5.7
			c-2.1-3.8-8.9-15.2-17.3-18.7C47.2,1.9,39.5,37,51.4,46.8c-4.4,7.8-6.9,16.8-6.9,26.5c0,13.1,4.6,25,12.3,34.4
			C66.7,119.7,81.7,127.3,98.6,127.3z M116,118.7c-7.9,0-14.5-4.6-16.5-10.8c-1.9,6.2-8.6,10.8-16.5,10.8c-9.4,0-17.1-6.5-17.1-14.6
			c0-8,7.6-14.6,17.1-14.6c0.8,0,1.5,0.1,2.2,0.1c0-0.1,0-0.3,0-0.4c0-4.7,3.9-9.1,14.3-9.1c10.3,0,14.3,4.4,14.3,9.1
			c0,0.1,0,0.3,0,0.4c0.7-0.1,1.5-0.1,2.2-0.1c9.4,0,17.1,6.5,17.1,14.6C133,112.2,125.4,118.7,116,118.7z M139.2,17.4
			c2.3-1.9,8.6,16,1.2,21.6c-2.7-3.3-5.8-6.3-9.2-8.9C133.8,25.6,137.7,18.7,139.2,17.4z M117.4,50.2c6.3-0.2,11.5,4.7,11.8,10.9
			c0.2,6.3-4.7,11.5-11,11.8c-6.3,0.2-11.5-4.7-11.8-11C106.2,55.7,111.1,50.4,117.4,50.2z M57.9,17.4c1.5,1.3,5.5,8.2,7.9,12.8
			c-3.4,2.6-6.5,5.6-9.2,8.9C49.3,33.4,55.6,15.5,57.9,17.4z M60.4,54.1C67.1,38.8,78.8,39,86.7,41.3c9.6,2.8,12.8,15.2,10.4,26.1
			C94.7,78.2,66.3,87.8,60.4,85C54.6,82.2,53.8,69.4,60.4,54.1z"/>
		<path class="st2" d="M60.4,85c5.8,2.8,34.3-6.8,36.7-17.7c2.4-10.8-0.8-23.3-10.4-26.1c-8-2.3-19.6-2.5-26.3,12.8
			C53.8,69.4,54.6,82.2,60.4,85z M79.4,50.2c6.3,0.2,11.2,5.5,10.9,11.8c-0.2,6.3-5.5,11.2-11.8,11c-6.3-0.2-11.2-5.5-11-11.8
			C67.8,54.8,73.1,49.9,79.4,50.2z"/>
		<path class="st3" d="M78.6,72.9c6.3,0.2,11.5-4.7,11.8-11c0.2-6.3-4.7-11.5-10.9-11.8c-6.3-0.2-11.5,4.7-11.8,10.9
			C67.4,67.4,72.3,72.7,78.6,72.9z M80.2,57c3.3,0.8,4.1,3.7,3.2,6.2c-0.5-0.7-1.3-1.3-2.5-1.5c-3.1-0.7-5.5,1.4-6.2,3.8
			C71.8,62.4,74.8,55.7,80.2,57z"/>
		<path class="st4" d="M80.9,61.7c1.1,0.3,1.9,0.8,2.5,1.5c0.9-2.5,0.1-5.4-3.2-6.2c-5.4-1.3-8.4,5.3-5.5,8.4
			C75.4,63.1,77.8,60.9,80.9,61.7z"/>
		<path class="st3" d="M118.2,72.9c6.3-0.2,11.2-5.5,11-11.8c-0.2-6.3-5.5-11.2-11.8-10.9c-6.3,0.2-11.2,5.5-10.9,11.8
			C106.6,68.2,111.9,73.1,118.2,72.9z M116.6,57c5.4-1.3,8.4,5.3,5.5,8.4c-0.7-2.4-3.1-4.5-6.2-3.8c-1.2,0.3-2,0.8-2.5,1.5
			C112.5,60.7,113.3,57.8,116.6,57z"/>
		<path class="st4" d="M115.8,61.7c3.1-0.7,5.5,1.4,6.2,3.8c2.9-3.1-0.1-9.7-5.5-8.4c-3.3,0.8-4.1,3.7-3.2,6.2
			C113.9,62.5,114.7,62,115.8,61.7z"/>
		<path class="st2" d="M116,89.6c-0.8,0-1.5,0.1-2.2,0.1c-0.5,4.8-9.2,14-14.2,14c-5,0-13.7-9.1-14.2-14c-0.7-0.1-1.5-0.1-2.2-0.1
			c-9.4,0-17.1,6.5-17.1,14.6c0,8,7.6,14.6,17.1,14.6c7.9,0,14.5-4.6,16.5-10.8c1.9,6.2,8.6,10.8,16.5,10.8
			c9.4,0,17.1-6.5,17.1-14.6C133,96.1,125.4,89.6,116,89.6z"/>
		<path class="st5" d="M99.5,103.7c5,0,13.7-9.1,14.2-14c0-0.1,0-0.3,0-0.4c0-4.7-3.9-9.1-14.3-9.1c-10.3,0-14.3,4.4-14.3,9.1
			c0,0.1,0,0.3,0,0.4C85.8,94.6,94.5,103.7,99.5,103.7z"/>
		<path class="st6" d="M160.8,92.5c-1.9,14.3-14.4,20.8-19.4,22.9c-0.1-2.7-0.5-5.3-1.1-7.8c-9.9,12.1-25,19.7-41.8,19.7
			c-16.8,0-31.9-7.7-41.8-19.7c-0.7,3.2-1.1,6.5-1.1,9.8c0,9.8,3.1,18.9,8.9,26.1v33.8c0,3.9,3.1,7,6.9,7h7c3.9,0,7.1-3.1,7.1-7v-19
			c3.5,1.3,8.5,2,13.1,2c4.8,0,9.1-0.8,13.8-2.3v19.2c0,3.9,3.1,7,6.9,7h7c3.9,0,7.1-3.1,7.1-7v-34.7c3.5-5.7,6.8-12.4,7.8-19.7
			c6.8-2.4,15.4-7.1,18.9-13.2C165.6,99.8,160.8,92.5,160.8,92.5z"/>
	</g>
	<path class="st7" d="M160.8,92.5c-1.9,14.3-14.4,20.8-19.4,22.9c-0.1-2.7-0.5-5.3-1.1-7.8c7.7-9.3,12.3-21.3,12.3-34.4
		c0-9.6-2.5-18.6-6.9-26.5c11.8-9.8,4.2-44.9-5.7-40.7c-8.4,3.6-15.2,15-17.3,18.7c-7.3-3.6-15.5-5.7-24.2-5.7c-0.1,0-0.1,0-0.2,0
		v141.3c0.1,0,0.1,0,0.2,0c4.8,0,9.5-0.8,13.8-2.3v19.2c0,3.9,3.1,7,7,7h7c3.9,0,7-3.1,7-7v-34.7c4.1-5.7,6.9-12.4,7.8-19.7
		c6.8-2.4,15.4-7.1,18.9-13.2C165.6,99.8,160.8,92.5,160.8,92.5z"/>
</g>
<g>
	<path class="st8" d="M140.2,187.4c-5.4,0-11.1-2.8-15-7.4c-1-1.2-2.9-4.8-2.7-7.3c0.1-1.2,1.6-3.8,3.6-5.2c0.8-0.6,4.4,1.2,6.9,1.2
		c0.6,0,2.3,0,2.7,1.2c0.9,3,4.1,4,6.5,4c2.1,0,4.1-0.8,5.2-2c1.1-1.3,2.4-2.7,1.9-5.9c-0.6-3.5-2.4-5-6.5-5h0c-3,0-4.5,1.2-5.7,2.2
		c-0.9,0.7-1.7,1.4-2.8,1.4l-0.3,0c-1.4,0-2.9,0.1-4.4,0.2c-1.3,0.1-2.6,0.2-3.7,0.2c-0.7,0-1.2,0-1.7-0.1c-1.1-0.1-1.4-1.5-1.6-3.3
		c-0.4-3.5-0.6-10.7-0.3-17.5c0.4-12.6,1.4-13.4,2-13.9c1.3-1.2,2.6-2.6,3.2-2.6c12.3-1,29.2,2.9,29.6,3.2c1.7,1.3,3.8,5.1,2.7,8.3
		c-1,2.8-4.6,5.1-5.5,5.1c-0.1,0-0.2,0-0.2,0c-1.8-0.1-6.8-0.5-11.3-0.5c-5,0-6.5,0.5-6.9,0.7l-0.1,1c-0.1,1.7-0.2,4,0,4.8
		c0,0,0.1,0,0.1-0.1c2.6-1.4,5.7-2.2,8.7-2.2c4,0,7.7,1.4,10.7,4.1c6,5.4,6.6,11.3,5.8,18.5c-0.8,6.3-7,16.5-20.5,16.8L140.2,187.4z
		"/>
	<g>
		<g>
			<path class="st9" d="M141.8,184.8c-5.4,0-11.1-2.8-15-7.4c-1-1.2-2.9-4.8-2.7-7.3c0.1-1.2,1.6-3.8,3.6-5.2
				c0.8-0.6,4.4,1.2,6.9,1.2c0.6,0,2.3,0,2.7,1.2c0.9,3,4.1,4,6.5,4c2.1,0,4.1-0.8,5.2-2c1.1-1.3,2.4-2.7,1.9-5.9
				c-0.6-3.5-2.4-5-6.5-5h0c-3,0-4.5,1.2-5.7,2.2c-0.9,0.7-1.7,1.4-2.8,1.4l-0.3,0c-1.4,0-2.9,0.1-4.4,0.2c-1.3,0.1-2.6,0.2-3.7,0.2
				c-0.7,0-1.2,0-1.7-0.1c-1.1-0.1-1.4-1.5-1.6-3.3c-0.4-3.5-0.6-10.7-0.3-17.5c0.4-12.6,1.4-13.4,2-13.9c1.3-1.2,2.6-2.6,3.2-2.6
				c12.3-1,29.2,2.9,29.6,3.2c1.7,1.3,3.8,5.1,2.7,8.3c-1,2.8-4.6,5.1-5.5,5.1c-0.1,0-0.2,0-0.2,0c-1.8-0.1-6.8-0.5-11.3-0.5
				c-5,0-6.5,0.5-6.9,0.7l-0.1,1c-0.1,1.7-0.2,4,0,4.8c0,0,0.1,0,0.1-0.1c2.6-1.4,5.7-2.2,8.7-2.2c4,0,7.7,1.4,10.7,4.1
				c6,5.4,6.6,11.3,5.8,18.5c-0.8,6.3-7,16.5-20.5,16.8L141.8,184.8z"/>
			<path class="st10" d="M156.9,149.4c-2.3-2.1-5.2-3.4-8.2-3.9c-0.8,0.2-1.6,0.1-2.4-0.2c-2.9,0-6,0.8-8.6,2.2c0,0-0.1,0-0.1,0.1
				c-0.3-0.8-0.1-3.1,0-4.8l0.1-1c0.4-0.2,1.6-0.6,5.6-0.6c0-1.2,0.5-2.5,1.3-3.3c1.7-1.7,3.3-3.4,5.2-4.9c2-1.6,4.5-1.8,6.5,0
				c1.7,1.5,1.9,5,0,6.5c-0.8,0.6-1.6,1.4-2.3,2.1c0.8,0.1,1.5,0.1,2,0.1c0.1,0,0.2,0,0.2,0c0.9,0,4.6-2.2,5.5-5.1
				c1.1-3.2-1.1-7-2.7-8.3c-0.4-0.3-17.3-4.2-29.6-3.2c-0.6,0-1.9,1.4-3.2,2.6c-0.5,0.4-1.2,1-1.7,6.8c0.5-0.2,0.9-0.5,1.4-0.7
				c1.6-0.8,3-2,4.8-2.4c2.4-0.5,5,0.7,5.7,3.2c0.6,2.3-0.8,5.2-3.2,5.7c-0.5,0.1-0.4,0.1-1.1,0.6c-0.7,0.4-1.4,0.8-2.1,1.2
				c-1.7,0.9-3.4,1.6-5,2.5c-0.3,0.1-0.5,0.2-0.8,0.3c-0.1,5.7,0.1,11.2,0.4,14.2c0.2,1.8,0.5,3.1,1.6,3.3c0.5,0.1,1,0.1,1.7,0.1
				c1.1,0,2.4-0.1,3.7-0.2c1.5-0.1,3-0.2,4.4-0.2l0.3,0c1.1,0,1.9-0.7,2.8-1.4c1.1-0.9,2.3-2,4.7-2.2c0.1-0.9,0.6-1.8,1.3-2.3
				c2-1.6,3.3-3.7,5.6-5c2.2-1.3,4.9-0.5,6.3,1.6c1.3,2.1,0.5,5.1-1.6,6.3c-0.1,0.1-0.4,0.3-0.6,0.4c0,0,0,0,0,0
				c-0.3,0.3-0.7,0.7-1,1c-0.7,0.7-1.4,1.5-2.1,2.1c-0.1,0.1-0.3,0.2-0.4,0.3c0,0.2,0.1,0.3,0.1,0.5c0.5,3.1-0.8,4.6-1.9,5.9
				c-1.1,1.3-3.1,2-5.2,2c-2.4,0-5.6-1.1-6.5-4c-0.4-1.2-2.1-1.2-2.7-1.2c-2.6,0-6.1-1.8-6.9-1.2c-2,1.5-3.5,4.1-3.6,5.2
				c-0.2,2.1,1.1,5.1,2.2,6.6c2.2-1.7,4.3-3.5,6.1-5.6c1.6-1.9,4.8-1.7,6.5,0c1.9,1.9,1.6,4.6,0,6.5c-1.6,1.9-3.5,3.5-5.4,5
				c2.7,1.4,5.5,2.1,8.3,2.1l0.4,0c13.5-0.3,19.8-10.5,20.5-16.8C163.5,160.7,162.9,154.8,156.9,149.4z"/>
			<path class="st11" d="M144.3,181.8c-5.4,0-11.1-2.8-15-7.4c-1-1.2-2.9-4.8-2.7-7.3c0.1-1.2,0.6-1.8,1-2.2
				c0.8-0.7,6.9-1.9,9.5-1.9c0.6,0,2.3,0,2.7,1.2c0.9,3,4.1,4,6.5,4c2.1,0,4.1-0.8,5.2-2c1.1-1.3,2.4-2.7,1.9-5.9
				c-0.6-3.5-2.4-5-6.5-5h0c-3,0-4.5,1.2-5.7,2.2c-0.9,0.7-1.7,1.4-2.8,1.4l-0.3,0c-1.4,0-2.9,0.1-4.4,0.2c-1.3,0.1-2.6,0.2-3.7,0.2
				c-0.7,0-1.2,0-1.7-0.1c-1.1-0.1-1.4-1.5-1.6-3.3c-0.4-3.5-0.6-10.7-0.3-17.5c0.4-12.6,1.6-13.1,2.3-13.4
				c2.1-0.8,12.7-1.2,19.3-1.2c11.7,0,12.8,0.9,13.3,1.2c1.7,1.3,1.8,6.9,0.7,10.1c-1,2.8-2.6,3.3-3.6,3.3c-0.1,0-0.2,0-0.2,0
				c-1.8-0.1-6.8-0.5-11.3-0.5c-5,0-6.5,0.5-6.9,0.7l-0.1,1c-0.1,1.7-0.2,4,0,4.8c0,0,0.1,0,0.1-0.1c2.6-1.4,5.7-2.2,8.7-2.2
				c4,0,7.7,1.4,10.7,4.1c6,5.4,6.6,11.3,5.8,18.5c-0.8,6.3-7,16.5-20.5,16.8L144.3,181.8z"/>
			<g>
				<path class="st11" d="M146.5,125.9c11.7,0,12.8,0.9,13.3,1.2c1.7,1.3,1.8,6.9,0.7,10.1c-0.1,0.3-0.2,0.6-0.3,0.8
					c0.7-0.4,1.4-1.3,1.9-2.8c1.1-3.2,0.9-8.8-0.7-10.1c-0.4-0.3-1.6-1.2-13.3-1.2c-6.5,0-17.1,0.4-19.3,1.2
					c-0.4,0.1-0.8,0.3-1.2,1.8C130.3,126.3,140.3,125.9,146.5,125.9z"/>
				<path class="st11" d="M138.2,166.2c0.9,3,4.1,4,6.5,4c2.1,0,4.1-0.8,5.2-2c0.5-0.5,0.9-1,1.3-1.7c-1.2,1.1-3,1.8-5,1.8
					c-2.4,0-5.6-1.1-6.5-4c-0.4-1.2-2.1-1.2-2.7-1.2c-2.6,0-8.7,1.2-9.5,1.9c-0.3,0.3-0.8,0.8-0.9,1.6c1.8-0.7,6.6-1.6,8.8-1.6
					C136.2,165,137.9,165,138.2,166.2z"/>
				<path class="st11" d="M159.5,146.4c-2.9-2.7-6.6-4.1-10.7-4.1c-3,0-6,0.8-8.7,2.2c0,0-0.1,0-0.1,0.1c-0.2-0.7-0.1-2.6,0-4.2
					c-0.9,0.1-1.3,0.3-1.5,0.4l-0.1,1c-0.1,1.7-0.2,4,0,4.8c0,0,0.1,0,0.1-0.1c2.6-1.4,5.7-2.2,8.7-2.2c4,0,7.7,1.4,10.7,4.1
					c6,5.4,6.6,11.3,5.8,18.5c-0.3,2.4-1.4,5.3-3.3,8.1c2.9-3.2,4.5-7.1,4.9-10C166.1,157.7,165.4,151.8,159.5,146.4z"/>
			</g>
			<path class="st12" d="M144.3,180.2c-5,0-10.2-2.6-13.8-6.9c-0.9-1-2.5-4.2-2.3-6.2c0-0.5,0.2-0.8,0.4-1.1
				c0.9-0.5,6.2-1.6,8.5-1.6c1,0,1.2,0.2,1.3,0.2c1.2,3.7,5,5.1,7.9,5.1c2.5,0,4.9-1,6.3-2.6c1.2-1.4,2.9-3.3,2.3-7.1
				c-0.7-4.3-3.2-6.3-8-6.3c-3.6,0-5.5,1.6-6.7,2.6c-0.8,0.7-1.3,1.1-1.8,1.1l-0.3,0c-1.5,0-3,0.1-4.5,0.2c-1.3,0.1-2.6,0.1-3.6,0.1
				c-0.6,0-1,0-1.4-0.1c-0.2-0.4-0.3-1.6-0.4-2c-0.4-3.5-0.5-10.6-0.3-17.2c0.3-9.6,1.1-11.6,1.3-12c0,0,0,0,0,0
				c1.7-0.6,11.2-1.1,18.7-1.1c10.6,0,12.1,0.7,12.3,0.9c0.8,0.6,1.3,5.1,0.2,8.4c-0.3,1-1,2.2-2.1,2.2c0,0-0.1,0-0.1,0
				c-1.7-0.1-6.9-0.5-11.4-0.5c-3.9,0-6.5,0.3-7.6,0.8c-0.5,0.2-0.8,0.7-0.9,1.3l-0.1,1c-0.2,2.5-0.2,4.4,0.1,5.4
				c0.1,0.4,0.4,0.7,0.8,0.9c0.2,0.1,0.4,0.1,0.6,0.1c0.2,0,0.4,0,0.6-0.1c0.1,0,0.2-0.1,0.2-0.1c2.4-1.3,5.2-2,7.9-2
				c3.7,0,7,1.3,9.6,3.7c5.5,5,6.1,10.3,5.3,17.2c-0.7,5.8-6.5,15.2-19.1,15.5L144.3,180.2z"/>
			<path class="st3" d="M140.4,144.4c1.6-0.6,3.1-1.1,4.7-1.6C143.4,143.1,141.8,143.6,140.4,144.4z"/>
			<g class="st13">
				<path class="st3" d="M140,139.7l0-0.8c-4.2,3.4-8.7,6.4-13.7,8.5c0,1,0,2,0.1,2.9c4.5-2,9-4.1,13.6-5.8
					C139.8,143.7,139.9,141.4,140,139.7z"/>
				<path class="st3" d="M143.2,124.1c-6,0.1-12.7,0.5-14.4,1.1c-0.7,0.3-1.8,0.7-2.3,11.9C132.7,133.7,138,128.9,143.2,124.1z"/>
				<path class="st3" d="M161.3,125.2c-0.3-0.2-0.9-0.7-5.1-1c-0.2,0.5-0.6,0.9-1.1,1.3c-4.8,4.3-9.6,8.9-14.7,13
					c0.8-0.2,2.5-0.5,6.5-0.5c4.5,0,9.6,0.4,11.3,0.5c0.1,0,0.2,0,0.2,0c0.9,0,2.6-0.4,3.6-3.3C163.2,132.1,163,126.5,161.3,125.2z"
					/>
				<path class="st3" d="M130.5,175.7c2.6-4.2,4.9-8.5,7.6-12.6c-0.4-0.1-0.8-0.1-1.1-0.1c-2.6,0-8.7,1.2-9.5,1.9
					c-0.4,0.3-0.9,1-1,2.2c-0.2,2.5,1.6,6.1,2.7,7.3C129.7,174.8,130.1,175.3,130.5,175.7z"/>
				<path class="st3" d="M150.2,167.3c-1.1,0.6-2.5,1-3.9,1c-0.2,0-0.4,0-0.6,0c-2.7,4-5,8.3-7.5,12.4c2,0.7,4.1,1.1,6.1,1.1l0.4,0
					c6.7-0.2,11.6-2.7,14.9-6C157,172.5,153.5,170,150.2,167.3z"/>
				<path class="st3" d="M133.8,159.2c1.5-0.1,3-0.2,4.4-0.2l0.3,0c1.1,0,1.9-0.7,2.8-1.4c1.2-1,2.7-2.2,5.7-2.2h0
					c1.6,0,2.9,0.3,3.9,0.8c0.8,0.2,1.6,0.6,2.3,1.3c3.5,3.8,7.8,6.6,11.5,10.1c0.3-0.9,0.5-1.9,0.6-2.7c0.7-6.1,0.4-11.3-3.4-16
					c-0.4,0.1-0.8,0.2-1.2,0.2c-11.3,0.3-21.8,5.5-32,10.2c0.4,0,0.9,0.1,1.6,0.1C131.2,159.4,132.5,159.3,133.8,159.2z"/>
			</g>
		</g>
		<g>
			<g>
				<path class="st3" d="M158,135.6c-0.1,0-0.1,0-0.2,0c-0.3-0.1-0.4-0.4-0.3-0.7c0.3-0.6,0.6-1.5,0.6-3c0-0.3,0.2-0.5,0.5-0.5
					c0.3,0,0.5,0.2,0.5,0.5c0,1.6-0.4,2.7-0.7,3.4C158.4,135.5,158.2,135.6,158,135.6z"/>
			</g>
			<g>
				<path class="st3" d="M157.7,128.8c-0.1,0-0.2,0-0.3-0.1c-1.3-1-10.4-0.7-11.4-0.5c-0.2,0.1-0.5-0.1-0.6-0.3
					c-0.1-0.3,0-0.6,0.3-0.7c0.5-0.2,10.5-0.6,12.2,0.7c0.2,0.2,0.3,0.5,0.1,0.7C158,128.8,157.9,128.8,157.7,128.8z"/>
			</g>
			<g>
				<path class="st3" d="M141.3,172.2c-0.1,0-0.1,0-0.2,0c-3.6-1.3-5-3.3-5.9-5c-0.1-0.2,0-0.6,0.2-0.7c0.2-0.1,0.6,0,0.7,0.2
					c0.8,1.6,2.1,3.3,5.3,4.5c0.3,0.1,0.4,0.4,0.3,0.6C141.7,172,141.5,172.2,141.3,172.2z"/>
			</g>
			<g>
				<path class="st3" d="M151.9,177.1c-0.2,0-0.4-0.1-0.5-0.3c-0.1-0.2,0-0.6,0.2-0.7c5.5-2.9,11.4-8.7,8.7-19.8
					c-0.9-3.5-2.7-6.1-5.5-7.7c-0.2-0.1-0.3-0.5-0.2-0.7c0.1-0.2,0.5-0.3,0.7-0.2c3.1,1.8,5.1,4.6,6,8.4c2.3,9.1-1,16.6-9.2,20.9
					C152.1,177.1,152,177.1,151.9,177.1z"/>
			</g>
			<g>
				<path class="st3" d="M151.9,147.4c0,0-0.1,0-0.1,0c-1.7-0.5-3.1-0.5-3.1-0.5c0,0,0,0,0,0c-0.3,0-0.5-0.2-0.5-0.5
					c0-0.3,0.2-0.5,0.5-0.5c0.1,0,1.5,0,3.4,0.5c0.3,0.1,0.4,0.4,0.4,0.6C152.3,147.3,152.1,147.4,151.9,147.4z"/>
			</g>
			<g>
				<path class="st3" d="M136.6,146.1c-0.3,0-0.5-0.2-0.5-0.5c-0.1-1.5,0-6.8,0-7.1c0-0.3,0.2-0.5,0.5-0.5c0.3,0,0.5,0.2,0.5,0.5
					c0,0.1-0.1,5.6,0,7C137.1,145.9,136.9,146.1,136.6,146.1C136.6,146.1,136.6,146.1,136.6,146.1z"/>
			</g>
		</g>
	</g>
</g>
</svg>
