<?xml version="1.0" encoding="utf-8"?>
<!-- Generator: Adobe Illustrator 21.0.2, SVG Export Plug-In . SVG Version: 6.00 Build 0)  -->
<svg version="1.1" id="Layer_1" xmlns="http://www.w3.org/2000/svg" xmlns:xlink="http://www.w3.org/1999/xlink" x="0px" y="0px"
	 viewBox="0 0 200 200" style="enable-background:new 0 0 200 200;" xml:space="preserve">
<style type="text/css">
	.st0{fill:#3C6372;}
	.st1{fill:#86A0B0;}
	.st2{fill:#6C90A3;}
	.st3{fill:#FDD6BD;}
	.st4{fill:#5A839A;}
	.st5{fill:#FFFFFF;}
	.st6{fill:#353A42;}
	.st7{fill:#526C7A;}
	.st8{opacity:0.3;fill:#FFFFFF;}
	.st9{opacity:0.2;fill:#606161;}
	.st10{fill:#C11E6A;}
	.st11{opacity:0.4;fill:#C11E6A;}
	.st12{fill:#E64494;}
	.st13{opacity:0.5;fill:#E64494;}
	.st14{opacity:0.4;}
</style>
<g>
	<g>
		<path class="st0" d="M57,109.5c-7.9-9.6-12.7-21.9-12.7-35.4c0-20.4,11-38.3,27.4-48c-6.2-2.7-13.5-4.4-21.6-4
			c-30.8,1.4-39.3,46.6-24.4,82.2c6.3,15,18.3,17.7,30.1,15.9c0-0.2,0-0.4,0-0.6C55.9,116.1,56.3,112.7,57,109.5z"/>
		<path class="st1" d="M156,16.3c-17.4-1.1-30.7,2.2-38.5,5c-4.7-1.6-9.7-2.5-14.9-2.8c1.4-1.2,3-2.2,4.6-3.3c0.8-0.5,0.5-2-0.6-1.8
			c-2.8,0.5-5,2.6-6.6,5c0,0,0,0,0,0c-0.5,0-1,0-1.4,0c0.8-2.6,1.8-5.1,3.3-7.5c0.5-0.8-0.5-1.7-1.2-1.1c-2.5,2.3-3.9,5.4-4.1,8.7
			c-0.2,0-0.4,0-0.6,0c-0.8-4.1-0.3-7.8,0.8-12c0.3-1.3-1.3-2.2-2.2-1.1c-2.8,3.9-3.2,9-1.5,13.4c-3.7,0.5-7.2,1.3-10.6,2.4
			c-7.8-2.8-21.2-6.1-38.5-5c-30.8,1.9-39.8,52.4-25.2,92.1c7.7,20.9,24.2,23.1,38.1,20.5c-0.6-2.8-0.9-5.7-1-8.6
			c-11.8,1.8-23.8-0.9-30.1-15.9c-15-35.6-6.4-80.8,24.4-82.2c8.1-0.4,15.4,1.4,21.6,4c-16.4,9.7-27.4,27.5-27.4,48
			c0,13.4,4.8,25.7,12.7,35.4c3.2,3.8,6.8,7.2,10.9,10.1l0,0c0,0,13,15.8,19.1,32.4c1.7,4.6,4.1,8.3,7,11.4
			c4.3,4.4,9.7,7.1,15.4,8.1c7.3,1.3,15-0.3,21.6-4.8c3.1-2.1,6-4.8,8.4-8.2c0.9-1.3,1.8-2.6,2.6-4.1c2.1-3.8,3.7-8.2,4.7-13.2
			c0,0,0.3-2.9-5.9-5c-0.4-0.1-0.9-0.3-1.3-0.4c-9.6-3-10.8,1.3-10.8,1.3s-6.8,13.9-15.2,14c-8.4,0.1-7.1-16.7,7.3-24.7
			c1.7-0.9,3.3-1.9,4.8-2.8c5.5-2.9,10.5-6.6,14.7-11.1c1.3-1.2,1.9-1.9,1.9-1.9l-0.2,0c0.3-0.4,0.6-0.7,0.9-1.1
			c7.9-9.6,12.7-21.9,12.7-35.4c0-20.4-11-38.3-27.4-48c6.2-2.7,13.5-4.4,21.6-4c30.8,1.4,39.3,46.6,24.4,82.2
			c-6.3,15-18.3,17.7-30,15.9c0,2.9-0.4,5.8-1,8.6c13.9,2.6,30.4,0.3,38-20.5C195.9,68.7,186.9,18.2,156,16.3z M77.9,69.6
			C84.1,69.8,89,75,88.8,81.3c-0.2,6.3-5.5,11.1-11.7,10.9c-6.3-0.2-11.1-5.5-10.9-11.7C66.3,74.2,71.6,69.3,77.9,69.6z
			 M131.9,137.3c0.3-0.9,3.4-0.6,7,0.5c3.6,1.1,6.3,2.8,6,3.6c-0.3,0.9-3.4,0.6-7-0.5C134.4,139.8,131.7,138.2,131.9,137.3z
			 M132.4,80.5c0.2,6.3-4.7,11.5-10.9,11.7c-6.3,0.2-11.5-4.7-11.7-10.9c-0.2-6.3,4.7-11.5,10.9-11.7
			C126.9,69.3,132.2,74.2,132.4,80.5z"/>
		<path class="st0" d="M144.2,120.3c11.8,1.8,23.8-1,30-15.9c15-35.6,6.4-80.8-24.4-82.2c-8.1-0.4-15.4,1.4-21.6,4
			c16.4,9.7,27.4,27.5,27.4,48c0,13.4-4.8,25.7-12.7,35.4c0.8,3.3,1.2,6.6,1.2,10.1C144.2,119.8,144.2,120,144.2,120.3z"/>
		<path class="st2" d="M142.9,160.1c1.3,0.4,2.6,0.6,3.9,0.6c2.5,0,5.1-0.8,7.7-2.2c-0.9-0.7-1.7-1.8-2.2-3.6
			c-0.1-0.2-0.1-0.4-0.2-0.6c-2.7,1.6-5.3,2-7.7,1.2c-0.8-0.3-1.5-0.6-2.3-1.1c-0.8,1.4-1.6,2.8-2.6,4.1
			C140.6,159.2,141.7,159.8,142.9,160.1z"/>
		<path class="st1" d="M154.5,158.5c4.5,3.3,12.6-5.8,15.4-11.8c0,0-20.1-2.4-17.7,7.6c0,0.2,0.1,0.4,0.2,0.6
			C152.8,156.7,153.6,157.8,154.5,158.5z"/>
		<path class="st3" d="M78.9,173.7c-4.8,0-9.1,2.5-11.5,6.2c-1.4,2.1-2.2,4.6-2.2,7.3v1.7h27.6v-1.7c0-2.7-1-5.2-2.3-7.3
			C88,176.2,83.7,173.7,78.9,173.7z"/>
		<path class="st4" d="M109.6,171.5v8.1c2.4-3.6,6.5-5.9,11.2-5.9c4.2,0,8,1.9,10.4,4.9v-11.9C124,171.2,116.8,172.8,109.6,171.5z"
			/>
		<path class="st3" d="M120.7,173.7c-4.6,0-8.7,2.3-11.1,5.9c-1.5,2.2-2.4,4.8-2.4,7.7v1.7h27.6v-1.7c0-3.3-1.4-6.3-3.4-8.7
			C128.9,175.6,124.9,173.7,120.7,173.7z"/>
		<path class="st4" d="M144.2,119.6c0-3.5-0.4-6.9-1.2-10.1c-0.3,0.4-0.6,0.7-0.9,1.1l0.2,0c0,0-0.7,0.7-1.9,1.9
			c-4.2,4.5-9.2,8.2-14.7,11.1c-1.5,0.9-3.1,1.9-4.8,2.8c-14.4,8-15.7,24.8-7.3,24.7c8.4-0.1,15.2-14,15.2-14s1.2-4.3,10.8-1.3
			c0.5,0.1,0.9,0.3,1.3,0.4c1-2.3,1.7-4.8,2.2-7.3c0.6-2.8,0.9-5.7,1-8.6C144.2,120,144.2,119.8,144.2,119.6z"/>
		<path class="st4" d="M87.1,152c-6.2-16.7-19.1-32.4-19.1-32.4l0,0c-4.1-2.9-7.8-6.3-10.9-10.1c-0.8,3.3-1.2,6.6-1.2,10.1
			c0,0.2,0,0.4,0,0.6c0,2.9,0.4,5.8,1,8.6c1.7,7.9,5.9,14.9,10.7,20.6V180c2.4-3.8,6.6-6.2,11.4-6.2c4.8,0,9,2.5,11.4,6.2v-17.3
			c1.2,0.3,2.5,0.5,3.8,0.7C91.2,160.4,88.8,156.6,87.1,152z"/>
		<path class="st5" d="M109.8,81.3c0.2,6.3,5.5,11.1,11.7,10.9c6.3-0.2,11.1-5.5,10.9-11.7c-0.2-6.3-5.5-11.1-11.7-10.9
			C114.4,69.8,109.5,75,109.8,81.3z M124.9,81.3c0,0.7-0.3,1.4-0.6,2c-0.7-1.8-2.2-3.3-4.6-3.4c-1.2,0-2.2,0.3-2.9,0.9
			c0.2-2.1,2-3.8,4.2-3.7C123.2,77.2,125,79,124.9,81.3z"/>
		<path class="st6" d="M116.8,80.8c0.7-0.6,1.6-1,2.9-0.9c2.4,0.1,3.9,1.6,4.6,3.4c0.4-0.6,0.6-1.2,0.6-2c0.1-2.2-1.7-4.1-3.9-4.2
			C118.8,77,117,78.6,116.8,80.8z"/>
		<path class="st5" d="M77,92.2c6.3,0.2,11.5-4.7,11.7-10.9C89,75,84.1,69.8,77.9,69.6c-6.3-0.2-11.5,4.7-11.7,10.9
			C65.9,86.7,70.8,92,77,92.2z M77.6,77.1c2.2-0.1,4,1.6,4.2,3.7c-0.7-0.6-1.6-1-2.9-0.9c-2.4,0.1-3.9,1.6-4.6,3.4
			c-0.4-0.6-0.6-1.2-0.6-2C73.6,79,75.3,77.2,77.6,77.1z"/>
		<path class="st6" d="M78.8,79.8c1.2,0,2.2,0.3,2.9,0.9c-0.2-2.1-2-3.8-4.2-3.7c-2.2,0.1-4,2-3.9,4.2c0,0.7,0.3,1.4,0.6,2
			C74.9,81.4,76.5,79.9,78.8,79.8z"/>
		
			<ellipse transform="matrix(0.3029 -0.953 0.953 0.3029 -36.3482 229.1593)" class="st7" cx="138.5" cy="139.4" rx="1.6" ry="6.9"/>
	</g>
	<path class="st8" d="M156,16.3c-17.4-1.1-30.7,2.2-38.5,5c-4.7-1.6-9.7-2.5-14.9-2.8c1.4-1.2,3-2.2,4.6-3.3c0.8-0.5,0.5-2-0.6-1.8
		c-2.8,0.5-5,2.6-6.6,5h0c-0.3,0-0.6,0-0.9,0v148.9c3.2,2.1,6.7,3.4,10.4,4.1v8.1c-1.5,2.2-2.4,4.8-2.4,7.7v1.7h27.6v-1.7
		c0-3.3-1.7-6.3-3.6-8.7v-11.9c3.1-2.1,6-4.8,8.4-8.2c1.1,0.7,2.2,1.2,3.4,1.6c1.3,0.4,2.6,0.6,3.9,0.6c2.5,0,5.1-0.8,7.7-2.2
		c4.5,3.3,12.6-5.8,15.4-11.8c0,0-20.1-2.4-17.7,7.6c-2.7,1.6-5.3,2-7.7,1.2c-0.8-0.3-1.5-0.6-2.3-1.1c2.1-3.8,3.7-8.2,4.7-13.2
		c0,0,0.3-2.9-5.9-5c1-2.3,1.7-4.8,2.2-7.3c13.9,2.6,30.4,0.3,38-20.5C195.9,68.7,186.9,18.2,156,16.3z"/>
</g>
<g>
	<path class="st9" d="M140.5,186.7c-1.1,0-2.1-0.1-3.2-0.2c-4.9-0.7-9.5-3.1-12.9-6.6c-7.6-7.6-9.5-21.7-4.4-32.1
		c2.2-4.5,5.6-8.4,9.9-11.4c5.2-3.6,13.5-6.6,18.3-6.6c0.5,0,0.9,0,1.3,0.1c2.5,0.4,6,3.1,5.8,5.6c-0.2,3.2-3,5.8-4.2,6.1
		c-0.6,0.1-1.3,0.3-1.9,0.4c-3.6,0.8-7.4,1.6-10.5,3.6c-2.6,1.6-4.2,3.6-5.5,6.2c2.2-1.1,4.9-2.1,7.2-2.4c0.6-0.1,1.3-0.1,2-0.1
		c4.1,0,9.7,1.7,12.8,5.3c2.6,3.1,5.7,8.3,3.1,18.3c-1.7,6.4-7.4,12.1-13.6,13.5C143.3,186.5,141.9,186.7,140.5,186.7z M140.9,161.8
		c-3,0-6.4,1.6-8.3,4c-0.4,0.4-0.5,1-0.4,1.7c0.3,1.7,1.7,3.5,2.6,4.1c1.7,1.1,3.6,1.7,5.3,1.7c0,0,0,0,0,0c1.2,0,2.4-0.3,3.4-0.9
		c1.8-1,2.9-3.5,2.8-5.9c-0.1-1-0.5-3.3-2.8-4.2C142.7,162,141.9,161.8,140.9,161.8z"/>
	<g>
		<g>
			<path class="st10" d="M142,184.2c-1.1,0-2.1-0.1-3.2-0.2c-4.9-0.7-9.5-3.1-12.9-6.6c-7.6-7.6-9.5-21.7-4.4-32.1
				c2.2-4.5,5.6-8.4,9.9-11.4c5.2-3.6,13.5-6.6,18.3-6.6c0.5,0,0.9,0,1.3,0.1c2.5,0.4,6,3.1,5.8,5.6c-0.2,3.2-3,5.8-4.2,6.1
				c-0.6,0.1-1.3,0.3-1.9,0.4c-3.6,0.8-7.4,1.6-10.5,3.6c-2.6,1.6-4.2,3.6-5.5,6.2c2.2-1.1,4.9-2.1,7.2-2.4c0.6-0.1,1.3-0.1,2-0.1
				c4.1,0,9.7,1.7,12.8,5.3c2.6,3.1,5.7,8.3,3.1,18.3c-1.7,6.4-7.4,12.1-13.6,13.5C144.8,184,143.4,184.2,142,184.2z M142.5,159.3
				c-3,0-6.4,1.6-8.3,4c-0.4,0.4-0.5,1-0.4,1.7c0.3,1.7,1.7,3.5,2.6,4.1c1.7,1.1,3.6,1.7,5.3,1.7c0,0,0,0,0,0c1.2,0,2.4-0.3,3.4-0.9
				c1.8-1,2.9-3.5,2.8-5.9c-0.1-1-0.5-3.3-2.8-4.2C144.3,159.4,143.4,159.3,142.5,159.3z"/>
			<path class="st11" d="M156.6,152c-3.1-3.7-8.6-5.3-12.8-5.3c-0.7,0-1.4,0-2,0.1c-2.3,0.3-5,1.3-7.2,2.4c1.4-2.5,3-4.5,5.5-6.2
				c3.1-2,6.9-2.8,10.5-3.6c0.6-0.1,1.3-0.3,1.9-0.4c1.2-0.3,4.3-3.4,4.2-6.1c-0.1-2.5-3.4-5.2-5.8-5.6c-0.4-0.1-0.9-0.1-1.3-0.1
				c-4.8,0-13.2,3-18.3,6.6c-4.3,3-7.7,6.9-9.9,11.4c-0.4,0.9-0.8,1.8-1.1,2.7c1.6-1.1,3.3-1.9,5.2-2.3c2.4-0.4,4.9,0.6,5.6,3.2
				c0.6,2.2-0.8,5.2-3.2,5.6c-1.5,0.3-2.5,0.9-3.9,2c-1.4,1-2.7,2.1-4.2,3.1c-0.4,0.2-0.7,0.4-1.1,0.5c0.2,3.8,1.2,7.5,2.7,10.8
				c1.5-1.4,3-2.8,4.6-4.1c1.9-1.6,4.5-1.9,6.4,0c1.6,1.6,1.9,4.9,0,6.4c-2,1.6-3.8,3.3-5.7,5c3.1,2.8,7,4.8,11.2,5.6
				c-0.1-1,0.1-1.9,0.6-2.7c1-1.5,2-3,3.2-4.3c1.8-1.8,4.6-1.6,6.4,0c1.8,1.6,1.7,4.6,0.1,6.3c5.3-2.1,10-7.1,11.5-12.8
				C162.4,160.3,159.2,155.1,156.6,152z M155.6,164.5c-0.1,0.1-0.2,0.1-0.3,0.1c0,0,0,0-0.1,0.1c-0.2,0.2-0.5,0.5-0.7,0.7
				c-0.1,0.1-0.3,0.4-0.4,0.4c-0.2,0.2-0.4,0.5-0.5,0.7c-0.8,1.2-1.6,2.5-2.4,3.7c-1.4,2-3.9,3-6.2,1.6c-0.6-0.3-1.1-0.8-1.4-1.4
				c-0.6,0.1-1.2,0.2-1.8,0.2c0,0,0,0,0,0c-1.7,0-3.6-0.6-5.3-1.7c-0.9-0.6-2.4-2.4-2.6-4.1c-0.1-0.7,0-1.3,0.4-1.7
				c1.9-2.3,5.3-4,8.3-4c0.9,0,1.8,0.2,2.6,0.5c0.7,0.3,1.2,0.6,1.6,1.1c1.2-1.6,2.6-3.1,4.4-4.2c2.1-1.3,5-0.5,6.2,1.6
				C158.5,160.4,157.7,163.2,155.6,164.5z"/>
			<path class="st12" d="M144.5,181.1c-1.1,0-2.1-0.1-3.2-0.2c-4.9-0.7-9.5-3.1-12.9-6.6c-7.6-7.6-9.5-21.7-4.4-32.1
				c2.2-4.5,5.6-8.4,9.9-11.4c5.2-3.6,13.5-6.6,18.3-6.6c0.5,0,0.9,0,1.3,0.1c2.5,0.4,3.2,4.7,3.3,7.2c0.1,2.7-0.5,4.2-1.7,4.5
				c-0.6,0.1-1.3,0.3-1.9,0.4c-3.6,0.8-7.4,1.6-10.5,3.6c-2.6,1.6-4.2,3.6-5.5,6.2c2.2-1.1,4.9-2.1,7.2-2.4c0.6-0.1,1.3-0.1,2-0.1
				c4.1,0,9.7,1.7,12.8,5.3c2.6,3.1,5.7,8.3,3.1,18.3c-1.7,6.4-7.4,12.1-13.6,13.5C147.3,181,145.9,181.1,144.5,181.1z M145,156.3
				c-3,0-6.4,1.6-8.3,4c-0.4,0.4-0.5,1-0.4,1.7c0.3,1.7,1.7,3.5,2.6,4.1c1.7,1.1,3.6,1.7,5.3,1.7c0,0,0,0,0,0c1.2,0,2.4-0.3,3.4-0.9
				c1.8-1,2.9-3.5,2.8-5.9c-0.1-1-0.5-3.3-2.8-4.2C146.8,156.4,145.9,156.3,145,156.3z"/>
			<g>
				<path class="st12" d="M132.4,132.8c5.2-3.6,13.5-6.6,18.3-6.6c0.5,0,0.9,0,1.3,0.1c2.5,0.4,3.2,4.7,3.3,7.2c0,1,0,1.8-0.2,2.5
					c1.2-0.3,1.8-1.8,1.7-4.5c-0.1-2.5-0.9-6.8-3.3-7.2c-0.4-0.1-0.9-0.1-1.3-0.1c-4.8,0-13.2,3-18.3,6.6c-3.1,2.1-5.7,4.8-7.8,7.8
					C127.9,136.4,130,134.5,132.4,132.8z"/>
				<path class="st12" d="M135.2,162.3c-0.4,0.4-0.5,1-0.4,1.7c0.3,1.7,1.7,3.5,2.6,4.1c1.7,1.1,3.6,1.7,5.3,1.7c0,0,0,0,0,0
					c1.2,0,2.4-0.3,3.4-0.9c0.9-0.5,1.6-1.4,2.1-2.4c-0.2,0.2-0.4,0.3-0.6,0.4c-1,0.6-2.1,0.9-3.4,0.9c0,0,0,0,0,0
					c-1.7,0-3.6-0.6-5.3-1.7c-0.9-0.6-2.4-2.4-2.6-4.1c-0.1-0.3-0.1-0.6,0-0.9C135.9,161.4,135.5,161.8,135.2,162.3z"/>
				<path class="st12" d="M159.2,149c-3.1-3.7-8.6-5.3-12.8-5.3c-0.7,0-1.4,0-2,0.1c-2.3,0.3-5,1.3-7.2,2.4c0.3-0.5,0.6-1,0.9-1.5
					c-0.9,1-1.7,2.2-2.4,3.5c2.2-1.1,4.9-2.1,7.2-2.4c0.6-0.1,1.3-0.1,2-0.1c4.1,0,9.7,1.7,12.8,5.3c2.6,3.1,5.7,8.3,3.1,18.3
					c-0.5,1.9-1.3,3.7-2.4,5.3c1.8-2.1,3.2-4.7,3.9-7.3C164.9,157.3,161.7,152.1,159.2,149z"/>
			</g>
			<path class="st13" d="M144.5,179.6c-1,0-2-0.1-3-0.2c-4.5-0.7-8.8-2.9-12.1-6.1c-7.1-7.2-9-20.6-4.1-30.4c2.1-4.3,5.4-8,9.4-10.8
				c4.9-3.4,13-6.3,17.5-6.3c0.4,0,0.8,0,1.1,0.1c1,0.2,2,2.8,2.1,5.8c0.1,2.3-0.4,2.9-0.5,2.9c-0.5,0.1-1.1,0.2-1.6,0.4l-0.3,0.1
				c-3.8,0.8-7.7,1.7-11,3.8c-2.5,1.6-4.4,3.6-6.1,6.7c-0.3,0.6-0.2,1.3,0.2,1.8c0.3,0.3,0.7,0.5,1.1,0.5c0.2,0,0.5-0.1,0.7-0.2
				c2.3-1.2,4.8-2,6.7-2.3c0.6-0.1,1.2-0.1,1.8-0.1c3.8,0,8.8,1.5,11.6,4.8c2.4,2.8,5.2,7.6,2.8,16.9c-1.5,5.9-6.8,11.1-12.5,12.4
				C147.1,179.5,145.8,179.6,144.5,179.6z M145,154.8c-3.5,0-7.3,1.8-9.5,4.5c-0.6,0.8-0.9,1.8-0.7,2.9c0.4,2.2,2.2,4.4,3.3,5.1
				c1.9,1.2,4.1,1.9,6.1,1.9c1.5,0,2.9-0.4,4.1-1.1c2.3-1.3,3.7-4.3,3.5-7.4c-0.2-2.6-1.6-4.6-3.8-5.5
				C147.1,154.9,146.1,154.8,145,154.8z"/>
			<g class="st14">
				<path class="st5" d="M156.9,131.5c-0.1-2.5-0.9-6.8-3.3-7.2c-0.4-0.1-0.9-0.1-1.3-0.1c-2.2,0-5.2,0.6-8.2,1.7
					c3.4,3.5,8.2,5.5,12.8,7.3C156.9,132.7,156.9,132.2,156.9,131.5z"/>
				<path class="st5" d="M128.2,140.7c3.4,4.7,11.5,6.4,16.7,7.8c5.4,1.5,10.8,2.6,16.3,3.4c-0.6-1.2-1.4-2.1-2-2.9
					c-3.1-3.7-8.6-5.3-12.8-5.3c-0.7,0-1.4,0-2,0.1c-2.3,0.3-5,1.3-7.2,2.4c1.4-2.5,3-4.5,5.5-6.2c1.1-0.7,2.3-1.3,3.6-1.7
					c-4.2-2.1-8.1-4.7-11-8.5c-0.5,0.3-1,0.6-1.5,1c-3.2,2.2-5.9,4.9-8,8C126.8,139.2,127.6,139.9,128.2,140.7z"/>
				<path class="st5" d="M150,159.1c0.3,0.7,0.4,1.4,0.4,1.8c0.2,1.9-0.5,3.9-1.7,5.1c4.5,0.1,8.9,0.7,13.2,2.5
					c0.1-0.4,0.3-0.9,0.4-1.3c0.6-2.2,0.9-4.1,0.9-5.9C158.8,160.8,154.3,160,150,159.1z"/>
				<path class="st5" d="M139.8,166.5c-0.3-0.1-0.5-0.3-0.8-0.5c-0.9-0.6-2.4-2.4-2.6-4.1c-0.1-0.7,0-1.3,0.4-1.7
					c1.2-1.4,2.9-2.6,4.7-3.3c-0.2-0.1-0.4-0.1-0.7-0.2c-6.7-1.9-13.8-4.2-18.7-9.4c-1.9,7.3-0.9,15.6,2.6,21.9
					c3.9-1.7,8.7-2,12.7-2.5C138.1,166.7,138.9,166.6,139.8,166.5z"/>
				<path class="st5" d="M138.5,175.7c-2.5,0.3-4.5,0.5-6.9,1c-0.1,0-0.3,0.1-0.4,0.1c3,2.1,6.4,3.6,10,4.1c1.1,0.2,2.2,0.2,3.2,0.2
					c1.4,0,2.8-0.2,4.1-0.4c3-0.7,5.8-2.3,8.1-4.5C151,174.1,144.4,175,138.5,175.7z"/>
			</g>
		</g>
		<g>
			<g>
				<path class="st5" d="M148.4,135.7c-0.2,0-0.4-0.1-0.5-0.4c-0.1-0.3,0.1-0.5,0.3-0.6c0.8-0.2,1.5-0.4,2-0.6
					c2.7-0.8,2.7-0.8,2.3-2.3c-0.1-0.3,0.1-0.5,0.4-0.6c0.3-0.1,0.5,0.1,0.6,0.4c0.6,2.5-0.1,2.8-3,3.6c-0.6,0.2-1.2,0.3-2,0.6
					C148.5,135.7,148.4,135.7,148.4,135.7z"/>
			</g>
			<g>
				<path class="st5" d="M152.3,129.9c-0.2,0-0.4-0.1-0.5-0.3c-0.3-1-0.7-1.8-0.7-1.8c-0.1-0.3,0-0.6,0.3-0.7c0.3-0.1,0.6,0,0.7,0.3
					c0,0,0.3,0.8,0.7,1.8c0.1,0.3-0.1,0.5-0.3,0.6C152.4,129.9,152.3,129.9,152.3,129.9z"/>
			</g>
			<g>
				<path class="st5" d="M156.9,172c-0.1,0-0.2,0-0.3-0.1c-0.2-0.1-0.3-0.4-0.2-0.7c1.7-2.9,5-10.4-0.9-18.7
					c-0.2-0.3-0.4-0.6-0.7-0.8c-0.2-0.2-0.2-0.5,0-0.7c0.2-0.2,0.5-0.2,0.7,0c0.3,0.3,0.5,0.6,0.7,0.9c6.2,8.7,2.7,16.7,0.9,19.8
					C157.2,171.9,157.1,172,156.9,172z"/>
			</g>
			<g>
				<path class="st5" d="M140.1,149.3c-0.2,0-0.4-0.1-0.5-0.4c-0.1-0.3,0.1-0.5,0.3-0.6c0.2-0.1,5.9-1.8,11.1-0.1
					c0.3,0.1,0.4,0.4,0.3,0.6c-0.1,0.3-0.4,0.4-0.6,0.3c-4.8-1.6-10.4,0.1-10.5,0.1C140.2,149.3,140.1,149.3,140.1,149.3z"/>
			</g>
			<g>
				<path class="st5" d="M143.4,172c-0.3,0-0.5-0.2-0.5-0.5c0-0.3,0.2-0.5,0.5-0.5c1.2-0.1,2.5-0.4,3.8-1c0.3-0.1,0.6,0,0.7,0.3
					c0.1,0.3,0,0.6-0.3,0.7C146.1,171.5,144.8,171.8,143.4,172C143.4,172,143.4,172,143.4,172z"/>
			</g>
			<g>
				<path class="st5" d="M139.5,171.6c0,0-0.1,0-0.1,0c-3.1-0.9-5.7-3.4-6.6-6.4c-0.8-2.7-0.4-5.4,1.3-7.5c0.2-0.2,0.5-0.3,0.7-0.1
					c0.2,0.2,0.3,0.5,0.1,0.7c-1.4,1.9-1.8,4.3-1.1,6.6c0.9,2.7,3.2,4.9,6,5.8c0.3,0.1,0.4,0.4,0.3,0.6
					C139.9,171.4,139.7,171.6,139.5,171.6z"/>
			</g>
		</g>
	</g>
</g>
</svg>
