<?xml version="1.0" encoding="utf-8"?>
<!-- Generator: Adobe Illustrator 21.0.2, SVG Export Plug-In . SVG Version: 6.00 Build 0)  -->
<svg version="1.1" id="Layer_1" xmlns="http://www.w3.org/2000/svg" xmlns:xlink="http://www.w3.org/1999/xlink" x="0px" y="0px"
	 viewBox="0 0 200 200" style="enable-background:new 0 0 200 200;" xml:space="preserve">
<style type="text/css">
	.st0{fill:#FDBA12;}
	.st1{fill:#FFFFFF;}
	.st2{fill:#D75228;}
	.st3{fill:#353A42;}
	.st4{fill:#CF7228;}
	.st5{opacity:0.3;fill:#FFFFFF;}
	.st6{opacity:0.2;fill:#606161;}
	.st7{fill:#F37421;}
	.st8{opacity:0.3;fill:#F37421;}
	.st9{fill:#F99B1C;}
	.st10{opacity:0.5;fill:#F99B1C;}
	.st11{opacity:0.4;}
</style>
<g>
	<g>
		<path class="st0" d="M100.1,167.9c-1.4,0-3.1-0.1-4.2-0.3v11.8c0,0-14.5-1.5-14.7,3.3c-0.2,4.8,19,0.7,19,0.7s19.3,4,19.1-0.7
			c-0.2-4.8-14.6-3.3-14.6-3.3v-11.9C103.6,167.8,101.6,167.9,100.1,167.9z"/>
		<path class="st1" d="M131.3,121.2c-0.6-1.4-1.3-2.8-2-4.1c12.8-9.1,21.1-24.1,21.1-41c0-25.9-19.6-47.2-44.7-50
			c-2.3,2.1-5.3,3.9-8.6,4.8c0,0-1.1-2-1.9-4.9C69.6,28.5,49.7,50,49.7,76.1c0,16.9,8.3,31.8,21.1,41c-0.8,1.3-1.5,2.7-2,4.1
			c-3,2.6-6.6,6.7-9.7,12.8c-6.5,12.6-7.6,26.4,4.3,20.1c0,0,1,10.2,9.3,5.1c0.9-0.5,1.6-1.4,2.1-2.6c5.3,6,12.8,10.1,21.1,11.1
			c1.4,0.2,2.8,0.3,4.2,0.3c1.6,0,3.1-0.1,4.6-0.3c8.2-1.1,15.4-5.2,20.6-11c0.6,1.1,1.3,2,2.1,2.6c8.3,5.2,9.3-5.1,9.3-5.1
			c11.9,6.4,10.8-7.5,4.3-20.1C137.9,127.9,134.3,123.8,131.3,121.2z M100.6,138.9c-11.2,0-20.3-9.1-20.3-20.3c0-4,1.2-7.7,3.2-10.9
			c-1.8,0.7-3.8,1.1-5.8,1.1c-8.6,0-15.6-7-15.6-15.6c0-6.8,4.4-12.6,10.5-14.7c-3.7-2.8-6.1-7.3-6.1-12.4c0-8.6,7-15.6,15.6-15.6
			c8.6,0,15.6,7,15.6,15.6c0,2.1-0.4,4.1-1.2,6c1-0.2,2-0.3,3.1-0.3c1.4,0,2.8,0.2,4.1,0.5c-0.8-1.9-1.3-4-1.3-6.2
			c0-8.6,7-15.6,15.6-15.6c8.6,0,15.6,7,15.6,15.6c0,5.1-2.4,9.5-6.1,12.4c6.1,2.1,10.5,7.9,10.5,14.7c0,8.6-7,15.6-15.6,15.6
			c-1.5,0-3-0.2-4.3-0.6c1.8,3,2.9,6.6,2.9,10.4C120.8,129.8,111.8,138.9,100.6,138.9z"/>
		<path class="st2" d="M120.8,118.6c0-3.8-1.1-7.3-2.9-10.4c1.4,0.4,2.8,0.6,4.3,0.6c8.6,0,15.6-7,15.6-15.6
			c0-6.8-4.4-12.6-10.5-14.7c3.7-2.8,6.1-7.3,6.1-12.4c0-8.6-7-15.6-15.6-15.6c-8.6,0-15.6,7-15.6,15.6c0,2.2,0.5,4.3,1.3,6.2
			c-1.3-0.3-2.7-0.5-4.1-0.5c-1.1,0-2.1,0.1-3.1,0.3c0.8-1.8,1.2-3.9,1.2-6c0-8.6-7-15.6-15.6-15.6c-8.6,0-15.6,7-15.6,15.6
			c0,5.1,2.4,9.5,6.1,12.4c-6.1,2.1-10.5,7.9-10.5,14.7c0,8.6,7,15.6,15.6,15.6c2.1,0,4-0.4,5.8-1.1c-2,3.1-3.2,6.9-3.2,10.9
			c0,11.2,9.1,20.3,20.3,20.3C111.8,138.9,120.8,129.8,120.8,118.6z M114.5,64c3.7-1.2,7.6,0.8,8.8,4.4c1.2,3.7-0.8,7.6-4.4,8.8
			c-3.7,1.2-7.6-0.8-8.8-4.4C108.9,69.1,110.8,65.2,114.5,64z M100.5,80.7c0,0,6.5,7.3,13.2,7.3c4.5,0,5.4,3.1,4.9,5.3
			c-0.7,3.6-16,13.8-18.1,17.9c-2.2-4.1-17.4-14.3-18.1-17.9c-0.4-2.2,0.4-5.3,4.9-5.3C94,88,100.5,80.7,100.5,80.7z M77.1,68.4
			c1.2-3.7,5.2-5.6,8.8-4.4c3.7,1.2,5.6,5.2,4.4,8.8c-1.2,3.7-5.2,5.6-8.8,4.4C77.9,76,75.9,72,77.1,68.4z"/>
		<path class="st1" d="M81.5,77.2c3.7,1.2,7.6-0.8,8.8-4.4c1.2-3.7-0.8-7.6-4.4-8.8c-3.7-1.2-7.6,0.8-8.8,4.4
			C75.9,72,77.9,76,81.5,77.2z M79.6,69.2c0.8-2.3,3.3-3.6,5.6-2.8c2.3,0.8,3.6,3.3,2.8,5.6c-0.1,0.3-0.2,0.6-0.4,0.8
			c-0.5-0.8-1.3-1.5-2.5-1.9c-2.2-0.7-4.1,0-5.4,1.3C79.3,71.3,79.2,70.2,79.6,69.2z"/>
		<path class="st3" d="M85.1,70.9c1.2,0.4,2,1.1,2.5,1.9c0.1-0.3,0.3-0.5,0.4-0.8c0.8-2.3-0.5-4.8-2.8-5.6c-2.3-0.8-4.8,0.5-5.6,2.8
			c-0.3,1-0.3,2.1,0.1,3C81,70.9,82.9,70.2,85.1,70.9z"/>
		<path class="st1" d="M118.9,77.2c3.7-1.2,5.6-5.2,4.4-8.8c-1.2-3.7-5.2-5.6-8.8-4.4c-3.7,1.2-5.6,5.2-4.4,8.8
			C111.3,76.4,115.2,78.4,118.9,77.2z M115.3,66.4c2.3-0.8,4.8,0.5,5.6,2.8c0.3,1,0.3,2.1-0.1,3c-1.3-1.3-3.3-2-5.4-1.3
			c-1.2,0.4-2,1.1-2.5,1.9c-0.1-0.3-0.3-0.5-0.4-0.8C111.8,69.7,113,67.2,115.3,66.4z"/>
		<path class="st3" d="M112.9,72.8c0.5-0.8,1.3-1.5,2.5-1.9c2.2-0.7,4.1,0,5.4,1.3c0.4-0.9,0.4-2,0.1-3c-0.8-2.3-3.3-3.6-5.6-2.8
			c-2.3,0.8-3.6,3.3-2.8,5.6C112.6,72.3,112.7,72.5,112.9,72.8z"/>
		<path class="st0" d="M87.3,88c-4.5,0-5.4,3.1-4.9,5.3c0.7,3.6,16,13.8,18.1,17.9c2.2-4.1,17.4-14.3,18.1-17.9
			c0.4-2.2-0.4-5.3-4.9-5.3c-6.7,0-13.2-7.3-13.2-7.3S94,88,87.3,88z M110.1,90.6c1.6,1.3-0.7,3.8-3,3.8
			C107.2,91.4,108.5,89.3,110.1,90.6z M90.8,90.6c1.6-1.3,3,0.8,3,3.8C91.5,94.4,89.2,91.9,90.8,90.6z"/>
		<path class="st4" d="M90.8,90.6c-1.6,1.3,0.7,3.8,3,3.8C93.8,91.4,92.5,89.3,90.8,90.6z"/>
		<path class="st4" d="M110.1,90.6c-1.6-1.3-3,0.8-3,3.8C109.5,94.4,111.8,91.9,110.1,90.6z"/>
		<path class="st2" d="M105.6,26.1c3.3-3,4.9-6.5,3.3-8.1c-2.1-2.2-3.9-0.9-4.6-0.3c5.4-5.6,1-18-6.7-9.1c-4.8,5.6-4,12.7-2.6,17.4
			c0.9,2.9,1.9,4.9,1.9,4.9C100.3,30,103.4,28.2,105.6,26.1z"/>
	</g>
	<path class="st5" d="M131.3,121.2c-0.6-1.4-1.3-2.8-2-4.1c12.8-9.1,21.1-24.1,21.1-41c0-25.9-19.6-47.2-44.7-50
		c3.3-3,4.9-6.5,3.3-8.1c-2.1-2.2-3.9-0.9-4.6-0.3c4.7-5,1.9-15.2-4.1-11.4v177.2c0,0,19.3,4,19.1-0.7c-0.2-4.8-14.7-3.3-14.7-3.3
		v-11.9c8.2-1.1,15.4-5.2,20.6-11c0.6,1.1,1.3,2,2.1,2.6c8.3,5.2,9.3-5.1,9.3-5.1c11.9,6.4,10.8-7.5,4.3-20.1
		C137.9,127.9,134.3,123.8,131.3,121.2z"/>
</g>
<g>
	<path class="st6" d="M132.7,186.8c-11,0-12.3-1.4-12.6-1.9c-1.6-2.8,0.1-4.4,11.1-21.5c4.6-7.2,10.2-16.4,11.2-19.2
		c-0.7-0.1-2.2-0.2-5.4-0.2c-1.5,0-3.1,0-4.7,0c-1.7,0-3.4,0-5,0c-7.1,0-8.6-0.4-9.2-1.4c-0.5-0.8-2.5-8.5-0.5-12.1
		c0.7-1.3,3.5-4.2,5.1-4.7c0,0-0.2,2.8,1.1,2.8c2.8,0,7,0,11.5-0.1c5.2,0,10.8-0.1,14.9-0.1c2,0,3.7,0,4.9,0c0.7,0,1.4,0.3,1.9,0.9
		c2.3,2.6,1.4,11,1.1,13.5c-0.3,2.5-8.5,19.4-10.1,22.8c-3.2,6.5-5.5,14.1-7.3,17.1c-1.2,2.2-3.8,3.7-4.2,3.8
		C136.1,186.8,134.7,186.8,132.7,186.8z"/>
	<g>
		<g>
			<path class="st7" d="M134.3,184.2c-11,0-12.3-1.4-12.6-1.9c-1.6-2.8,0.1-4.4,11.1-21.5c4.6-7.2,10.2-16.4,11.2-19.2
				c-0.7-0.1-2.2-0.2-5.4-0.2c-1.5,0-3.1,0-4.7,0c-1.7,0-3.4,0-5,0c-7.1,0-8.6-0.4-9.2-1.4c-0.5-0.8-2.5-8.5-0.5-12.1
				c0.7-1.3,3.5-4.2,5.1-4.7c0,0-0.2,2.8,1.1,2.8c2.8,0,7,0,11.5-0.1c5.2,0,10.8-0.1,14.9-0.1c2,0,3.7,0,4.9,0
				c0.7,0,1.4,0.3,1.9,0.9c2.3,2.6,1.4,11,1.1,13.5c-0.3,2.5-8.5,19.4-10.1,22.8c-3.2,6.5-5.5,14.1-7.3,17.1
				c-1.2,2.2-3.8,3.7-4.2,3.8C137.6,184.2,136.3,184.2,134.3,184.2z"/>
			<g>
				<path class="st8" d="M158.7,126.9c-0.5-0.6-1.2-0.9-1.9-0.9c-1.2,0-2.9,0-4.9,0c-4.2,0-9.7,0-14.9,0.1c-4.5,0-8.8,0.1-11.5,0.1
					c-1.3,0-1.1-2.8-1.1-2.8c-1.6,0.6-4.4,3.5-5.1,4.7c-0.6,1-0.8,2.4-0.9,3.8c1.8-1.3,3.6-2.4,5.6-3.3c2.3-1,5-0.7,6.4,1.7
					c1.2,2,0.6,5.4-1.7,6.4c-2.6,1.1-4.9,2.8-7.1,4.5c1.3,0.3,3.5,0.4,7.3,0.4c0.5,0,1,0,1.6,0c0.2-0.5,0.6-0.9,1-1.4
					c3.6-3.5,6.5-7.8,10.4-10.9c2-1.6,4.7-2,6.6,0c1.7,1.7,2,5.1,0,6.6c-2.1,1.7-3.9,3.7-5.6,5.7c0.5,0,0.9,0.1,1.1,0.1
					c-0.3,0.7-0.8,1.9-1.6,3.3c1.5-0.4,3.1-0.7,4.6-1c2.5-0.4,5,0.6,5.8,3.3c0.6,2.2-0.8,5.4-3.3,5.8c-5,0.7-9.7,2.5-14.4,4.1
					c-0.8,1.3-1.6,2.5-2.4,3.7c-1.7,2.6-3.1,4.8-4.4,6.8c1-0.3,2-0.6,3-1c4.2-1.4,6.6,3,5.4,6.3c2.8,0.7,5,3.7,3.2,6.9
					c-0.9,1.5-1.8,2.9-2.9,4.3c0.5,0,0.8-0.1,1.1-0.1c0.4-0.1,2.9-1.6,4.2-3.8c1.7-3,4.1-10.5,7.3-17.1c1.6-3.4,9.8-20.3,10.1-22.8
					C160.2,137.9,161,129.5,158.7,126.9z"/>
				<path class="st8" d="M121.7,182.4c0.2,0.3,0.8,0.9,4,1.4c1.8-2.3,3.7-4.6,5.3-7.1c-3.3,1-6.6,1.9-9.7,3.4
					C121.1,181,121.3,181.6,121.7,182.4z"/>
			</g>
			<path class="st9" d="M137.7,181.1c-11,0-11.4-1.1-11.6-1.5c-0.5-1.2,0.4-3.2,10.5-20.9c4.2-7.4,9.9-17.3,10.9-20.2
				c-0.7-0.1-2.2-0.2-5.4-0.2c-1.5,0-3.1,0-4.7,0c-1.7,0-3.4,0-5,0c-7.1,0-8.6-0.4-9.2-1.4c-0.5-0.8-2.5-8.5-0.5-12.1
				c0.7-1.3,1.8-1.9,3.2-1.9l0.2,0c0.5,0,1.5,0,2.8,0c2.8,0,7,0,11.5-0.1c5.2,0,10.8-0.1,14.9-0.1c2,0,3.7,0,4.9,0
				c0.7,0,1.4,0.3,1.9,0.9c2.3,2.6,1.4,11,1.1,13.5c-0.3,2.5-8.5,19.4-10.1,22.8c-10,20.5-10.9,20.7-11.4,20.8
				C141,181,139.7,181.1,137.7,181.1z"/>
			<path class="st9" d="M162.1,123.7c-0.5-0.6-1.2-0.9-1.9-0.9c-1.2,0-2.9,0-4.9,0c-4.2,0-9.7,0-14.9,0.1c-4.5,0-8.8,0.1-11.5,0.1
				c-1.3,0-2.3,0-2.8,0l-0.2,0c-1.4,0-2.5,0.7-3.2,1.9c-0.1,0.1-0.2,0.3-0.2,0.5c0.6-0.4,1.3-0.6,2-0.6l0.2,0c0.5,0,1.5,0,2.8,0
				c2.8,0,7,0,11.5-0.1c5.2,0,10.8-0.1,14.9-0.1c2,0,3.7,0,4.9,0c0.7,0,1.4,0.3,1.9,0.9c2.3,2.6,1.4,11,1.1,13.5
				c-0.3,2.5-8.5,19.4-10.1,22.8c-5.7,11.6-8.4,16.7-9.8,19c0.7-0.3,2.4-2.5,11.2-20.8c1.6-3.4,9.8-20.3,10.1-22.8
				C163.5,134.7,164.4,126.4,162.1,123.7z"/>
			<path class="st10" d="M137.7,179.5c-7.2,0-9.4-0.5-10.1-0.7c0.4-1.8,4.7-9.5,10.4-19.4c4.4-7.8,9.9-17.4,11-20.4
				c0.2-0.4,0.1-0.9-0.1-1.3c-0.2-0.4-0.6-0.7-1.1-0.7c-1-0.2-2.9-0.2-5.6-0.2c-1.5,0-3.1,0-4.7,0l-0.2,0c-1.6,0-3.3,0-4.8,0
				c-6.5,0-7.7-0.4-7.8-0.7c-0.5-0.9-2.1-7.7-0.5-10.6c0.4-0.8,1-1.1,1.9-1.1l0.2,0c0.4,0,1.3,0,2.8,0c2.8,0,7,0,11.5-0.1l0.5,0
				c5.1,0,10.4-0.1,14.5-0.1c2.2,0,3.8,0,4.9,0c0.3,0,0.5,0.1,0.8,0.4c1.2,1.4,1.5,6.3,0.8,12.3c-0.2,1.4-4.3,10.6-10,22.3
				c-7.6,15.6-9.9,19.3-10.5,20C140.8,179.5,139.8,179.5,137.7,179.5z"/>
			<g class="st11">
				<path class="st1" d="M126,122.9l-0.2,0c-1.4,0-2.5,0.7-3.2,1.9c-1.1,1.9-1,5-0.7,7.5c2-3.1,3.9-6.2,5.7-9.4
					C126.9,122.9,126.4,122.9,126,122.9z"/>
				<path class="st1" d="M137.3,138.3c0.1,0,0.2,0,0.3,0c2.4-2.9,5.2-5.4,8.5-7.7c3-2.2,6.3-4.1,9.5-5.9c1.1-0.7,2.3-1.3,3.4-1.9
					c-1,0-2.3,0-3.7,0c-4.2,0-9.7,0-14.9,0.1c-0.6,0-1.3,0-1.9,0c-2.9,5.3-6,10.4-9.2,15.5c0.9,0,1.9,0,3,0
					C133.9,138.4,135.6,138.3,137.3,138.3z"/>
				<path class="st1" d="M136.8,158.2c-0.1,0.2-0.2,0.3-0.3,0.5c-0.7,1.3-1.4,2.5-2.1,3.6c4.5,2.9,8.4,6.6,12.3,10.4
					c1.5-3,3.6-7,6.3-12.6c0.1-0.3,0.3-0.6,0.5-1.1C148.4,157.3,142.4,157.7,136.8,158.2z"/>
				<path class="st1" d="M126.1,179.6c0.2,0.5,0.6,1.5,11.6,1.5c2,0,3.3-0.1,4-0.2c0.1,0,0.1,0,0.2-0.1c-3.8-3.7-7.6-7.4-11.9-10.3
					C126.1,177.5,125.7,178.8,126.1,179.6z"/>
				<path class="st1" d="M163.6,130.7c-1.5,0.8-3,1.8-4.4,2.6c-2.7,1.5-5.3,3.1-7.9,4.9c-2.6,1.8-5,3.9-7,6.4
					c-0.7,1.2-1.4,2.5-2.1,3.9c5.2-0.1,10.4,0.3,15.4,2c2.6-5.7,5.4-11.9,5.6-13.3C163.4,136,163.7,133.4,163.6,130.7z"/>
			</g>
		</g>
		<g>
			<g>
				<path class="st1" d="M142.2,175c-0.1,0-0.2,0-0.2-0.1c-0.3-0.1-0.4-0.4-0.2-0.7c0.1-0.2,7.7-16,12.6-26.8
					c0.1-0.3,0.4-0.4,0.7-0.3c0.3,0.1,0.4,0.4,0.3,0.7c-4.9,10.8-12.6,26.7-12.6,26.8C142.6,174.9,142.4,175,142.2,175z"/>
			</g>
			<g>
				<path class="st1" d="M157,143.4c-0.1,0-0.1,0-0.2,0c-0.3-0.1-0.4-0.4-0.3-0.7c1.5-3.4,1.9-4.6,1.9-5c1-5.4-0.2-10.7-0.3-10.7
					c-0.1-0.3,0.1-0.6,0.4-0.6c0.3-0.1,0.6,0.1,0.6,0.4c0.1,0.2,1.3,5.6,0.3,11.1c-0.1,0.7-0.8,2.4-2,5.2
					C157.4,143.3,157.2,143.4,157,143.4z"/>
			</g>
			<g>
				<path class="st1" d="M126.1,136c-0.1,0-0.2,0-0.3-0.1c-1.2-0.9-1.2-7.6-1.1-7.9c0.1-0.3,0.4-0.4,0.7-0.3
					c0.3,0.1,0.4,0.4,0.3,0.6c-0.2,0.8,0.1,6.1,0.7,6.7c0.2,0.2,0.3,0.5,0.1,0.7C126.4,135.9,126.2,136,126.1,136z"/>
			</g>
		</g>
	</g>
</g>
</svg>
