<?xml version="1.0" encoding="utf-8"?>
<!-- Generator: Adobe Illustrator 21.0.2, SVG Export Plug-In . SVG Version: 6.00 Build 0)  -->
<svg version="1.1" id="Layer_1" xmlns="http://www.w3.org/2000/svg" xmlns:xlink="http://www.w3.org/1999/xlink" x="0px" y="0px"
	 viewBox="0 0 200 200" style="enable-background:new 0 0 200 200;" xml:space="preserve">
<style type="text/css">
	.st0{fill:#E37B28;}
	.st1{fill:#875429;}
	.st2{fill:#FDBA12;}
	.st3{fill:#BA6B28;}
	.st4{fill:#FFFFFF;}
	.st5{fill:#353A42;}
	.st6{fill:#583B2B;}
	.st7{fill:#FDD6BD;}
	.st8{opacity:0.3;fill:#FFFFFF;}
	.st9{opacity:0.2;fill:#606161;}
	.st10{fill:#0E9D49;}
	.st11{opacity:0.3;fill:#0E9D49;}
	.st12{fill:#21B24B;}
	.st13{opacity:0.5;fill:#21B24B;}
	.st14{opacity:0.4;}
</style>
<g>
	<g>
		<path class="st0" d="M148.3,153.5c-0.1-0.2-0.1-0.4-0.2-0.6c-2.6,1.5-5.1,1.9-7.4,1.2c-3.1-1-6-4.1-8.3-8.8
			c-1,1.3-2.1,2.6-3.3,3.7c2.7,4.9,6.2,8.2,10.1,9.5c1.2,0.4,2.5,0.6,3.7,0.6c2.4,0,4.9-0.7,7.4-2.1
			C149.6,156.3,148.9,155.2,148.3,153.5z"/>
		<path class="st1" d="M148.2,152.9c0,0.2,0.1,0.4,0.2,0.6c0.5,1.7,1.3,2.8,2.1,3.4c4.3,3.2,12-5.6,14.7-11.3
			C165.1,145.6,145.9,143.4,148.2,152.9z"/>
		<path class="st2" d="M133.9,143.3c-10.2,7.8-22.4,12.4-35.7,12.4c-13.2,0-25.5-4.6-35.6-12.4c1.4,2,2.4,3.9,4.7,5.6v28.7
			c0-2.4,1.9-4.3,4.2-4.3h0.6c1.3,0,2.4,0.5,3.2,1.4c0.8-0.9,1.9-1.4,3.2-1.4H79c1,0,1.9,0.3,2.6,0.9c0.7-0.5,1.6-0.9,2.6-0.9h0.6
			c2.4,0,4.4,1.9,4.4,4.3v-16.6c3.5,0.6,6,1,9.2,1c3.2,0,5.8-0.4,9.2-1v13.7c1.2-0.9,1.8-1.4,3.1-1.4h0.6c1.3,0,2.4,0.5,3.2,1.4
			c0.8-0.9,1.9-1.4,3.2-1.4h0.6c1,0,1.9,0.3,2.6,0.9c0.7-0.5,1.6-0.9,2.6-0.9h0.6c2.4,0,4.4,1.9,4.4,4.3V150c0-0.3,0.6-0.6,1-1
			c1.2-1.2,2.2-2.4,3.2-3.7C133,144.7,133.4,144,133.9,143.3z"/>
		<path class="st2" d="M67.2,183.7L67.2,183.7c0-0.3,0-0.6,0-0.9V183.7z"/>
		<path class="st2" d="M89.1,183.7v-0.9C89.1,183.1,89.1,183.4,89.1,183.7L89.1,183.7z"/>
		<path class="st2" d="M128.2,183.7v-0.9C128.2,183.1,128.2,183.4,128.2,183.7L128.2,183.7z"/>
		<path class="st1" d="M71.2,38.2c2.5-1.8,5.3-3.4,8.1-4.6c1.2,3.2,3.7,6.8,8.5,9c10.3,4.6,12.1,15.1,7.5,17.6
			c0,0,19.2-8.6,22.3-26.4c2.7,1.2,5.2,2.7,7.6,4.4c3.9-5.2,9.1-9.6,14.6-8.4c-9.6-9.5-21.8-15.7-35.1-17.2c-1.9-0.5-4-0.7-6.4-0.7
			c-3.8,0-6.9,0.4-9.5,1.2c-12.2,2.1-23.2,8.1-32.1,16.8C62.1,28.6,67.3,33,71.2,38.2z"/>
		<path class="st1" d="M98.2,155.7c13.2,0,25.5-4.6,35.7-12.4c16.7-12.9,27.7-34.7,27.7-59.3c0-15.7-4.4-30.1-11.9-41.9
			c0.2,6.2-5.5,10.9-9.6,13.6c3,6.2,4.7,13.1,4.7,20.4c0,1.3-0.1,2.5-0.2,3.8c0,0.1,0,0.1,0,0.2c-0.3,3.7-1.1,7.3-2.2,10.7
			c0,0.1-0.1,0.2-0.1,0.2c-6.2,18.4-23.6,31.6-44.1,31.6S60.4,109.4,54.1,91c0-0.1-0.1-0.2-0.1-0.2c-0.3-0.9-0.6-1.8-0.8-2.7
			c0,0,0,0,0,0c0,0,0,0,0,0c-0.7-2.6-1.2-5.3-1.4-8c0-0.1,0-0.1,0-0.2c-0.1-1.3-0.2-2.5-0.2-3.8c0-7.3,1.7-14.2,4.7-20.4
			c-4.1-2.7-9.8-7.5-9.6-13.6C39.3,53.9,34.9,68.4,34.9,84c0,24.7,11,46.4,27.7,59.3C72.7,151.2,85,155.7,98.2,155.7z"/>
		<path class="st3" d="M136.9,50.2c6-3.7,7.7-8.2,3.3-11.1c-2.8-1.9-6.4,0.2-9.8,3.4C132.9,44.8,135.1,47.4,136.9,50.2z"/>
		<path class="st2" d="M56.4,55.7c-3,6.2-4.7,13.1-4.7,20.4c0,1.3,0.1,2.5,0.2,3.8c-0.1-0.9-0.1-1.9-0.1-2.8l16.4,2.9l-15.9,3
			C52,82,51.9,81,51.9,80.1c0.2,2.7,0.7,5.4,1.4,8c4.2-0.5,13.5-1.8,13.5-1.8l-11.7,7.4c-0.3-0.9-0.7-1.7-1-2.6
			c6.2,18.4,23.6,31.6,44.1,31.6s37.9-13.2,44.1-31.6c-0.3,0.9-0.6,1.8-1,2.6l-11.7-7.4c0,0,9.4,1.3,13.5,1.8
			c-0.2,0.9-0.5,1.8-0.8,2.7c1.1-3.4,1.9-7,2.2-10.7c-0.1,0.9-0.2,1.9-0.3,2.8l-15.9-3l16.4-2.9c0,1-0.1,1.9-0.1,2.8
			c0.1-1.3,0.2-2.5,0.2-3.8c0-7.3-1.7-14.2-4.7-20.4c4.1-2.7,9.8-7.5,9.6-13.6c-0.1-2.2-0.9-4.6-2.8-7.1c-2.3-3.1-4.7-4.6-7.1-5.2
			c-5.4-1.2-10.7,3.2-14.6,8.4c-2.4-1.7-4.9-3.2-7.6-4.4c-3,17.8-22.3,26.4-22.3,26.4c4.6-2.5,2.9-13-7.5-17.6
			c-4.8-2.2-7.3-5.8-8.5-9c-2.9,1.3-5.6,2.8-8.1,4.6c-3.9-5.2-9.1-9.6-14.5-8.4c-2.4,0.5-4.8,2.1-7.1,5.2c-2,2.6-2.8,4.9-2.8,7.2
			C46.6,48.3,52.3,53,56.4,55.7z M51.9,71.8c0.2-1.7,0.4-3.3,0.7-4.9c3.8,1.8,17.8,8.5,17.8,8.5L51.9,71.8z M122.5,97.5
			c0,5.7-4.7,10.3-10.3,10.3H110c-2,3.3-5.4,5.8-9.2,5.8h-4.2c-4.2,0-7.8-3-9.7-6.9h-1.7c-5.6,0-10-5.2-10-10.7v-1
			c0-5.5,4.4-9.1,10-9.1h1c0.4-3.5,3.7-6.5,11.4-6.5c7.7,0,11,3.1,11.4,6.5h3c5.7,0,10.3,4.6,10.3,10.3V97.5z M144.6,71.8l-18.5,3.6
			c0,0,14-6.7,17.8-8.5C144.2,68.5,144.4,70.1,144.6,71.8z M140.2,39.1c4.4,2.9,2.7,7.5-3.3,11.1c-1.9-2.8-4-5.4-6.5-7.7
			C133.8,39.3,137.4,37.2,140.2,39.1z M112.1,66.2c3.3-0.1,6,2.4,6.2,5.7c0.1,3.3-2.4,6-5.7,6.2c-3.3,0.1-6-2.4-6.2-5.7
			C106.2,69.1,108.8,66.4,112.1,66.2z M89.1,72.4c-0.1,3.3-2.9,5.8-6.2,5.7c-3.3-0.1-5.8-2.9-5.7-6.2c0.1-3.3,2.9-5.8,6.2-5.7
			C86.7,66.4,89.2,69.1,89.1,72.4z M66,42.5c-2.4,2.3-4.6,4.9-6.5,7.7c-6-3.7-7.7-8.2-3.3-11.1C59,37.2,62.6,39.3,66,42.5z"/>
		<path class="st3" d="M59.5,50.2c1.9-2.8,4-5.4,6.5-7.7c-3.4-3.2-7-5.3-9.8-3.5C51.8,42,53.5,46.5,59.5,50.2z"/>
		<path class="st2" d="M54.1,90.8c-0.3-0.9-0.6-1.8-0.8-2.7C53.5,89,53.8,89.9,54.1,90.8z"/>
		<path class="st0" d="M66.8,86.3c0,0-9.4,1.3-13.5,1.8c0,0,0,0,0,0c0,0,0,0,0,0c0.2,0.9,0.5,1.8,0.8,2.7c0,0.1,0.1,0.2,0.1,0.2
			c0.3,0.9,0.6,1.8,1,2.6L66.8,86.3z"/>
		<path class="st0" d="M68.1,79.9l-16.4-2.9c0,1,0.1,1.9,0.1,2.8c0,0.1,0,0.1,0,0.2c0.1,0.9,0.2,1.9,0.3,2.8L68.1,79.9z"/>
		<path class="st0" d="M52.6,66.9c-0.3,1.6-0.6,3.2-0.7,4.9l18.5,3.6C70.4,75.4,56.4,68.7,52.6,66.9z"/>
		<path class="st0" d="M129.7,86.3l11.7,7.4c0.3-0.9,0.7-1.7,1-2.6c0-0.1,0.1-0.2,0.1-0.2c0.3-0.9,0.6-1.8,0.8-2.7
			C139.1,87.6,129.7,86.3,129.7,86.3z"/>
		<path class="st0" d="M128.4,79.9l15.9,3c0.1-0.9,0.2-1.9,0.3-2.8c0-0.1,0-0.1,0-0.2c0.1-0.9,0.1-1.9,0.1-2.8L128.4,79.9z"/>
		<path class="st0" d="M144.6,71.8c-0.2-1.7-0.4-3.3-0.7-4.9c-3.8,1.8-17.8,8.5-17.8,8.5L144.6,71.8z"/>
		<path class="st4" d="M77.2,71.9c-0.1,3.3,2.4,6,5.7,6.2c3.3,0.1,6-2.4,6.2-5.7c0.1-3.3-2.4-6-5.7-6.2
			C80.1,66.1,77.4,68.6,77.2,71.9z M83.6,68.5c2,0.1,3.6,1.9,3.4,3.9c0,0.3-0.1,0.5-0.1,0.8c-0.5-0.6-1.3-0.9-2.4-1
			c-1.9-0.1-3.4,0.9-4.2,2.2c-0.5-0.7-0.8-1.5-0.7-2.4C79.8,69.9,81.6,68.3,83.6,68.5z"/>
		<path class="st5" d="M84.6,72.1c1.1,0.1,1.9,0.5,2.4,1c0.1-0.2,0.1-0.5,0.1-0.8c0.1-2-1.4-3.8-3.4-3.9c-2-0.1-3.8,1.4-3.9,3.4
			c-0.1,0.9,0.2,1.8,0.7,2.4C81.2,73,82.6,72,84.6,72.1z"/>
		<path class="st4" d="M112.6,78.1c3.3-0.1,5.8-2.9,5.7-6.2c-0.1-3.3-2.9-5.8-6.2-5.7c-3.3,0.1-5.8,2.9-5.7,6.2
			C106.5,75.7,109.3,78.2,112.6,78.1z M112.8,68.5c2-0.1,3.8,1.4,3.9,3.4c0.1,0.9-0.2,1.8-0.7,2.4c-0.8-1.3-2.2-2.3-4.1-2.2
			c-1.1,0.1-1.9,0.5-2.4,1c-0.1-0.2-0.1-0.5-0.1-0.8C109.3,70.4,110.8,68.6,112.8,68.5z"/>
		<path class="st5" d="M111.9,72.1c1.9-0.1,3.4,0.9,4.1,2.2c0.5-0.7,0.8-1.5,0.7-2.4c-0.1-2-1.9-3.6-3.9-3.4c-2,0.1-3.6,1.9-3.4,3.9
			c0,0.3,0.1,0.5,0.1,0.8C110.1,72.6,110.9,72.2,111.9,72.1z"/>
		<path class="st3" d="M112.2,85.9h-3c0,0.3,0.1,0.5,0.1,0.8c0,3.8-7.3,11.6-11.5,11.6c-4.2,0-11.5-7.8-11.5-11.6
			c0-0.3,0-0.5,0.1-0.8h-1c-5.6,0-10,3.6-10,9.1v1c0,5.5,4.4,10.7,10,10.7H87c1.9,3.9,5.5,6.9,9.7,6.9h4.2c3.8,0,7.1-2.4,9.2-5.8
			h2.1c5.7,0,10.3-4.6,10.3-10.3v-1.3C122.5,90.5,117.8,85.9,112.2,85.9z"/>
		<path class="st6" d="M97.7,98.3c4.2,0,11.5-7.8,11.5-11.6c0-0.3,0-0.5-0.1-0.8c-0.4-3.5-3.7-6.5-11.4-6.5c-7.7,0-11,3.1-11.4,6.5
			c0,0.3-0.1,0.5-0.1,0.8C86.3,90.5,93.6,98.3,97.7,98.3z"/>
		<path class="st7" d="M84.8,173.3h-0.6c-1,0-1.9,0.3-2.6,0.9c-0.7-0.5-1.6-0.9-2.6-0.9h-0.6c-1.3,0-2.4,0.5-3.2,1.4
			c-0.8-0.9-1.9-1.4-3.2-1.4h-0.6c-2.4,0-4.2,1.9-4.2,4.3v5.2c0,0.3,0,0.6,0.1,0.9c0.4,2,2.1,3.5,4.2,3.5h0.6c1.3,0,2.4-0.5,3.2-1.4
			c0.8,0.9,1.9,1.4,3.2,1.4H79c1,0,1.9-0.3,2.6-0.9c0.7,0.5,1.6,0.9,2.6,0.9h0.6c2.1,0,3.9-1.5,4.3-3.5c0.1-0.3,0.1-0.6,0.1-0.9
			v-5.2C89.1,175.3,87.2,173.3,84.8,173.3z"/>
		<path class="st7" d="M123.9,173.3h-0.6c-1,0-1.9,0.3-2.6,0.9c-0.7-0.5-1.6-0.9-2.6-0.9h-0.6c-1.3,0-2.4,0.5-3.2,1.4
			c-0.8-0.9-1.9-1.4-3.2-1.4h-0.6c-1.3,0-2.3,0.5-3.1,1.4c-0.7,0.8-1.1,1.8-1.1,2.9v5.2c0,2.4,1.9,4.3,4.2,4.3h0.6
			c1.3,0,2.4-0.5,3.2-1.4c0.8,0.9,1.9,1.4,3.2,1.4h0.6c1,0,1.9-0.3,2.6-0.9c0.7,0.5,1.6,0.9,2.6,0.9h0.6c2.1,0,3.9-1.5,4.3-3.5
			c0.1-0.3,0.1-0.6,0.1-0.9v-5.2C128.3,175.3,126.3,173.3,123.9,173.3z"/>
	</g>
	<path class="st8" d="M148.2,152.9c-2.6,1.5-5.1,1.9-7.4,1.2c-3.1-1-6-4.1-8.3-8.8c0.5-0.6,1-1.3,1.5-2
		c16.7-12.9,27.7-34.7,27.7-59.3c0-15.7-4.4-30.1-11.9-41.9c-0.1-2.2-0.9-4.6-2.8-7.1c-2.3-3.1-4.7-4.6-7.1-5.2
		c-9.6-9.5-21.8-15.7-35.1-17.2c-1.9-0.5-4-0.7-6.4-0.7v150.2c3.2,0,6.2-0.4,9.2-1v13.7c-0.7,0.8-1.2,1.8-1.2,2.9v5.2
		c0,2.4,1.9,4.3,4.3,4.3h0.6c1.3,0,2.4-0.5,3.2-1.4c0.8,0.9,1.9,1.4,3.2,1.4h0.6c1,0,1.9-0.3,2.6-0.9c0.7,0.5,1.6,0.9,2.6,0.9h0.6
		c2.1,0,3.8-1.5,4.2-3.5h0.1V150c0.3-0.3,0.7-0.6,1-1c2.7,4.9,6.2,8.2,10.1,9.5c1.2,0.4,2.5,0.6,3.7,0.6c2.4,0,4.9-0.7,7.4-2.1
		c4.3,3.2,12-5.6,14.7-11.3C165.1,145.6,145.9,143.4,148.2,152.9z"/>
</g>
<g>
	<path class="st9" d="M143.3,187.2c-4.5,0-9.1-1-12.4-2.7c-5.1-2.6-8-8.1-7.6-14.2c0.4-5.6,3.5-10.4,8.3-12.9c-3-2.1-6.2-5.6-7.1-10
		c-1.5-7.1,1.2-12.7,8.3-17.6c3.3-2.3,7.9-0.5,11.6-0.5c4.6,0,8.7,1.2,12.3,3.4c4.3,2.8,6.1,6.9,5.5,12.9c-0.5,4.9-4.5,8.6-8.2,11.2
		c5,1.9,9.9,7.4,9.9,13.8C163.8,178.2,158.4,187.2,143.3,187.2z M143.7,164.3c-1.3,0-2.5,0.6-3.6,1.7c-1.2,1.3-1.8,2.9-1.6,4.3
		c0.2,1.3,0.9,2.4,2.2,3.2c0.7,0.5,1.8,0.7,3.1,0.7c0,0,0,0,0,0c2.4,0,4.7-0.9,5.7-2.3c0.6-0.9,0.7-1.8,0.3-3
		C148.9,166.5,146.1,164.4,143.7,164.3v-1.1V164.3z M144.1,141.6c-2.3,0-5.1,0.7-6.2,2.7c-0.3,0.6-0.4,1.5-0.1,2.5
		c0.3,1.2,2.5,3.8,6,4.1c0.1,0,0.2,0,0.3,0c2.2,0,4.6-2.4,5.4-4.6c0.7-2,0.3-3.1-1.7-4C146.9,141.8,145.6,141.6,144.1,141.6z"/>
	<g>
		<g>
			<path class="st10" d="M144.8,184.7c-4.5,0-9.1-1-12.4-2.7c-5.1-2.6-8-8.1-7.6-14.2c0.4-5.6,3.5-10.4,8.3-12.9
				c-3-2.1-6.2-5.6-7.1-10c-1.5-7.1,1.2-12.7,8.3-17.6c3.3-2.3,7.9-0.5,11.6-0.5c4.6,0,8.7,1.2,12.3,3.4c4.3,2.8,6.1,6.9,5.5,12.9
				c-0.5,4.9-4.5,8.6-8.2,11.2c5,1.9,9.9,7.4,9.9,13.8C165.2,175.8,159.9,184.7,144.8,184.7z M145.2,161.9c-1.3,0-2.5,0.6-3.6,1.7
				c-1.2,1.3-1.8,2.9-1.6,4.3c0.2,1.3,0.9,2.4,2.2,3.2c0.7,0.5,1.8,0.7,3.1,0.7c0,0,0,0,0,0c2.4,0,4.7-0.9,5.7-2.3
				c0.6-0.9,0.7-1.8,0.3-3C150.4,164.1,147.6,162,145.2,161.9v-1.1V161.9z M145.6,139.2c-2.3,0-5.1,0.7-6.2,2.7
				c-0.3,0.6-0.4,1.5-0.1,2.5c0.3,1.2,2.5,3.8,6,4.1c0.1,0,0.2,0,0.3,0c2.2,0,4.6-2.4,5.4-4.6c0.7-2,0.3-3.1-1.7-4
				C148.4,139.4,147,139.2,145.6,139.2z"/>
			<path class="st11" d="M157.7,170.2c0.3-2.3,1.8-4.3,4.3-4.3c1.1,0,2.3,0.5,3.1,1.3c-0.5-6-5.2-11-9.9-12.8
				c3.7-2.6,7.7-6.3,8.2-11.2c0.6-6-1.1-10.1-5.5-12.9c-3.5-2.3-7.6-3.4-12.3-3.4c-3.6,0-8.2-1.8-11.6,0.5c-2.1,1.5-3.8,3-5.1,4.6
				c0.8-0.4,1.5-0.8,2.4-1.2c2.2-0.9,4.8,1,5.3,3c0.7,2.5-0.9,4.4-3,5.3c-2.9,1.2-5.4,3.8-7.9,5.7c0,0,0,0.1,0,0.1
				c0.9,4.4,4.1,7.9,7.1,10c-2.8,1.4-5,3.6-6.4,6.3c0,0,0,0,0.1,0c1.9-1.4,4.9-0.3,5.9,1.6c1.3,2.2,0.3,4.5-1.6,5.9
				c-2,1.5-3.8,3.3-5.6,5.1c1,3.1,3,5.7,5.7,7.5c1.3-2,2.7-3.9,4.3-5.7c1.6-1.7,4.5-1.6,6.1,0c1.7,1.7,1.6,4.4,0,6.1
				c-0.7,0.8-1.4,1.6-2,2.5c1.7,0.3,3.5,0.4,5.2,0.4c3.7,0,6.8-0.5,9.3-1.4C155.3,178.9,157.2,174.7,157.7,170.2z M139.4,141.8
				c1.1-2,3.9-2.7,6.2-2.7c1.4,0,2.8,0.3,3.7,0.7c0,0,0,0,0,0c1.3-1.1,2.6-2.3,3.9-3.4c1.8-1.6,4.3-1.7,6.1,0c1.6,1.5,1.7,4.7,0,6.1
				c-1.7,1.5-3.4,3-5.1,4.5c-1.8,1.5-4.1,1.7-5.9,0.2c-0.9,0.7-1.9,1.1-2.8,1.1c-0.1,0-0.2,0-0.3,0c-3.5-0.3-5.7-2.8-6-4.1
				C139.1,143.3,139.1,142.4,139.4,141.8z M145.3,171.8C145.3,171.8,145.3,171.8,145.3,171.8c-1.2,0-2.3-0.3-3.1-0.7
				c-1.3-0.8-2.1-1.9-2.2-3.2c-0.2-1.4,0.4-3,1.6-4.3c1.1-1.1,2.3-1.7,3.6-1.7v-1.1l0,1.1c2.4,0,5.2,2.2,6,4.6
				c0.4,1.2,0.3,2.2-0.3,3C150,170.9,147.7,171.8,145.3,171.8z"/>
			<path class="st12" d="M147.2,181.9c-4.5,0-9.1-1-12.4-2.7c-5.1-2.6-8-8.1-7.6-14.2c0.4-5.6,3.5-10.4,8.3-12.9
				c-3-2.1-6.2-5.6-7.1-10c-1.5-7.1,1.9-13.6,8.4-16c3.8-1.4,7.8-2.2,11.4-2.2c4.6,0,8.7,1.2,12.3,3.4c4.3,2.8,6.1,6.9,5.5,12.9
				c-0.5,4.9-2.8,8.9-6.5,11.5c5,1.9,8.2,7,8.2,13.4C167.6,172.9,162.3,181.9,147.2,181.9z M147.6,159.1c-1.3,0-2.5,0.6-3.6,1.7
				c-1.2,1.3-1.8,2.9-1.6,4.3c0.2,1.3,0.9,2.4,2.2,3.2c0.7,0.5,1.8,0.7,3.1,0.7c0,0,0,0,0,0c2.4,0,4.7-0.9,5.7-2.3
				c0.6-0.9,0.7-1.8,0.3-3C152.8,161.2,150,159.1,147.6,159.1V158V159.1z M148,136.3c-2.3,0-5.1,0.7-6.2,2.7
				c-0.3,0.6-0.4,1.5-0.1,2.5c0.3,1.2,2.5,3.8,6,4.1c0.1,0,0.2,0,0.3,0c2.2,0,4.6-2.4,5.4-4.6c0.7-2,0.3-3.1-1.7-4
				C150.8,136.5,149.4,136.3,148,136.3z"/>
			<g>
				<path class="st12" d="M142.7,162.3c-1.2,1.3-1.8,2.9-1.6,4.3c0.2,1.3,0.9,2.4,2.2,3.2c0.7,0.5,1.8,0.7,3.1,0.7c0,0,0,0,0,0
					c2.4,0,4.7-0.9,5.7-2.3c0.1-0.2,0.2-0.4,0.3-0.6c-1.2,0.8-2.9,1.3-4.7,1.3c0,0,0,0,0,0c-1.2,0-2.3-0.3-3.1-0.7
					c-1.3-0.8-2.1-1.9-2.2-3.2c-0.1-1.1,0.1-2.2,0.8-3.2C143,162,142.9,162.1,142.7,162.3z"/>
				<path class="st12" d="M135.5,127.7c3.8-1.4,7.8-2.2,11.4-2.2c4.6,0,8.7,1.2,12.3,3.4c4.3,2.8,6.1,6.9,5.5,12.9
					c-0.3,3.1-1.3,5.8-2.9,8c2.4-2.5,3.8-5.8,4.2-9.6c0.6-6-1.1-10.1-5.5-12.9c-3.5-2.3-7.6-3.4-12.3-3.4c-3.6,0-7.6,0.7-11.4,2.2
					c-2.7,1-4.8,2.7-6.3,4.8C131.8,129.5,133.5,128.4,135.5,127.7z"/>
				<path class="st12" d="M167.6,165.3c0-6.2-3.1-11.3-7.8-13.3c-0.5,0.5-1.1,0.9-1.7,1.4c5,1.9,8.2,7,8.2,13.4c0,3.1-0.9,6.4-3,9.3
					C166.4,173,167.6,169,167.6,165.3z"/>
				<path class="st12" d="M140.5,140.5c-0.3,0.6-0.4,1.5-0.1,2.5c0.3,1.2,2.5,3.8,6,4.1c0.1,0,0.2,0,0.3,0c1.7,0,3.6-1.4,4.7-3.1
					c-1,0.9-2.2,1.6-3.4,1.6c-0.1,0-0.2,0-0.3,0c-3.5-0.3-5.7-2.8-6-4.1c-0.3-0.9-0.3-1.7,0-2.3C141.2,139.5,140.8,140,140.5,140.5z
					"/>
			</g>
			<path class="st13" d="M147.2,180.4c-4.3,0-8.6-0.9-11.8-2.6c-4.6-2.4-7.2-7.3-6.9-12.8c0.3-5.1,3.1-9.4,7.5-11.7
				c0.5-0.2,0.7-0.7,0.8-1.2c0-0.5-0.2-1-0.6-1.3c-1.6-1.1-5.5-4.3-6.5-9.1c-1.3-6.4,1.7-12.2,7.5-14.3c3.7-1.4,7.5-2.1,10.9-2.1
				c4.3,0,8.2,1.1,11.5,3.2c3.9,2.5,5.4,6.1,4.8,11.5c-0.4,4.5-2.5,8.1-5.9,10.5c-0.4,0.3-0.7,0.8-0.6,1.4c0.1,0.5,0.4,1,0.9,1.2
				c4.4,1.7,7.3,6.4,7.3,12.1c0,3.9-1.5,7.5-4.1,10.1C158.7,178.7,153.6,180.4,147.2,180.4z M143,159.7c-1.5,1.6-2.2,3.6-2,5.5
				c0.2,1.7,1.2,3.2,2.9,4.2c1,0.6,2.3,0.9,3.8,0.9c2.9,0,5.6-1.1,6.8-2.9c0.9-1.2,1-2.7,0.5-4.3c-0.9-2.5-3.4-4.7-6-5.3
				C146.7,157.4,143.9,158.8,143,159.7z M148,134.8c-1.3,0-5.6,0.2-7.4,3.4c-0.5,1-0.6,2.2-0.2,3.6c0.5,1.9,3.4,4.8,7.3,5.1
				c0.1,0,0.3,0,0.4,0c2.9,0,5.8-2.9,6.8-5.5c1-2.7,0.2-4.5-2.4-5.8C151.2,135.1,149.6,134.8,148,134.8z"/>
			<g class="st14">
				<path class="st4" d="M148.2,124c-3.6,0-7.6,0.7-11.4,2.2c-4.9,1.8-8.1,6-8.7,11c8.7-2.2,17.1-6.6,23.5-12.9
					C150.5,124.1,149.3,124,148.2,124z"/>
				<path class="st4" d="M151.7,137c1.1,0.5,1.7,1.1,1.9,1.8c0.1,0.1,0.2,0.1,0.3,0.2c3.2,2.5,7.2,3.9,11.3,4.8
					c0.3-1.1,0.6-2.3,0.7-3.5c0.6-6-1.1-10.1-5.5-12.9c-2.9,3.4-6.3,6.5-10.1,9.1C150.8,136.6,151.3,136.8,151.7,137z"/>
				<path class="st4" d="M148.3,145.5c-0.1,0-0.2,0-0.3,0c-0.1,0-0.2,0-0.3,0c-3.5-0.3-5.7-2.8-6-4.1c0,0,0,0,0,0
					c-3.9,1.9-8.1,3.3-12.2,4.3c1.4,2.7,3.5,4.8,5.6,6.3c2,0,3.9,0.1,5.9,0.2c7.2,0.4,14.3,0.4,21.4,1.5c-1-0.8-2-1.4-3.2-1.8
					c0.2-0.2,0.5-0.3,0.7-0.5C155.9,150.1,151.9,148.3,148.3,145.5z"/>
				<path class="st4" d="M143.3,167.6c0.2,0,0.3,0,0.5,0c-0.8-0.7-1.3-1.6-1.4-2.6c-0.2-1.4,0.3-2.8,1.4-4c-0.6,0-1.3-0.1-1.9-0.1
					c-4.5-0.2-9.4-0.7-14,0c-0.4,1.3-0.7,2.6-0.8,4.1c-0.1,1.8,0.1,3.5,0.5,5.1C132.6,168.2,137.9,167.3,143.3,167.6z"/>
				<path class="st4" d="M167.5,162.7c-0.7,0.3-1.6,0.4-2.6,0.2c-4.2-0.9-8.4-1.3-12.7-1.6c0.6,0.7,1.1,1.5,1.4,2.3
					c0.4,1.2,0.3,2.2-0.3,3c-0.6,0.8-1.6,1.4-2.8,1.8c5.2,1,10.2,2.7,15,4.7c1.4-2.5,2-5.2,2-7.8
					C167.6,164.4,167.6,163.6,167.5,162.7z"/>
				<path class="st4" d="M132.4,177.6c0.7,0.6,1.5,1.1,2.3,1.5c3.4,1.7,7.9,2.7,12.4,2.7c4.6,0,8.3-0.8,11.2-2.2
					c-4.6-1.7-9.4-3-14.3-3.3C140,176,136.1,176.5,132.4,177.6z"/>
			</g>
		</g>
		<g>
			<g>
				<path class="st4" d="M158,149.7c-0.1,0-0.2,0-0.3-0.1c-0.2-0.2-0.2-0.5-0.1-0.7c0.2-0.3,0.5-0.6,0.9-0.9c1.5-1.5,4-3.9,3.6-9.6
					c-0.2-2.7-1.3-5-3.3-6.7c-0.2-0.2-0.2-0.5-0.1-0.7c0.2-0.2,0.5-0.2,0.7-0.1c2.2,1.9,3.4,4.4,3.6,7.4c0.4,6.2-2.3,8.8-3.9,10.4
					c-0.3,0.3-0.6,0.6-0.8,0.8C158.3,149.6,158.1,149.7,158,149.7z"/>
			</g>
			<g>
				<path class="st4" d="M154.2,129.1c-0.1,0-0.1,0-0.2,0c-3.4-1.1-7-1.3-8.2-1.1c-0.3,0-0.5-0.2-0.5-0.4c0-0.3,0.2-0.5,0.4-0.5
					c1-0.1,4.8-0.1,8.6,1.2c0.3,0.1,0.4,0.4,0.3,0.6C154.6,128.9,154.4,129.1,154.2,129.1z"/>
			</g>
			<g>
				<path class="st4" d="M140.3,146.3c-0.1,0-0.2,0-0.3-0.1c-2.2-1.3-3.1-4.9-1.9-7.3c0.1-0.2,0.4-0.3,0.6-0.2
					c0.2,0.1,0.3,0.4,0.2,0.6c-0.9,2-0.2,5,1.6,6c0.2,0.1,0.3,0.4,0.2,0.7C140.6,146.3,140.4,146.3,140.3,146.3z"/>
			</g>
			<g>
				<path class="st4" d="M156.3,177.6c-0.2,0-0.3-0.1-0.4-0.2c-0.1-0.2-0.1-0.5,0.2-0.7l0.2-0.1c3-1.9,8-5,7.3-11.9
					c-0.2-2.2-0.9-4.1-2.2-5.7c-0.2-0.2-0.1-0.5,0.1-0.7c0.2-0.2,0.5-0.1,0.7,0.1c1.3,1.8,2.1,3.9,2.4,6.2c0.7,7.5-4.8,11-7.8,12.8
					l-0.2,0.1C156.5,177.6,156.4,177.6,156.3,177.6z"/>
			</g>
			<g>
				<path class="st4" d="M159.2,156.6c-0.1,0-0.2,0-0.3-0.1c-1.9-1.4-3.9-2.1-4.9-2.4c-0.3-0.1-0.4-0.3-0.3-0.6
					c0.1-0.3,0.3-0.4,0.6-0.3c1.1,0.3,3.1,1,5.2,2.5c0.2,0.2,0.3,0.5,0.1,0.7C159.5,156.5,159.4,156.6,159.2,156.6z"/>
			</g>
			<g>
				<path class="st4" d="M145.3,172.3C145.3,172.3,145.3,172.3,145.3,172.3c-1.4-0.2-2.5-0.5-3.4-0.9c-0.2-0.1-0.3-0.4-0.2-0.6
					c0.1-0.2,0.4-0.3,0.6-0.2c0.8,0.4,1.9,0.7,3.1,0.8c0.3,0,0.4,0.3,0.4,0.5C145.7,172.1,145.5,172.3,145.3,172.3z"/>
			</g>
			<g>
				<path class="st4" d="M140.3,170.1c-0.1,0-0.3-0.1-0.4-0.2c-3.8-4,0.6-11.3,0.8-11.6c0.1-0.2,0.4-0.3,0.7-0.2
					c0.2,0.1,0.3,0.4,0.2,0.7c0,0.1-4.2,6.9-0.9,10.4c0.2,0.2,0.2,0.5,0,0.7C140.5,170.1,140.4,170.1,140.3,170.1z"/>
			</g>
		</g>
	</g>
</g>
</svg>
