<?xml version="1.0" encoding="utf-8"?>
<!-- Generator: Adobe Illustrator 21.0.2, SVG Export Plug-In . SVG Version: 6.00 Build 0)  -->
<svg version="1.1" id="Layer_1" xmlns="http://www.w3.org/2000/svg" xmlns:xlink="http://www.w3.org/1999/xlink" x="0px" y="0px"
	 viewBox="0 0 200 200" style="enable-background:new 0 0 200 200;" xml:space="preserve">
<style type="text/css">
	.st0{fill:none;}
	.st1{fill:#FBBCA3;}
	.st2{fill:#FDD6BD;}
	.st3{fill:#FCD6CD;}
	.st4{fill:#F7956B;}
	.st5{fill:#CF7228;}
	.st6{fill:#FFFFFF;}
	.st7{fill:#353A42;}
	.st8{opacity:0.3;fill:#FFFFFF;}
	.st9{opacity:0.2;fill:#606161;}
	.st10{fill:#4862AD;}
	.st11{opacity:0.3;fill:#4862AD;}
	.st12{fill:#4D87C7;}
	.st13{opacity:0.5;fill:#4D87C7;}
	.st14{opacity:0.3;}
</style>
<g>
	<g>
		<path class="st0" d="M154.1,144.9c-2.9,1.3-4.5,3.2-4.7,4.2c-0.4,2,1.1,3.6,2.7,4c0.7,0.2,2.3,0.4,3-1.7c1-3,0.4-5.1-0.7-6.6
			C154.4,144.8,154.2,144.9,154.1,144.9z"/>
		<path class="st1" d="M152.2,42.2c1.2,0.1,2.5-0.3,3.5-1.1c3.7-2.9,2.8-11.2,5.6-14.3c0,0-12.1,0.8-13.8,7.7
			c-0.1,0.2-0.1,0.4-0.1,0.7C149.3,37.4,150.8,39.8,152.2,42.2z"/>
		<path class="st1" d="M38.8,28.8c3.1,2.9,2.9,11.2,6.8,13.8c0.6,0.4,1.2,0.6,1.9,0.8c1.6-3,3.5-5.8,5.5-8.5
			C50.4,28.7,38.8,28.8,38.8,28.8z"/>
		<path class="st2" d="M165.8,143.4c-3.2-1.9-6.9-2.4-10.5-1.5c-0.7-0.7-1.5-1.2-2.4-1.8c-1.8-1-3.8-1.5-5.7-1.8
			c-0.3,0.8-0.7,1.6-1.1,2.4c1.9,0.1,3.9,0.6,5.6,1.5c0.3,0.2,0.6,0.4,1,0.6c-3,1.4-5.2,3.7-5.6,5.7c-0.7,3.4,1.8,6.2,4.5,6.9
			c0.4,0.1,0.9,0.2,1.4,0.2c1.9,0,3.8-1,4.6-3.5c1-3,0.8-5.8-0.5-8.1c2.1-0.4,4.8-0.3,7.5,1.4c0.6,0.4,1.3,0.2,1.7-0.4
			C166.6,144.5,166.4,143.7,165.8,143.4z M155.2,151.4c-0.7,2.1-2.3,1.9-3,1.7c-1.6-0.4-3.1-2-2.7-4c0.2-1,1.8-2.9,4.7-4.2
			c0.1-0.1,0.2-0.1,0.4-0.2C155.5,146.3,156.1,148.4,155.2,151.4z"/>
		<path class="st2" d="M78.1,174.1c-4.9,0-9.4,2.6-11.8,6.4c-1.4,2.2-2.3,4.8-2.3,7.5v1.3h12.3l1.8-7.1l3.2,7.1h11.1v-1.3
			c0-2.8-1-5.4-2.4-7.5C87.5,176.7,83.1,174.1,78.1,174.1z"/>
		<path class="st1" d="M151.2,118.4c0-4.5-0.6-8.9-1.7-13c-10.8,15.7-28.8,26-49.3,26c-20.5,0-38.5-10.3-49.3-26
			c-1.1,4.2-1.7,8.5-1.7,13c0,15.2,6.1,28.8,17.2,38.2v24c2.5-3.9,6.8-6.4,11.7-6.4c4.9,0,9.3,2.6,11.7,6.4v-12.2
			c3.7,0.7,6.8,1,10.3,1c3.2,0,5.8-0.3,9.5-0.9v11.4c2.5-3.5,6.6-5.8,11.3-5.8c4.5,0,8.5,2.1,11,5.3v-21.1
			c6.2-4.7,10.7-10.7,14.1-17.6c0.4-0.8,0.7-1.6,1.1-2.4C149.7,132.2,151.2,125.5,151.2,118.4z"/>
		<path class="st3" d="M100.2,131.4c20.5,0,38.5-10.3,49.3-26c6.6-9.6,10.5-21.3,10.5-33.8c0-6.7-1.1-13.1-3.2-19.2
			c20-11.2,12.3-38.2,12.3-38.2s-1,2.3-14.3,2.9c-10,0.4-15.4,5.4-17.4,7.8c-10.2-8.2-23.2-13.1-37.3-13.1c-14.2,0-27.3,5-37.5,13.3
			c-2.1-2.2-7.8-6.9-18.1-6.5c-13.3,0.5-14.5-1.7-14.5-1.7s-5,25.6,13.3,36c-1.9,5.9-3,12.2-3,18.7c0,12.5,3.9,24.2,10.5,33.8
			C61.7,121.1,79.7,131.4,100.2,131.4z M100.2,115.4c-17.5,0-31.7-8.9-31.7-19.8c0-10.9,14.2-19.8,31.7-19.8
			c17.5,0,31.7,8.9,31.7,19.8C131.8,106.5,117.7,115.4,100.2,115.4z M161.4,26.8c-2.9,3.1-2,11.4-5.6,14.3c-1.1,0.8-2.3,1.2-3.5,1.1
			c-1.4-2.5-3-4.9-4.7-7.1c0-0.2,0.1-0.4,0.1-0.7C149.3,27.6,161.4,26.8,161.4,26.8z M128.1,64.7c0.4-3.3,3.4-5.7,6.7-5.3
			c3.3,0.4,5.7,3.4,5.2,6.7c-0.4,3.3-3.4,5.7-6.7,5.3C130.1,71,127.7,68,128.1,64.7z M72.2,64.7c0.4,3.3-1.9,6.3-5.3,6.7
			c-3.3,0.4-6.3-1.9-6.7-5.3c-0.4-3.3,1.9-6.3,5.2-6.7C68.8,59,71.8,61.4,72.2,64.7z M45.6,42.6c-3.9-2.6-3.7-10.9-6.8-13.8
			c0,0,11.6-0.1,14.2,6.1c-2.1,2.7-3.9,5.5-5.5,8.5C46.8,43.3,46.2,43,45.6,42.6z"/>
		<path class="st4" d="M100.2,75.8c-17.5,0-31.7,8.9-31.7,19.8c0,10.9,14.2,19.8,31.7,19.8c17.5,0,31.7-8.9,31.7-19.8
			C131.8,84.7,117.7,75.8,100.2,75.8z M90,102.3c-3.7,0-6.7-3-6.7-6.7c0-3.7,3-6.7,6.7-6.7c3.7,0,6.7,3,6.7,6.7
			C96.7,99.3,93.7,102.3,90,102.3z M110.4,102.3c-3.7,0-6.7-3-6.7-6.7c0-3.7,3-6.7,6.7-6.7c3.7,0,6.7,3,6.7,6.7
			C117.1,99.3,114.1,102.3,110.4,102.3z"/>
		<circle class="st5" cx="90" cy="95.6" r="6.7"/>
		<circle class="st5" cx="110.4" cy="95.6" r="6.7"/>
		<path class="st6" d="M133.4,71.4c3.3,0.4,6.3-1.9,6.7-5.3c0.4-3.3-1.9-6.3-5.2-6.7c-3.3-0.4-6.3,1.9-6.7,5.3
			C127.7,68,130.1,71,133.4,71.4z M130.3,65c0.3-2.1,2.2-3.6,4.2-3.3c2.1,0.3,3.6,2.2,3.3,4.2c-0.1,0.9-0.6,1.7-1.2,2.3
			c-0.5-1.5-1.8-2.8-3.8-3c-1.1-0.1-2,0.1-2.6,0.6C130.3,65.5,130.3,65.2,130.3,65z"/>
		<path class="st7" d="M132.9,65.2c2,0.2,3.2,1.5,3.8,3c0.6-0.6,1.1-1.4,1.2-2.3c0.3-2.1-1.2-4-3.3-4.2c-2.1-0.3-4,1.2-4.2,3.3
			c0,0.3,0,0.5,0,0.8C131,65.3,131.8,65.1,132.9,65.2z"/>
		<path class="st6" d="M60.3,66.2c0.4,3.3,3.4,5.7,6.7,5.3c3.3-0.4,5.7-3.4,5.3-6.7c-0.4-3.3-3.4-5.7-6.7-5.3
			C62.2,59.9,59.9,62.9,60.3,66.2z M65.8,61.7c2.1-0.3,4,1.2,4.2,3.3c0,0.3,0,0.5,0,0.8c-0.7-0.5-1.5-0.7-2.6-0.6
			c-2,0.2-3.2,1.5-3.8,3c-0.6-0.6-1.1-1.4-1.2-2.3C62.2,63.8,63.7,61.9,65.8,61.7z"/>
		<path class="st7" d="M63.7,68.2c0.5-1.5,1.8-2.8,3.8-3c1.1-0.1,2,0.1,2.6,0.6c0-0.3,0-0.5,0-0.8c-0.3-2.1-2.2-3.6-4.2-3.3
			c-2.1,0.3-3.6,2.2-3.3,4.2C62.6,66.8,63,67.6,63.7,68.2z"/>
		<path class="st2" d="M120.9,174.1c-4.6,0-8.6,2.3-11.1,5.8c-1.7,2.3-2.5,5.1-2.5,8.2v1.3h11.9l1.8-7.1l3.2,7.1h10.3v-1.3
			c0-3.3-0.9-6.3-2.8-8.6C129.1,176.2,125.4,174.1,120.9,174.1z"/>
	</g>
	<path class="st8" d="M165.8,143.4c-3.2-1.9-6.9-2.4-10.5-1.5c-0.7-0.7-1.5-1.2-2.4-1.8c-1.8-1-3.8-1.5-5.7-1.8
		c2.6-6.1,4-12.9,4-19.9c0-4.5-0.6-8.9-1.7-13c6.6-9.6,10.5-21.3,10.5-33.8c0-6.7-1.1-13.1-3.2-19.2c20-11.2,12.3-38.2,12.3-38.2
		s-1,2.3-14.3,2.9c-10,0.4-15.4,5.4-17.4,7.8c-10-8-22.7-12.9-36.5-13.1v157.6c3,0,5.8-0.3,8.7-0.9v11.4c-1.7,2.3-2.5,5.1-2.5,8.2
		v1.3h11.9l1.8-7.1l3.2,7.1h10.3v-1.3c0-3.3-0.6-6.3-2.5-8.6v-21.1c5.9-4.7,10.8-10.7,14.1-17.6c1.9,0.1,3.9,0.6,5.6,1.5
		c0.3,0.2,0.6,0.4,1,0.6c-3,1.4-5.2,3.7-5.6,5.7c-0.7,3.4,1.8,6.2,4.5,6.9c0.4,0.1,0.9,0.2,1.4,0.2c1.9,0,3.8-1,4.6-3.5
		c1-3,0.8-5.8-0.5-8.1c2.1-0.4,4.8-0.3,7.5,1.4c0.6,0.4,1.3,0.2,1.7-0.4C166.6,144.5,166.4,143.7,165.8,143.4z M155.2,151.4
		c-0.7,2.1-2.3,1.9-3,1.7c-1.6-0.4-3.1-2-2.7-4c0.2-1,1.8-2.9,4.7-4.2c0.1-0.1,0.2-0.1,0.4-0.2C155.5,146.3,156.1,148.4,155.2,151.4
		z"/>
</g>
<g>
	<path class="st9" d="M134.7,186.3c-3.3,0-7.5-2.7-8.7-5.6c-0.5-1.4-0.6-3.9,3.6-6.2c1.1-0.6-0.6,1,1.2,0.1
		c4.2-2.3,10.2-5.5,13.2-11.8c-2,1.1-4.5,1.9-7.5,2.3c-0.6,0.1-1.3,0.1-2,0.1c-4,0-9.4-1.6-12.5-5.2c-2.5-3-5.6-8.1-3-17.8
		c1.6-6.1,6.8-11.9,13.7-14.9c2.1-0.9,3.9,0.9,5.9,0.9c5.6,0,10.5,2.1,14.7,6.3c6.3,6.3,7.6,19.5,3.1,32.1
		c-4.5,12.5-17,18.9-20.8,19.6C135.5,186.3,135.1,186.3,134.7,186.3z M138.1,140.7c-1.6,0-3.2,0.6-4.5,1.8c-1.7,1.6-2.6,4-2.2,6.2
		c0.2,1.1,0.9,2.6,2.8,3.4c0.8,0.3,1.7,0.5,2.6,0.5c0,0,0,0,0,0c3,0,6.3-1.6,8.1-3.8c1.3-1.6-1.2-5.3-2.6-6.4
		C141.1,141.2,139.6,140.7,138.1,140.7z"/>
	<g>
		<g>
			<path class="st10" d="M136.2,183.8c-3.3,0-7.5-2.7-8.7-5.6c-0.5-1.4-0.6-3.9,3.6-6.2c1.1-0.6-0.6,1,1.2,0.1
				c4.2-2.3,10.2-5.5,13.2-11.8c-2,1.1-4.5,1.9-7.5,2.3c-0.6,0.1-1.3,0.1-2,0.1c-4,0-9.4-1.6-12.5-5.2c-2.5-3-5.6-8.1-3-17.8
				c1.6-6.1,6.8-11.9,13.7-14.9c2.1-0.9,3.9,0.9,5.9,0.9c5.6,0,10.5,2.1,14.7,6.3c6.3,6.3,7.6,19.5,3.1,32.1
				c-4.5,12.5-17,18.9-20.8,19.6C136.9,183.8,136.6,183.8,136.2,183.8z M139.6,138.2c-1.6,0-3.2,0.6-4.5,1.8c-1.7,1.6-2.6,4-2.2,6.2
				c0.2,1.1,0.9,2.6,2.8,3.4c0.8,0.3,1.7,0.5,2.6,0.5c0,0,0,0,0,0c3,0,6.3-1.6,8.1-3.8c1.3-1.6-1.2-5.3-2.6-6.4
				C142.5,138.8,141.1,138.2,139.6,138.2z"/>
			<path class="st11" d="M155,132c-4.1-4.1-9.1-6.3-14.7-6.3c-2.1,0-3.9-1.8-5.9-0.9c-4.8,2-8.8,5.5-11.3,9.4
				c1.2-0.6,2.4-1.2,3.6-1.7c2.2-1,4.7-0.7,6.1,1.6c1.1,1.9,0.6,5.1-1.6,6.1c-4,1.7-7.8,3.9-11.4,6.3c0,4.7,1.5,7.8,3.2,10
				c2-1.6,4-3.3,5.9-5c1.8-1.7,4.4-1.7,6.3,0c1.7,1.6,1.7,4.7,0,6.3c-1.5,1.4-3.1,2.7-4.6,4c2,0.7,4,1,5.8,1c0.7,0,1.4,0,2-0.1
				c2.9-0.4,5.5-1.2,7.5-2.3c-3,6.3-9,9.5-13.2,11.8c-1.8,1-0.1-0.7-1.2-0.1c-4.2,2.4-4.2,4.8-3.6,6.2c0.7,1.8,2.7,3.6,4.9,4.7
				c0.1-0.1,0.2-0.1,0.3-0.2c4.8-3,8.5-7.6,13.8-9.8c2-0.9,4.3-0.7,5.7,1.1c2.4-2.7,4.5-6,5.9-9.8C162.6,151.5,161.3,138.3,155,132z
				 M152.8,144.7c-0.1,0-0.2,0.1-0.3,0.1c-0.3,0.2-0.6,0.3-0.9,0.5c-0.6,0.4-1.2,0.7-1.9,1.1c-1.2,0.7-2.5,0.8-3.7,0.3
				c-1.9,2-5,3.4-7.8,3.4c0,0,0,0,0,0c-0.9,0-1.8-0.2-2.6-0.5c-2-0.8-2.6-2.3-2.8-3.4c-0.4-2.1,0.5-4.6,2.2-6.2
				c1.3-1.2,2.9-1.8,4.5-1.8c1.5,0,2.9,0.5,4.3,1.6c0,0,0.1,0.1,0.1,0.1c0.4-0.5,0.8-1,1.3-1.3c1.6-1,3.3-1.9,5.2-2.6
				c2.3-0.8,4.8,0.9,5.5,3.1C156.7,141.6,155,143.9,152.8,144.7z"/>
			<path class="st12" d="M139,181.2c-3.3,0-7.5-2.7-8.7-5.6c-0.5-1.4-0.3-2.7,0.7-3.6c0.9-0.8,2.3-1.6,4.1-2.5
				c4.2-2.3,10.2-5.5,13.2-11.8c-2,1.1-4.5,1.9-7.5,2.3c-0.6,0.1-1.3,0.1-2,0.1c-4,0-9.4-1.6-12.5-5.2c-2.5-3-5.6-8.1-3-17.8
				c1.6-6.1,7-11.5,13.3-13.1c2.2-0.6,4.3-0.9,6.4-0.9c5.6,0,10.5,2.1,14.7,6.3c6.3,6.3,7.6,19.5,3.1,32.1
				c-4.5,12.5-17,18.9-20.8,19.6C139.8,181.2,139.4,181.2,139,181.2z M142.5,135.6c-1.6,0-3.2,0.6-4.5,1.8c-1.7,1.6-2.6,4-2.2,6.2
				c0.2,1.1,0.9,2.6,2.8,3.4c0.8,0.3,1.7,0.5,2.6,0.5c0,0,0,0,0,0c3,0,6.3-1.6,8.1-3.8c1.3-1.6-1.2-5.3-2.6-6.4
				C145.4,136.2,144,135.6,142.5,135.6z"/>
			<g>
				<path class="st12" d="M142.5,164.9c-2.5,2-5.1,3.4-7.3,4.6c-1.8,1-3.2,1.7-4.1,2.5c-0.3,0.3-0.5,0.6-0.7,0.9
					c0.7-0.4,1.6-0.9,2.5-1.4C135.8,170,139.5,168,142.5,164.9z"/>
				<path class="st12" d="M157.9,129.4c-4.1-4.1-9.1-6.3-14.7-6.3c-2.1,0-4.2,0.3-6.4,0.9c-3.3,0.9-6.3,2.8-8.7,5.3
					c1.9-1.5,4.1-2.6,6.4-3.2c2.2-0.6,4.3-0.9,6.4-0.9c5.6,0,10.5,2.1,14.7,6.3c6.3,6.3,7.6,19.5,3.1,32.1
					c-1.7,4.7-4.5,8.6-7.6,11.6c3.9-3.2,7.8-7.7,9.9-13.6C165.5,148.9,164.2,135.7,157.9,129.4z"/>
				<path class="st12" d="M135.7,139.5c-1.7,1.6-2.6,4-2.2,6.2c0.2,1.1,0.9,2.6,2.8,3.4c0.8,0.3,1.7,0.5,2.6,0.5c0,0,0,0,0,0
					c3,0,6.3-1.6,8.1-3.8c0,0,0-0.1,0.1-0.1c-1.7,1.1-3.9,1.8-5.9,1.8c0,0,0,0,0,0c-0.9,0-1.8-0.2-2.6-0.5c-2-0.8-2.6-2.3-2.8-3.4
					c-0.3-1.7,0.2-3.6,1.2-5.1C136.5,138.8,136.1,139.1,135.7,139.5z"/>
			</g>
			<path class="st13" d="M139,179.8c-2.7,0-6.4-2.4-7.3-4.7c-0.3-0.8-0.2-1.5,0.3-2c0.8-0.7,2.1-1.4,3.8-2.3
				c4.3-2.3,10.7-5.7,13.9-12.4c0.3-0.6,0.2-1.3-0.3-1.7c-0.3-0.3-0.6-0.4-1-0.4c-0.2,0-0.5,0.1-0.7,0.2c-1.9,1.1-4.2,1.8-6.9,2.2
				c-0.6,0.1-1.2,0.1-1.8,0.1c-3.7,0-8.6-1.4-11.3-4.7c-2.3-2.8-5.1-7.5-2.7-16.5c1.5-5.6,6.5-10.5,12.2-12.1c2.1-0.5,4.1-0.8,6-0.8
				c5.2,0,9.8,2,13.6,5.8c5.9,5.9,7.1,18.5,2.8,30.5c-4.3,12-16.6,18-19.7,18.7C139.6,179.7,139.3,179.8,139,179.8z M142.5,134.1
				c-2,0-3.9,0.8-5.5,2.2c-2.1,1.9-3.2,4.9-2.7,7.5c0.4,2.1,1.7,3.7,3.8,4.5c1,0.4,2,0.6,3.1,0.6c3.4,0,7.1-1.7,9.2-4.3
				c2.1-2.6-1.2-7.2-2.8-8.5C146.1,134.8,144.3,134.1,142.5,134.1z"/>
			<g class="st14">
				<path class="st6" d="M143.3,123.2C143.2,123.2,143.2,123.2,143.3,123.2c-2.1,0-4.3,0.3-6.5,0.9c-6.2,1.7-11.7,7.1-13.3,13.1
					c-0.2,0.6-0.3,1.3-0.4,1.9C131,135.6,137.4,129.5,143.3,123.2z"/>
				<path class="st6" d="M125.3,136.3c1.8-5.1,6.5-9.4,11.8-10.8c0.8-0.2,1.6-0.4,2.4-0.5C135.3,129.3,130.7,133.4,125.3,136.3z"/>
				<path class="st6" d="M135.8,143.6c-0.1-0.5-0.1-1.1-0.1-1.6c-3.9,2.7-8,5-12.6,6.6c0.6,2.4,1.7,4.2,2.8,5.6
					c3.9-2.7,8-5.2,12.3-7.3C136.5,146,136,144.7,135.8,143.6z"/>
				<path class="st6" d="M126.3,152.1c-0.5-0.9-1-1.7-1.3-2.7c3.2-1.2,6.4-2.8,9.5-4.9c0.2,0.7,0.6,1.4,1,1.9
					C132.4,148.2,129.3,150,126.3,152.1z"/>
				<path class="st6" d="M149.7,142.4c4.4-1.2,8.9-1.9,13.4-2c-0.8-4.5-2.6-8.4-5.2-11c-1.6-1.6-3.2-2.8-5-3.8
					c-0.2,0.3-0.4,0.6-0.7,1c-2.8,3.1-5.7,6.3-8.8,9.1c1.2,0.2,2.3,0.7,3.4,1.6C147.8,138.1,149.6,140.6,149.7,142.4z"/>
				<path class="st6" d="M150.7,140.6c-0.7-1.8-2.1-3.7-3.1-4.5c-0.5-0.4-1-0.8-1.6-1c2.2-2.1,4.4-4.5,7.1-7.5
					c1.2,0.8,2.4,1.8,3.6,2.9c2.1,2,3.6,5,4.5,8.6C157.8,139.2,154.3,139.7,150.7,140.6z"/>
				<path class="st6" d="M133.8,159.4c1.8,0.5,3.6,0.8,5.2,0.8c0.7,0,1.4,0,2-0.1c2.9-0.4,5.5-1.2,7.5-2.3c-0.5,1-1,1.9-1.6,2.7
					c4.7,0.1,9.3,0.7,13.8,1.9c0.1-0.3,0.2-0.6,0.3-0.9c1.5-4.1,2.3-8.3,2.6-12.3C153.1,149.1,142.7,153.6,133.8,159.4z"/>
				<path class="st6" d="M159.7,160.6c-3.3-0.8-6.7-1.3-10.3-1.5c0.1-0.2,0.3-0.5,0.4-0.7c0.3-0.6,0.1-1.3-0.3-1.7
					c-0.3-0.3-0.6-0.4-1-0.4c-0.2,0-0.5,0.1-0.7,0.2c-1.9,1.1-4.2,1.8-6.9,2.2c-0.6,0.1-1.2,0.1-1.8,0.1c-0.4,0-0.8,0-1.2-0.1
					c8.5-5,16.6-7.7,24.2-8C161.6,154,160.9,157.3,159.7,160.6z"/>
				<path class="st6" d="M133.9,170.2c-1.2,0.6-2.1,1.2-2.8,1.8c-1,0.9-1.3,2.2-0.7,3.6c1.1,2.9,5.3,5.6,8.7,5.6
					c0.4,0,0.8,0,1.2-0.1c2.8-0.6,10.1-4.1,15.7-10.8C148.7,168.9,141.2,169,133.9,170.2z"/>
				<path class="st6" d="M139,179.8c-2.7,0-6.4-2.4-7.3-4.7c-0.3-0.8-0.2-1.5,0.3-2c0.5-0.5,1.4-1,2.3-1.5c3.6-0.6,7.2-0.9,10.6-0.9
					c2.8,0,5.5,0.2,8.1,0.6c-5.1,5.2-11,7.9-13.1,8.3C139.6,179.7,139.3,179.8,139,179.8z"/>
			</g>
		</g>
		<g>
			<g>
				<path class="st6" d="M147.6,174.5c-0.1,0-0.3-0.1-0.4-0.2c-0.2-0.2-0.2-0.5,0-0.7c3.9-3.5,7.9-7.4,10.2-13
					c0.1-0.3,0.4-0.4,0.6-0.3c0.3,0.1,0.4,0.4,0.3,0.6c-2.3,5.8-6.4,9.8-10.4,13.4C147.9,174.5,147.8,174.5,147.6,174.5z"/>
			</g>
			<g>
				<path class="st6" d="M159.3,156.9c0,0-0.1,0-0.1,0c-0.3-0.1-0.4-0.3-0.4-0.6c0.6-3,0.8-6.3,0.6-10.1c-0.3-5.2-2.1-9.5-5.3-13
					c-0.2-0.2-0.2-0.5,0-0.7c0.2-0.2,0.5-0.2,0.7,0c3.4,3.6,5.3,8.2,5.6,13.6c0.2,3.9,0,7.2-0.6,10.3
					C159.7,156.7,159.5,156.9,159.3,156.9z"/>
			</g>
			<g>
				<path class="st6" d="M151,130.5c-0.1,0-0.2,0-0.3-0.1c-3.1-2.1-5.8-2.8-5.8-2.8c-0.3-0.1-0.4-0.3-0.4-0.6
					c0.1-0.3,0.3-0.4,0.6-0.4c0.1,0,2.9,0.7,6.1,2.9c0.2,0.2,0.3,0.5,0.1,0.7C151.3,130.5,151.2,130.5,151,130.5z"/>
			</g>
			<g>
				<path class="st6" d="M141.2,151.2c-0.2,0-0.4-0.2-0.5-0.4c-0.1-0.3,0.1-0.5,0.4-0.6c2.1-0.4,3.7-1.2,3.7-1.2
					c0.2-0.1,0.5,0,0.7,0.2c0.1,0.2,0,0.5-0.2,0.7C145.2,150,143.5,150.8,141.2,151.2C141.2,151.2,141.2,151.2,141.2,151.2z"/>
			</g>
			<g>
				<path class="st6" d="M137.1,151.4C137,151.4,137,151.4,137.1,151.4c-1.1-0.2-2.1-0.5-2.9-1c-1.4-0.9-2.3-2.2-2.6-3.9
					c-0.6-2.9,0.5-6.5,1.8-8.6c0.2-0.2,0.5-0.3,0.7-0.1c0.2,0.2,0.3,0.5,0.1,0.7c-1.2,1.8-2.3,5.2-1.7,7.8c0.3,1.5,1,2.5,2.2,3.3
					c0.7,0.4,1.5,0.7,2.5,0.9c0.3,0,0.4,0.3,0.4,0.6C137.5,151.2,137.3,151.4,137.1,151.4z"/>
			</g>
		</g>
	</g>
</g>
</svg>
